{
.appVersion = "3436";
.formatVersion = 3;
customParameters = (
{
name = vendorID;
value = dinr;
},
{
name = panose;
value = (
2,
0,
0,
0,
0,
0,
0,
0,
0,
0
);
},
{
name = unicodeRanges;
value = (
0,
1,
2,
5,
31,
33,
38,
62
);
},
{
name = glyphOrder;
value = (
.notdef,
Eth,
eth,
Lslash,
lslash,
Scaron,
scaron,
Yacute,
yacute,
Thorn,
thorn,
Zcaron,
zcaron,
onehalf,
onequarter,
onesuperior,
threequarters,
threesuperior,
twosuperior,
brokenbar,
minus,
multiply,
exclam,
quotedbl,
numbersign,
dollar,
percent,
ampersand,
quotesingle,
parenleft,
parenright,
asterisk,
plus,
comma,
hyphen,
period,
slash,
zero,
one,
two,
three,
four,
five,
six,
seven,
eight,
nine,
colon,
semicolon,
less,
equal,
greater,
question,
at,
A,
B,
C,
D,
E,
F,
G,
H,
I,
J,
K,
L,
M,
N,
O,
P,
Q,
R,
S,
T,
U,
V,
W,
X,
Y,
Z,
bracketleft,
backslash,
bracketright,
asciicircum,
underscore,
grave,
a,
b,
c,
d,
e,
f,
g,
h,
i,
j,
k,
l,
m,
n,
o,
p,
q,
r,
s,
t,
u,
v,
w,
x,
y,
z,
braceleft,
bar,
braceright,
asciitilde,
Adieresis,
Aring,
Ccedilla,
Eacute,
Ntilde,
Odieresis,
Udieresis,
aacute,
agrave,
acircumflex,
adieresis,
atilde,
aring,
ccedilla,
eacute,
egrave,
ecircumflex,
edieresis,
iacute,
igrave,
icircumflex,
idieresis,
ntilde,
oacute,
ograve,
ocircumflex,
odieresis,
otilde,
uacute,
ugrave,
ucircumflex,
udieresis,
degree,
cent,
sterling,
section,
bullet,
paragraph,
germandbls,
registered,
copyright,
acute,
dieresis,
AE,
Oslash,
yen,
mu,
ordfeminine,
ordmasculine,
ae,
oslash,
questiondown,
exclamdown,
logicalnot,
guillemotleft,
guillemotright,
ellipsis,
uni00A0,
Agrave,
Atilde,
Otilde,
OE,
oe,
endash,
emdash,
quotedblleft,
quotedblright,
quoteleft,
quoteright,
divide,
ydieresis,
Ydieresis,
fraction,
Euro,
guilsinglleft,
guilsinglright,
fi,
fl,
periodcentered,
quotesinglbase,
quotedblbase,
perthousand,
Acircumflex,
Ecircumflex,
Aacute,
Edieresis,
Egrave,
Iacute,
Icircumflex,
Idieresis,
Igrave,
Oacute,
Ocircumflex,
Ograve,
Uacute,
Ucircumflex,
Ugrave,
dotlessi,
circumflex,
tilde,
macron,
breve,
dotaccent,
ring,

glyphs = (
{
glyphname = Eth;
layers = (
{
layerId = m01;
shapes = (
{
closed = 1;
nodes = (
(111,683,o),
(111,673,qs),
(111,670,o),
(114,664,o),
(114,662,qs),
(115,657,o),
(112,649,o),
(117,646,q),
(121,649,o),
(121,659,o),
(122,664,qs),
(123,669,o),
(121,680,o),
(122,685,qs),
(123,699,o),
(120,726,o),
(122,742,qs),
(122,744,o),
(123,751,o),
(123,753,q),
(125,756,o),
(132,758,o),
(137,760,q),
(139,762,o),
(144,765,o),
(147,767,q),
(158,771,o),
(176,770,o),
(191,777,q),
(214,775,o),
(255,779,o),
(276,777,q),
(279,773,o),
(285,763,o),
(290,761,qs),
(295,759,o),
(305,761,o),
(313,761,qs),
(323,760,o),
(337,759,o),
(345,761,q),
(349,763,o),
(355,766,o),
(368,764,q),
(373,765,o),
(391,771,o),
(392,774,qs),
(394,778,o),
(390,784,o),
(389,786,q),
(378,791,o),
(357,790,o),
(346,791,qs),
(337,792,o),
(320,795,o),
(311,795,qs),
(300,795,o),
(281,793,o),
(270,793,qs),
(263,793,o),
(249,791,o),
(241,791,qs),
(238,791,o),
(230,788,o),
(227,788,qs),
(223,788,o),
(217,792,o),
(213,792,qs),
(208,792,o),
(200,787,o),
(195,787,qs),
(190,787,o),
(183,792,o),
(180,792,qs),
(176,793,o),
(162,791,o),
(159,790,q),
(156,788,o),
(151,784,o),
(146,784,qs),
(141,783,o),
(133,786,o),
(129,785,qs),
(126,784,o),
(118,781,o),
(115,779,qs),
(105,771,o),
(103,743,o),
(104,729,q),
(105,725,o),
(104,717,o),
(105,713,qs),
(107,702,o)
);
},
{
closed = 1;
nodes = (
(892,712,o),
(894,707,qs),
(896,702,o),
(898,694,o),
(900,691,qs),
(906,684,o),
(929,683,o),
(938,683,q),
(940,688,o),
(947,688,o),
(947,692,q),
(949,698,o),
(936,707,o),
(931,710,qs),
(927,712,o),
(918,719,o),
(912,722,qs),
(907,725,o),
(897,729,o),
(892,731,qs),
(887,734,o),
(872,741,o),
(866,739,qs),
(859,737,o),
(861,731,o),
(870,725,o),
(881,720,o),
(883,720,q),
(885,716,o)
);
},
{
closed = 1;
nodes = (
(1072,438,o),
(1070,446,qs),
(1069,454,o),
(1070,467,o),
(1068,473,q),
(1066,487,o),
(1061,512,o),
(1058,524,qs),
(1055,539,o),
(1044,564,o),
(1036,575,q),
(1034,579,o),
(1028,585,o),
(1026,589,qs),
(1022,596,o),
(1016,608,o),
(1011,613,qs),
(1009,615,o),
(1005,621,o),
(1002,623,qs),
(997,628,o),
(984,636,o),
(979,641,qs),
(977,643,o),
(974,648,o),
(972,650,qs),
(970,652,o),
(961,653,o),
(956,655,qs),
(946,659,o),
(941,660,qs),
(935,662,o),
(922,659,o),
(915,660,qs),
(904,663,o),
(885,670,o),
(878,676,q),
(878,679,o),
(874,683,o),
(872,686,qs),
(870,691,o),
(867,706,o),
(863,710,qs),
(860,713,o),
(848,714,o),
(834,719,qs),
(830,720,o),
(823,719,o),
(814,723,q),
(806,725,o),
(791,723,o),
(783,724,qs),
(764,727,ls),
(753,728,o),
(729,725,o),
(718,726,q),
(710,721,o),
(688,719,o),
(674,721,qs),
(666,723,o),
(653,737,o),
(644,737,qs),
(628,738,o),
(595,734,o),
(580,734,q),
(571,728,o),
(555,716,o),
(542,718,qs),
(539,719,o),
(525,725,o),
(516,735,q),
(514,736,o),
(506,736,o),
(502,736,q),
(491,738,o),
(472,737,o),
(463,738,qs),
(447,740,o),
(412,740,o),
(395,740,qs),
(387,740,o),
(373,740,o),
(368,738,qs),
(363,737,o),
(355,733,o),
(351,731,qs),
(331,724,o),
(314,728,qs),
(300,732,o),
(269,735,o),
(258,743,q),
(256,751,o),
(243,754,o),
(223,751,qs),
(213,750,o),
(190,749,o),
(181,744,qs),
(176,741,o),
(165,736,o),
(160,734,q),
(158,729,o),
(153,721,o),
(153,707,qs),
(153,700,o),
(148,688,o),
(148,680,qs),
(148,672,o),
(147,653,o),
(148,645,qs),
(148,637,o),
(147,622,o),
(147,613,qs),
(146,607,o),
(147,594,o),
(147,588,qs),
(147,582,o),
(145,568,o),
(146,562,q),
(146,549,o),
(161,531,o),
(166,519,qs),
(170,508,o),
(172,477,o),
(170,465,qs),
(169,457,o),
(165,442,o),
(159,436,q),
(154,435,o),
(144,436,o),
(139,435,qs),
(136,435,o),
(130,432,o),
(119,435,q),
(117,435,o),
(110,433,o),
(106,432,qs),
(98,430,o),
(88,429,o),
(83,426,qs),
(79,423,o),
(76,409,o),
(69,393,q),
(66,382,o),
(67,364,o),
(69,353,qs),
(72,336,o),
(76,303,o),
(86,295,q),
(101,293,o),
(128,293,o),
(141,295,q),
(139,284,o),
(143,268,o),
(149,253,o),
(155,239,o),
(156,230,qs),
(157,225,o),
(156,213,o),
(155,208,qs),
(153,202,o),
(146,187,o),
(139,175,q),
(136,167,o),
(139,153,o),
(140,145,qs),
(140,142,o),
(139,136,o),
(139,134,qs),
(140,126,o),
(143,110,o),
(143,102,qs),
(142,94,o),
(140,79,o),
(141,69,qs),
(141,62,o),
(141,50,o),
(143,45,qs),
(145,38,o),
(158,27,o),
(164,22,q),
(172,23,o),
(181,13,o),
(189,11,qs),
(193,10,o),
(200,11,o),
(203,10,qs),
(206,9,o),
(213,8,o),
(215,7,q),
(225,6,o),
(245,9,o),
(254,9,q),
(259,8,o),
(266,6,o),
(271,5,qs),
(276,5,o),
(286,8,o),
(291,10,qs),
(294,11,o),
(301,10,o),
(303,11,qs),
(306,13,o),
(312,16,o),
(315,17,qs),
(320,18,o),
(329,20,o),
(334,20,q),
(340,22,o),
(352,22,o),
(358,23,qs),
(373,24,o),
(385,20,qs),
(391,18,o),
(400,10,o),
(408,7,qs),
(422,0,o),
(459,5,o),
(481,3,qs),
(495,2,o),
(522,6,o),
(536,5,qs),
(541,5,o),
(550,4,o),
(555,4,qs),
(563,5,o),
(582,8,o),
(591,7,qs),
(600,7,o),
(618,6,o),
(628,5,qs),
(637,5,o),
(654,4,o),
(663,4,qs),
(668,4,o),
(679,3,o),
(682,4,q),
(687,4,o),
(694,9,o),
(698,11,q),
(725,17,o),
(757,16,qs),
(765,16,o),
(779,12,o),
(784,10,qs),
(786,9,o),
(793,9,o),
(801,1,q),
(803,0,o),
(811,-3,o),
(814,-3,q),
(820,-5,o),
(837,-8,o),
(842,-8,qs),
(844,-8,o),
(848,-6,o),
(861,-6,q),
(865,-5,o),
(872,-2,o),
(877,0,q),
(889,2,o),
(907,8,o),
(915,12,qs),
(925,17,o),
(940,27,o),
(948,32,qs),
(959,39,o),
(977,56,o),
(987,69,q),
(998,80,o),
(1021,107,o),
(1029,122,qs),
(1031,126,o),
(1038,138,o),
(1039,142,qs),
(1041,149,o),
(1037,161,o),
(1040,167,q),
(1048,169,o),
(1058,174,q),
(1061,194,o),
(1066,226,o),
(1068,245,qs),
(1070,256,o),
(1070,279,o),
(1071,292,qs),
(1073,303,o),
(1076,327,o),
(1076,338,qs),
(1077,358,o),
(1075,396,o),
(1074,413,qs),
(1074,421,o)
);
},
{
closed = 1;
nodes = (
(210,298,o),
(210,287,o),
(206,279,o),
(201,279,qs),
(196,279,o),
(191,286,o),
(189,287,q),
(187,301,o),
(188,333,o),
(182,346,q),
(184,355,o),
(187,379,o),
(189,387,q),
(193,389,o),
(197,394,o),
(200,394,qs),
(205,395,o),
(213,384,o),
(214,379,qs),
(215,374,o),
(210,359,o),
(209,352,qs),
(207,344,o),
(208,322,o),
(208,313,qs),
(208,310,o)
);
},
{
closed = 1;
nodes = (
(204,567,o),
(204,572,q),
(202,581,o),
(216,590,o),
(220,595,q),
(225,595,o),
(233,590,o),
(238,588,q),
(240,582,o),
(237,569,o),
(230,566,qs),
(224,564,o)
);
},
{
closed = 1;
nodes = (
(216,630,o),
(199,634,q),
(197,645,o),
(198,676,o),
(201,689,q),
(205,694,o),
(217,705,o),
(225,705,q),
(233,703,o),
(243,695,o),
(251,693,qs),
(256,691,o),
(267,690,o),
(273,687,q),
(274,679,o),
(268,671,o),
(257,666,o),
(245,664,o),
(240,662,q),
(232,651,o)
);
},
{
closed = 1;
nodes = (
(416,203,o),
(414,200,q),
(395,200,o),
(396,213,q),
(397,215,o),
(406,218,o),
(415,218,o),
(422,215,o),
(422,211,qs),
(422,207,o)
);
},
{
closed = 1;
nodes = (
(394,118,o),
(396,129,qs),
(398,137,o),
(406,157,o),
(412,161,qs),
(416,163,o),
(423,157,o),
(425,154,q),
(426,140,o),
(436,119,o),
(447,114,q),
(444,99,o),
(411,91,o),
(397,93,q),
(392,99,o)
);
},
{
closed = 1;
nodes = (
(751,369,o),
(750,360,o),
(748,357,qs),
(744,351,o),
(734,341,o),
(732,335,qs),
(730,331,o),
(733,322,o),
(732,317,qs),
(732,313,o),
(730,306,o),
(729,302,qs),
(728,294,o),
(729,279,o),
(728,271,qs),
(726,262,o),
(727,244,o),
(726,236,qs),
(725,232,o),
(724,224,o),
(723,220,qs),
(722,215,o),
(718,204,o),
(716,199,qs),
(714,192,o),
(706,180,o),
(701,174,qs),
(695,168,o),
(680,156,o),
(659,153,q),
(654,151,o),
(647,144,o),
(645,140,qs),
(640,132,o),
(636,120,o),
(626,119,q),
(623,118,o),
(613,117,o),
(609,118,qs),
(598,120,o),
(587,137,o),
(579,144,q),
(571,144,o),
(559,147,o),
(554,147,qs),
(549,146,o),
(541,144,o),
(537,144,qs),
(524,144,o),
(502,146,o),
(488,146,q),
(486,154,o),
(483,156,q),
(482,162,o),
(483,173,o),
(483,180,qs),
(483,183,o),
(481,189,o),
(481,193,qs),
(482,198,o),
(484,209,o),
(484,215,qs),
(484,234,o),
(484,273,o),
(489,290,q),
(508,291,o),
(545,292,o),
(559,299,q),
(561,301,o),
(569,308,o),
(571,313,qs),
(573,319,o),
(570,333,o),
(570,338,qs),
(569,354,o),
(575,384,o),
(573,395,qs),
(570,416,o),
(553,419,qs),
(537,421,o),
(505,416,o),
(490,417,q),
(487,431,o),
(471,454,o),
(469,468,qs),
(467,482,o),
(483,508,o),
(489,522,q),
(491,540,o),
(493,571,o),
(501,596,q),
(509,600,o),
(529,595,o),
(539,594,qs),
(544,593,o),
(552,594,o),
(557,594,qs),
(564,593,o),
(578,590,o),
(586,592,q),
(600,587,o),
(609,588,qs),
(613,588,o),
(617,589,o),
(622,588,qs),
(629,586,o),
(643,588,o),
(651,587,qs),
(659,586,o),
(672,582,qs),
(682,580,o),
(694,576,o),
(700,571,qs),
(702,569,o),
(706,566,o),
(717,561,q),
(730,551,o),
(739,519,o),
(741,498,qs),
(742,490,o),
(741,479,o),
(741,473,qs),
(741,465,o),
(741,450,o),
(742,442,qs),
(742,438,o),
(740,428,o),
(741,424,qs),
(742,420,o),
(747,417,o),
(751,413,qs),
(758,404,o),
(758,388,q),
(757,386,o),
(757,379,o),
(756,377,qs),
(753,372,ls)
);
},
{
closed = 1;
nodes = (
(788,554,o),
(786,565,o),
(785,577,o),
(783,581,qs),
(779,591,o),
(760,601,o),
(752,606,q),
(756,617,o),
(774,614,o),
(783,611,qs),
(791,609,o),
(806,605,o),
(811,600,qs),
(818,591,o),
(821,561,o),
(814,550,q),
(810,548,o),
(801,544,o),
(796,545,qs),
(792,546,o)
);
},
{
closed = 1;
nodes = (
(810,515,o),
(820,513,q),
(828,505,o),
(818,484,o),
(806,486,q),
(804,497,o)
);
},
{
closed = 1;
nodes = (
(927,69,o),
(918,55,o),
(911,53,qs),
(907,51,o),
(886,46,o),
(880,46,qs),
(877,46,o),
(868,49,o),
(857,55,q),
(855,64,o),
(862,78,o),
(870,79,qs),
(877,80,o),
(890,78,o),
(895,78,q),
(903,80,o),
(926,95,o),
(929,100,q),
(931,102,o),
(932,109,o),
(934,111,qs),
(936,113,o),
(948,117,o),
(953,115,q),
(959,103,o),
(945,87,o),
(941,79,q),
(932,73,ls)
);
},
{
closed = 1;
nodes = (
(578,569,o),
(567,571,qs),
(556,573,o),
(538,580,o),
(528,577,q),
(522,572,o),
(519,557,o),
(519,547,qs),
(518,539,o),
(514,521,o),
(514,513,q),
(515,510,o),
(525,505,o),
(528,505,q),
(530,506,o),
(538,514,o),
(539,516,qs),
(541,520,o),
(543,531,o),
(545,536,q),
(553,544,l),
(558,551,o),
(563,552,o),
(571,552,qs),
(582,552,o),
(602,548,o),
(613,554,q),
(616,559,o),
(610,566,o),
(605,568,qs),
(598,570,o)
);
},
{
closed = 1;
nodes = (
(511,461,o),
(517,456,q),
(523,458,o),
(529,466,o),
(532,470,q),
(534,478,o),
(527,493,o),
(518,494,q),
(512,489,o)
);
},
{
closed = 1;
nodes = (
(110,230,o),
(108,223,q),
(102,216,o),
(101,207,qs),
(97,188,o),
(96,139,o),
(95,119,qs),
(95,115,o),
(97,105,qs),
(98,91,o),
(100,64,o),
(114,61,q),
(122,69,o),
(119,97,o),
(118,106,qs),
(118,109,o),
(119,115,o),
(119,117,qs),
(118,121,o),
(115,128,o),
(115,143,q),
(113,154,o),
(106,173,o),
(111,184,q),
(119,184,o),
(126,198,o),
(127,206,qs),
(128,217,o),
(122,249,o),
(114,251,q),
(109,246,o)
);
},
{
closed = 1;
nodes = (
(930,-3,o),
(926,-7,o),
(921,-12,o),
(913,-13,q),
(900,-21,o),
(885,-24,qs),
(880,-25,o),
(868,-23,o),
(863,-24,qs),
(852,-26,o),
(828,-30,o),
(814,-28,q),
(808,-26,o),
(796,-21,o),
(790,-19,q),
(781,-18,o),
(768,-16,o),
(762,-15,q),
(757,-9,o),
(745,-14,o),
(737,-15,qs),
(723,-17,o),
(696,-18,o),
(685,-15,q),
(679,-18,o),
(657,-23,o),
(655,-31,qs),
(654,-41,o),
(672,-42,o),
(680,-43,qs),
(686,-44,o),
(698,-46,o),
(703,-46,qs),
(716,-45,o),
(743,-38,o),
(757,-36,qs),
(770,-34,o),
(794,-38,o),
(805,-39,qs),
(822,-40,o),
(854,-40,o),
(873,-40,q),
(884,-38,o),
(902,-35,o),
(918,-30,qs),
(923,-28,o),
(942,-16,o),
(939,-3,q),
(936,-1,o)
);
}
);
width = 1117;
}
);
note = Eth;
unicode = 208;
},
{
glyphname = eth;
layers = (
{
layerId = m01;
shapes = (
{
closed = 1;
nodes = (
(757,611,o),
(759,611,q),
(762,610,o),
(769,613,o),
(773,612,qs),
(777,610,o),
(781,605,o),
(783,603,q),
(785,602,o),
(790,602,o),
(798,595,qs),
(803,590,o),
(814,582,o),
(818,577,q),
(822,558,o),
(843,552,q),
(845,547,o),
(851,535,o),
(853,527,qs),
(854,523,o),
(853,514,o),
(858,512,q),
(865,518,o),
(856,541,o),
(856,554,q),
(849,566,o),
(836,590,o),
(825,601,q),
(814,606,o),
(796,622,o),
(780,624,q),
(776,627,o),
(768,633,o),
(765,637,q),
(752,640,o),
(732,648,o),
(718,651,q),
(716,647,o),
(717,640,o),
(716,635,q),
(719,630,o),
(740,617,o),
(748,614,qs),
(750,613,o)
);
},
{
closed = 1;
nodes = (
(243,101,o),
(249,104,o),
(254,106,qs),
(259,108,o),
(270,106,o),
(280,97,q),
(288,92,o),
(311,88,o),
(323,87,qs),
(326,87,o),
(332,89,o),
(335,88,q),
(345,87,o),
(363,83,o),
(372,85,q),
(375,83,o),
(381,84,o),
(392,81,qs),
(396,80,o),
(404,81,o),
(409,80,qs),
(419,78,o),
(436,80,o),
(447,78,qs),
(461,76,o),
(489,75,o),
(503,74,q),
(508,79,o),
(522,78,o),
(537,84,q),
(544,84,o),
(552,82,qs),
(562,80,o),
(579,69,o),
(587,63,q),
(594,65,o),
(608,64,o),
(617,66,qs),
(640,70,o),
(685,78,o),
(708,86,q),
(713,92,o),
(729,96,o),
(741,105,qs),
(746,109,o),
(756,114,o),
(761,117,qs),
(765,120,o),
(773,126,o),
(777,130,qs),
(779,132,o),
(790,144,o),
(791,147,qs),
(793,155,o),
(790,170,o),
(791,178,qs),
(792,184,o),
(801,196,o),
(805,199,qs),
(809,203,o),
(818,209,o),
(822,214,qs),
(829,222,o),
(835,247,o),
(838,261,qs),
(840,277,o),
(844,302,o),
(845,317,qs),
(845,331,o),
(848,363,o),
(848,379,qs),
(848,386,o),
(846,398,o),
(846,406,qs),
(845,414,o),
(844,431,o),
(842,438,qs),
(840,442,o),
(841,451,o),
(840,455,qs),
(838,463,o),
(833,482,o),
(829,490,qs),
(827,496,o),
(823,510,o),
(823,517,q),
(819,522,o),
(812,530,o),
(804,532,q),
(802,537,o),
(794,540,o),
(792,543,q),
(794,556,o),
(786,564,q),
(782,566,o),
(778,573,o),
(775,575,qs),
(767,581,o),
(751,585,o),
(740,587,qs),
(733,589,o),
(724,594,o),
(711,600,q),
(709,602,o),
(702,611,o),
(699,616,qs),
(697,619,o),
(693,622,o),
(691,624,qs),
(689,626,o),
(687,632,o),
(685,634,q),
(680,636,o),
(667,638,o),
(662,639,qs),
(656,641,o),
(648,644,o),
(643,641,q),
(640,645,o),
(633,643,o),
(621,645,qs),
(617,645,o),
(611,641,o),
(608,641,qs),
(603,642,o),
(594,645,o),
(589,645,qs),
(584,646,o),
(573,652,o),
(558,652,q),
(544,654,o),
(519,654,o),
(506,655,qs),
(496,656,o),
(479,657,o),
(470,656,qs),
(462,654,o),
(446,649,o),
(429,659,qs),
(424,662,o),
(411,660,o),
(406,660,q),
(396,662,o),
(377,664,o),
(368,664,qs),
(363,664,o),
(352,666,o),
(347,665,qs),
(343,665,o),
(338,662,o),
(335,662,q),
(329,660,o),
(316,662,o),
(310,662,q),
(298,659,o),
(288,660,qs),
(274,662,o),
(247,667,o),
(237,672,qs),
(232,674,o),
(227,680,o),
(223,681,qs),
(218,682,o),
(207,681,o),
(202,682,qs),
(188,683,o),
(169,682,qs),
(167,682,o),
(165,680,o),
(156,679,q),
(153,678,o),
(138,667,o),
(136,665,q),
(131,657,o),
(135,630,o),
(135,620,q),
(137,610,o),
(143,593,o),
(142,583,qs),
(141,574,o),
(135,556,o),
(133,548,qs),
(132,543,o),
(132,535,o),
(130,530,qs),
(129,527,o),
(127,522,o),
(126,519,qs),
(122,507,o),
(122,481,o),
(120,468,qs),
(119,459,o),
(121,439,o),
(120,430,q),
(117,432,o),
(105,431,o),
(102,433,q),
(95,429,o),
(78,435,o),
(71,433,qs),
(60,431,o),
(51,407,o),
(52,393,qs),
(52,379,o),
(61,353,o),
(77,351,qs),
(85,349,o),
(104,352,o),
(115,349,q),
(113,338,o),
(109,314,o),
(110,303,q),
(118,295,o),
(126,277,o),
(124,263,qs),
(124,259,o),
(120,255,o),
(117,245,qs),
(115,240,o),
(108,232,o),
(106,226,qs),
(104,215,o),
(105,191,o),
(104,180,qs),
(103,175,o),
(101,168,o),
(100,164,qs),
(98,149,o),
(108,130,o),
(116,122,q),
(124,121,o),
(130,112,o),
(138,112,q),
(143,104,o),
(156,104,o),
(164,103,qs),
(169,102,o),
(177,102,o),
(182,101,q),
(184,97,o),
(197,96,o),
(202,95,qs),
(208,93,o),
(219,94,o),
(224,95,qs),
(240,100,ls)
);
},
{
closed = 1;
nodes = (
(193,618,o),
(191,609,q),
(191,606,o),
(194,600,o),
(194,596,q),
(192,586,o),
(182,582,q),
(177,587,o),
(181,604,o),
(181,613,qs),
(181,620,o),
(176,630,o),
(176,635,qs),
(177,643,o),
(192,650,o),
(200,645,q),
(200,637,o)
);
},
{
closed = 1;
nodes = (
(171,529,o),
(186,508,o),
(184,500,qs),
(183,495,o),
(173,483,o),
(166,487,q),
(165,491,o),
(165,498,o),
(163,500,q),
(165,509,o),
(163,522,o),
(169,527,q),
(169,531,l)
);
},
{
closed = 1;
nodes = (
(147,143,o),
(145,148,qs),
(143,152,o),
(143,160,o),
(138,172,q),
(138,174,o),
(140,186,o),
(143,196,o),
(149,202,o),
(153,199,qs),
(156,197,o),
(156,174,o),
(158,169,qs),
(160,164,o),
(167,159,o),
(173,157,q),
(178,159,o),
(182,157,o),
(187,158,q),
(189,155,o),
(193,144,o),
(190,139,q),
(185,135,o),
(168,139,o),
(162,136,q),
(157,138,o)
);
},
{
closed = 1;
nodes = (
(565,259,o),
(564,255,qs),
(562,244,o),
(554,224,o),
(545,221,q),
(540,209,o),
(520,198,o),
(509,194,q),
(504,188,o),
(493,177,o),
(485,174,q),
(470,173,o),
(454,189,o),
(445,197,q),
(427,198,o),
(391,199,o),
(377,205,q),
(368,221,o),
(375,264,o),
(377,284,qs),
(378,295,o),
(377,316,o),
(379,325,q),
(388,325,o),
(409,322,o),
(418,319,q),
(422,319,o),
(426,323,o),
(428,325,qs),
(431,327,o),
(439,327,o),
(441,330,qs),
(447,343,o),
(451,381,o),
(440,392,q),
(426,397,o),
(397,398,o),
(384,400,q),
(386,425,o),
(378,437,q),
(378,448,o),
(382,461,q),
(384,463,o),
(389,467,o),
(390,469,qs),
(392,474,o),
(393,488,o),
(393,494,qs),
(393,501,o),
(396,517,o),
(397,524,qs),
(398,534,o),
(398,551,o),
(406,553,qs),
(414,555,o),
(423,553,qs),
(434,552,o),
(457,551,o),
(467,549,qs),
(478,547,o),
(500,547,o),
(510,544,qs),
(519,542,o),
(537,532,o),
(546,531,q),
(553,523,o),
(561,519,q),
(566,509,o),
(579,491,o),
(581,479,qs),
(582,474,o),
(581,463,o),
(583,457,q),
(585,438,o),
(582,401,o),
(581,383,qs),
(581,380,o),
(582,374,o),
(582,370,qs),
(582,364,o),
(580,356,o),
(584,353,q),
(583,347,o),
(584,333,o),
(582,325,qs),
(580,318,o),
(572,305,o),
(570,298,qs),
(569,291,o),
(570,277,o),
(568,269,qs),
(567,266,o)
);
},
{
closed = 1;
nodes = (
(575,179,o),
(567,185,q),
(570,189,o),
(574,197,o),
(579,200,q),
(579,205,o),
(588,213,o),
(590,218,q),
(592,220,o),
(595,227,o),
(607,220,q),
(613,210,o),
(601,196,o),
(596,189,q),
(591,187,o)
);
},
{
closed = 1;
nodes = (
(615,263,o),
(617,270,q),
(619,272,o),
(624,276,o),
(634,272,q),
(636,264,o),
(633,250,o),
(625,252,qs),
(619,253,o)
);
},
{
closed = 1;
nodes = (
(86,561,o),
(86,558,qs),
(86,554,o),
(88,548,o),
(85,539,qs),
(84,536,o),
(83,524,o),
(84,512,o),
(88,502,o),
(91,502,qs),
(94,502,o),
(100,511,o),
(101,516,qs),
(101,522,o),
(94,529,o),
(95,535,qs),
(95,540,o),
(103,545,o),
(105,548,qs),
(108,551,o),
(110,556,o),
(112,560,q),
(112,640,l),
(110,643,o),
(102,643,o),
(99,643,q),
(97,638,o),
(91,628,o),
(90,622,qs),
(88,611,o),
(90,584,o),
(88,571,qs),
(87,567,o)
);
},
{
closed = 1;
nodes = (
(454,525,o),
(446,526,q),
(441,524,o),
(430,525,o),
(420,525,o),
(413,523,o),
(412,517,qs),
(410,509,o),
(411,496,o),
(412,488,qs),
(413,483,o),
(413,473,o),
(421,471,q),
(426,480,o),
(434,503,o),
(451,506,q),
(458,511,o),
(482,509,o),
(488,514,q),
(485,522,o),
(474,524,q),
(469,522,o)
);
},
{
closed = 1;
nodes = (
(515,513,o),
(504,515,o),
(497,511,o),
(500,497,q),
(503,495,o),
(515,489,o),
(526,487,o),
(534,491,o),
(529,506,q),
(526,508,o)
);
},
{
closed = 1;
nodes = (
(26,388,o),
(19,393,q),
(12,389,o),
(5,381,q),
(5,350,o),
(16,332,q),
(19,331,o),
(26,330,o),
(29,328,q),
(32,330,o),
(39,331,o),
(42,333,q),
(44,343,o),
(31,349,o),
(27,356,qs),
(23,364,o)
);
},
{
closed = 1;
nodes = (
(847,194,o),
(840,193,q),
(838,187,o),
(824,180,o),
(822,176,qs),
(820,171,o),
(822,161,o),
(822,156,qs),
(821,130,o),
(786,101,o),
(766,90,q),
(760,88,o),
(749,86,o),
(743,83,qs),
(739,81,o),
(734,78,o),
(731,76,qs),
(724,72,o),
(716,63,o),
(723,55,q),
(763,63,o),
(784,90,q),
(797,97,o),
(818,113,o),
(829,128,q),
(836,141,o),
(854,163,o),
(852,183,q),
(849,185,o)
);
},
{
closed = 1;
nodes = (
(101,95,o),
(94,100,q),
(86,108,o),
(82,119,o),
(65,125,q),
(59,96,o),
(82,68,o),
(106,61,qs),
(115,59,o),
(133,62,o),
(142,61,qs),
(150,59,o),
(175,62,o),
(177,70,qs),
(178,74,o),
(166,78,o),
(151,80,o),
(137,81,o),
(135,81,q),
(124,84,o)
);
},
{
closed = 1;
nodes = (
(202,60,o),
(206,59,q),
(209,57,o),
(221,57,o),
(224,59,q),
(229,60,o),
(231,71,o),
(227,76,q),
(219,78,o),
(193,77,o),
(193,66,q),
(196,66,o)
);
}
);
width = 903;
}
);
note = eth;
unicode = 240;
},
{
glyphname = Lslash;
layers = (
{
layerId = m01;
shapes = (
{
closed = 1;
nodes = (
(897,121,o),
(900,139,o),
(898,146,q),
(893,151,o),
(885,159,o),
(880,162,qs),
(875,164,o),
(860,166,o),
(853,166,qs),
(850,166,o),
(843,164,o),
(834,166,qs),
(818,168,o),
(789,165,o),
(774,163,qs),
(765,161,o),
(754,142,o),
(745,140,qs),
(738,138,o),
(723,145,o),
(711,146,q),
(703,148,o),
(692,155,o),
(687,157,qs),
(679,159,o),
(664,157,o),
(656,155,qs),
(647,154,o),
(629,157,o),
(618,155,q),
(595,157,o),
(540,161,o),
(517,159,q),
(510,177,o),
(515,200,q),
(509,252,o),
(512,357,o),
(507,413,q),
(511,416,o),
(519,423,o),
(524,425,qs),
(527,427,o),
(535,429,o),
(544,436,qs),
(551,441,o),
(566,447,o),
(572,452,qs),
(580,457,o),
(593,465,o),
(599,470,qs),
(607,477,o),
(615,491,o),
(614,503,q),
(619,509,o),
(611,523,o),
(607,531,q),
(602,547,o),
(598,553,qs),
(594,558,o),
(581,570,o),
(574,571,qs),
(568,572,o),
(550,561,o),
(545,558,q),
(537,555,o),
(520,550,o),
(514,546,qs),
(511,544,o),
(506,539,o),
(501,538,q),
(497,561,o),
(496,609,o),
(494,634,qs),
(494,639,o),
(492,652,o),
(494,665,q),
(493,668,o),
(482,677,o),
(479,680,qs),
(471,687,o),
(443,694,o),
(437,702,qs),
(434,707,o),
(433,714,o),
(429,719,q),
(415,725,o),
(381,724,o),
(364,724,qs),
(351,724,o),
(319,718,o),
(304,718,q),
(297,717,o),
(277,719,o),
(270,719,qs),
(264,720,o),
(252,716,o),
(247,716,qs),
(240,716,o),
(227,718,o),
(222,714,q),
(216,717,o),
(198,712,o),
(189,713,q),
(181,709,o),
(164,704,o),
(152,696,qs),
(144,692,o),
(137,675,o),
(136,667,qs),
(136,665,o),
(138,658,o),
(137,655,q),
(137,651,o),
(136,644,o),
(137,631,qs),
(139,612,o),
(138,568,o),
(143,551,q),
(154,543,o),
(171,515,o),
(170,498,qs),
(169,490,o),
(164,483,o),
(161,478,qs),
(156,472,o),
(150,457,o),
(145,451,q),
(146,434,o),
(147,405,o),
(147,388,q),
(133,376,o),
(98,360,o),
(85,348,q),
(78,344,o),
(60,336,o),
(54,331,q),
(52,330,o),
(49,330,o),
(45,324,q),
(36,316,o),
(36,302,q),
(40,293,o),
(44,278,o),
(49,268,qs),
(56,257,o),
(72,228,o),
(86,228,qs),
(107,228,o),
(140,252,o),
(156,260,q),
(159,249,o),
(158,227,o),
(160,216,q),
(163,213,o),
(172,206,o),
(174,201,qs),
(176,197,o),
(181,184,o),
(175,171,q),
(173,169,o),
(173,163,o),
(168,153,qs),
(166,147,o),
(168,136,o),
(166,131,q),
(173,111,o),
(171,62,o),
(176,39,q),
(184,31,o),
(202,16,o),
(212,10,q),
(216,-1,o),
(227,-9,q),
(256,-12,o),
(322,-9,o),
(354,-7,qs),
(359,-7,o),
(368,-9,o),
(373,-8,qs),
(380,-6,o),
(389,3,o),
(395,5,q),
(419,3,o),
(435,-2,qs),
(439,-3,o),
(444,-5,o),
(447,-6,q),
(452,-6,o),
(462,-4,o),
(470,-7,q),
(473,-7,o),
(479,-6,o),
(482,-6,qs),
(488,-5,o),
(495,-6,qs),
(501,-6,o),
(512,-9,o),
(517,-9,qs),
(519,-9,o),
(524,-8,o),
(534,-10,q),
(538,-9,o),
(546,-5,o),
(549,-3,qs),
(559,2,o),
(578,6,o),
(601,7,qs),
(612,7,o),
(629,-1,o),
(640,-1,qs),
(644,-1,o),
(653,0,o),
(658,1,q),
(675,1,ls),
(680,1,o),
(694,0,o),
(699,1,qs),
(707,3,o),
(720,10,o),
(727,13,qs),
(731,15,o),
(741,18,o),
(744,19,qs),
(750,21,o),
(770,19,o),
(783,10,qs),
(785,9,o),
(794,6,o),
(796,5,qs),
(800,4,o),
(810,6,o),
(816,6,qs),
(833,7,o),
(860,6,o),
(871,8,q),
(877,2,o),
(887,5,q),
(889,10,o),
(899,9,o),
(902,11,qs),
(908,15,o),
(907,31,o),
(908,38,q),
(910,43,o),
(913,51,o),
(913,55,qs),
(916,81,o),
(904,104,qs),
(899,113,l)
);
},
{
closed = 1;
nodes = (
(573,506,o),
(578,510,q),
(581,509,o),
(587,500,o),
(588,496,q),
(588,490,o),
(579,478,o),
(574,478,q),
(569,476,o),
(561,485,o),
(561,490,qs),
(561,498,o)
);
},
{
closed = 1;
nodes = (
(551,465,o),
(538,460,o),
(532,464,q),
(531,468,o),
(536,477,o),
(543,482,o),
(552,482,o),
(555,478,q),
(556,468,l)
);
},
{
closed = 1;
nodes = (
(83,312,o),
(97,312,q),
(99,305,o),
(92,290,o),
(87,288,q),
(72,293,o)
);
},
{
closed = 1;
nodes = (
(229,46,o),
(215,58,o),
(213,69,qs),
(211,77,o),
(219,87,o),
(223,92,q),
(230,88,o),
(231,82,qs),
(231,80,o),
(229,76,o),
(232,71,qs),
(235,65,o),
(239,54,o),
(242,49,q),
(246,45,o),
(242,38,q),
(234,40,l)
);
},
{
closed = 1;
nodes = (
(225,648,o),
(211,644,q),
(206,640,o),
(206,628,o),
(205,623,qs),
(203,617,o),
(196,605,o),
(191,606,qs),
(186,606,o),
(182,614,o),
(179,616,q),
(179,620,o),
(181,623,o),
(176,630,q),
(174,641,o),
(176,666,o),
(185,672,q),
(199,675,o),
(224,679,o),
(238,676,q),
(242,673,o),
(242,661,o),
(241,655,q),
(235,651,o)
);
},
{
closed = 1;
nodes = (
(281,654,o),
(273,658,q),
(273,664,o),
(281,673,o),
(285,677,qs),
(287,679,o),
(292,684,o),
(305,678,q),
(306,675,o),
(309,668,o),
(307,663,q),
(302,660,o)
);
},
{
closed = 1;
nodes = (
(709,113,o),
(714,115,q),
(713,113,o),
(714,113,o),
(723,108,q),
(724,101,o),
(717,95,o),
(706,94,o),
(697,99,o),
(697,103,qs),
(697,109,o)
);
},
{
closed = 1;
nodes = (
(830,96,o),
(826,95,qs),
(821,94,o),
(810,95,o),
(803,93,qs),
(798,92,o),
(787,90,o),
(782,91,qs),
(777,92,o),
(770,99,o),
(768,101,q),
(770,113,o),
(799,119,o),
(811,118,q),
(819,123,o),
(838,122,o),
(849,125,q),
(857,118,o),
(852,98,o),
(841,96,q),
(839,95,o)
);
},
{
closed = 1;
nodes = (
(515,644,o),
(515,637,qs),
(515,634,o),
(517,626,q),
(518,612,o),
(518,587,o),
(535,588,q),
(535,598,o),
(537,618,o),
(537,629,qs),
(537,635,o),
(534,648,o),
(535,654,qs),
(536,657,o),
(538,663,o),
(538,666,qs),
(538,675,o),
(530,701,o),
(524,706,qs),
(521,708,o),
(505,707,o),
(506,700,qs),
(506,697,o),
(513,690,o),
(515,687,qs),
(517,683,o),
(518,669,o),
(518,664,qs),
(518,657,o)
);
},
{
closed = 1;
nodes = (
(115,497,o),
(115,488,qs),
(115,480,o),
(116,461,o),
(124,459,q),
(129,461,o),
(127,471,o),
(129,476,q),
(133,476,o),
(136,481,o),
(139,483,q),
(138,488,o),
(142,499,o),
(143,504,qs),
(145,518,o),
(131,539,o),
(123,541,q),
(118,561,o),
(121,602,o),
(119,621,q),
(114,624,o),
(107,618,o),
(102,616,q),
(100,612,o),
(99,603,o),
(98,598,q),
(102,590,o),
(104,571,o),
(106,561,qs),
(109,552,o),
(114,532,o),
(115,521,qs),
(116,513,o)
);
},
{
closed = 1;
nodes = (
(544,176,o),
(550,174,qs),
(559,172,o),
(585,175,o),
(598,174,qs),
(606,174,o),
(622,172,o),
(626,178,q),
(627,183,o),
(622,195,o),
(617,197,qs),
(610,201,o),
(597,191,o),
(592,190,qs),
(584,189,o),
(567,197,o),
(563,202,qs),
(558,207,o),
(557,218,o),
(555,227,qs),
(554,231,o),
(552,239,o),
(551,243,qs),
(550,249,o),
(550,261,o),
(537,267,q),
(538,264,o),
(536,259,o),
(536,256,qs),
(536,247,o),
(539,228,o),
(538,220,qs),
(538,213,o),
(535,200,o),
(535,193,qs),
(534,186,o)
);
},
{
closed = 1;
nodes = (
(660,191,o),
(650,191,o),
(641,187,o),
(639,184,q),
(638,176,o),
(643,173,q),
(651,171,o),
(664,176,o),
(667,181,q),
(667,187,o)
);
},
{
closed = 1;
nodes = (
(179,11,o),
(169,18,o),
(164,23,qs),
(161,26,o),
(153,34,o),
(151,37,qs),
(144,48,o),
(147,77,o),
(148,91,qs),
(148,96,o),
(145,105,o),
(150,117,q),
(151,123,o),
(141,135,o),
(138,135,qs),
(129,136,o),
(130,120,o),
(130,116,qs),
(129,105,o),
(134,88,o),
(136,81,q),
(134,76,o),
(132,62,o),
(132,54,q),
(131,51,o),
(133,44,o),
(131,32,q),
(131,25,o),
(141,6,o),
(146,2,qs),
(149,0,o),
(158,-4,o),
(168,1,q),
(173,2,o),
(178,-1,o),
(182,1,q),
(184,7,l)
);
},
{
closed = 1;
nodes = (
(190,-12,o),
(186,-13,q),
(175,-20,o),
(189,-40,o),
(199,-42,qs),
(204,-43,o),
(215,-39,o),
(215,-35,q),
(216,-32,o),
(211,-28,o),
(209,-25,qs),
(207,-23,o),
(206,-17,o),
(204,-15,qs),
(201,-13,o)
);
},
{
closed = 1;
nodes = (
(815,-14,o),
(807,-15,qs),
(795,-15,o),
(783,-12,q),
(781,-11,o),
(775,-7,o),
(773,-7,q),
(763,-4,o),
(750,-8,qs),
(740,-10,o),
(732,-18,o),
(722,-19,qs),
(716,-20,o),
(703,-22,o),
(695,-22,qs),
(691,-22,o),
(685,-20,o),
(681,-20,qs),
(674,-19,o),
(657,-22,o),
(649,-23,qs),
(641,-24,o),
(624,-24,o),
(606,-28,q),
(598,-33,o),
(607,-45,o),
(615,-46,qs),
(621,-46,o),
(638,-44,o),
(643,-43,qs),
(652,-41,o),
(672,-41,o),
(682,-39,qs),
(689,-38,o),
(701,-35,o),
(709,-33,qs),
(720,-31,o),
(744,-35,o),
(755,-35,qs),
(759,-35,o),
(766,-33,o),
(770,-33,qs),
(779,-34,o),
(798,-36,o),
(806,-34,qs),
(811,-33,o),
(821,-31,o),
(826,-31,q),
(834,-29,o),
(844,-31,o),
(849,-29,qs),
(851,-28,o),
(859,-19,o),
(858,-17,q),
(857,-12,o),
(844,-13,o),
(837,-12,qs),
(828,-12,o)
);
}
);
width = 935;
}
);
note = Lslash;
unicode = 321;
},
{
glyphname = lslash;
layers = (
{
layerId = m01;
shapes = (
{
closed = 1;
nodes = (
(407,625,o),
(407,614,qs),
(407,603,o),
(413,577,o),
(413,566,qs),
(413,561,o),
(412,552,o),
(412,548,q),
(414,540,o),
(430,535,o),
(436,539,q),
(442,548,o),
(433,563,o),
(429,571,qs),
(427,574,o),
(427,585,o),
(427,590,qs),
(427,596,o),
(430,606,o),
(430,610,qs),
(431,623,o),
(423,654,o),
(415,659,q),
(409,661,o),
(393,668,o),
(385,667,qs),
(383,667,o),
(376,665,o),
(375,662,q),
(375,659,o),
(382,654,o),
(390,651,o),
(397,648,o),
(397,646,q),
(401,640,o)
);
},
{
closed = 1;
nodes = (
(388,616,o),
(376,630,q),
(370,631,o),
(365,634,q),
(349,634,o),
(318,631,o),
(301,631,q),
(297,630,o),
(289,632,o),
(285,632,qs),
(277,632,o),
(264,629,o),
(257,630,qs),
(244,631,o),
(216,627,o),
(194,628,qs),
(186,628,o),
(168,626,o),
(163,629,q),
(150,625,o),
(127,615,o),
(119,607,q),
(112,595,o),
(114,564,o),
(115,549,qs),
(115,536,o),
(114,513,o),
(117,503,qs),
(118,500,o),
(122,494,o),
(124,490,qs),
(132,470,o),
(131,450,q),
(126,442,o),
(117,428,o),
(117,417,qs),
(117,414,o),
(118,408,o),
(119,404,qs),
(120,394,o),
(116,375,o),
(118,367,q),
(114,363,o),
(106,359,o),
(101,357,qs),
(92,352,o),
(78,341,o),
(67,339,q),
(58,331,o),
(39,319,o),
(39,304,q),
(40,299,o),
(42,290,o),
(44,285,qs),
(45,283,o),
(50,278,o),
(55,267,q),
(60,260,o),
(85,256,o),
(100,264,qs),
(113,272,o),
(123,276,q),
(129,235,o),
(127,139,o),
(133,99,q),
(137,94,o),
(144,84,o),
(144,77,q),
(149,76,o),
(152,69,o),
(154,67,qs),
(156,64,o),
(162,61,o),
(164,59,qs),
(167,56,o),
(172,50,o),
(177,48,q),
(182,51,o),
(198,49,o),
(204,48,q),
(208,51,o),
(216,49,o),
(227,51,qs),
(230,51,o),
(237,49,o),
(240,49,qs),
(247,49,o),
(263,52,o),
(271,53,qs),
(279,54,o),
(294,54,o),
(301,65,qs),
(303,68,o),
(312,74,o),
(315,76,q),
(321,78,o),
(331,74,o),
(338,67,o),
(345,60,o),
(350,59,qs),
(355,57,o),
(373,59,o),
(388,57,qs),
(392,57,o),
(399,58,o),
(409,56,q),
(412,56,o),
(417,58,o),
(420,58,qs),
(429,58,o),
(447,56,o),
(456,58,q),
(464,70,o),
(500,68,o),
(513,63,q),
(519,66,o),
(531,66,o),
(542,64,o),
(553,64,o),
(559,66,qs),
(563,68,o),
(568,72,o),
(572,73,qs),
(580,76,o),
(594,72,o),
(599,70,qs),
(601,69,o),
(605,69,o),
(615,61,q),
(624,58,o),
(639,62,o),
(648,62,qs),
(656,63,o),
(674,61,o),
(681,63,qs),
(686,65,o),
(693,73,o),
(698,75,q),
(700,81,o),
(709,88,o),
(713,92,q),
(714,102,o),
(711,121,o),
(707,138,o),
(705,156,o),
(707,166,q),
(703,171,o),
(695,185,o),
(690,187,q),
(686,187,o),
(678,184,o),
(665,187,qs),
(651,189,o),
(619,186,o),
(605,185,q),
(602,182,o),
(597,182,o),
(593,181,qs),
(586,179,o),
(575,171,o),
(569,170,qs),
(563,168,o),
(558,171,o),
(547,174,q),
(544,176,o),
(540,180,o),
(537,182,qs),
(535,183,o),
(528,184,o),
(525,186,q),
(522,187,o),
(517,190,o),
(515,191,qs),
(510,193,o),
(499,190,o),
(493,189,qs),
(486,189,o),
(473,187,o),
(468,187,qs),
(466,187,o),
(461,189,o),
(453,186,qs),
(451,185,o),
(444,187,o),
(442,187,qs),
(434,186,o),
(420,184,o),
(412,182,q),
(409,184,o),
(401,187,o),
(399,189,q),
(398,206,o),
(392,241,o),
(390,254,qs),
(389,261,o),
(389,274,o),
(387,282,qs),
(385,287,o),
(379,296,o),
(377,302,qs),
(375,310,o),
(379,331,o),
(381,337,qs),
(383,341,o),
(390,346,o),
(392,351,qs),
(395,359,o),
(391,378,o),
(393,389,q),
(403,392,o),
(414,404,o),
(430,412,qs),
(441,416,o),
(465,426,o),
(470,434,q),
(477,442,o),
(477,456,o),
(475,467,qs),
(473,476,o),
(461,490,o),
(457,497,q),
(446,502,o),
(431,493,o),
(423,488,qs),
(415,483,o),
(399,475,o),
(390,472,q),
(388,597,ls)
);
},
{
closed = 1;
nodes = (
(178,594,o),
(198,596,q),
(204,589,o),
(202,572,o),
(194,568,qs),
(191,566,o),
(184,566,o),
(182,564,qs),
(180,562,o),
(178,540,o),
(178,535,qs),
(179,530,o),
(182,519,o),
(179,515,q),
(174,516,o),
(165,524,o),
(164,529,qs),
(164,534,o),
(167,539,o),
(161,545,q),
(161,556,o),
(155,575,o),
(160,585,qs),
(164,593,o)
);
},
{
closed = 1;
nodes = (
(185,192,o),
(178,194,q),
(173,198,o),
(172,213,o),
(176,218,q),
(180,219,o),
(186,221,o),
(191,221,q),
(194,216,o),
(202,206,o),
(201,201,qs),
(199,195,o)
);
},
{
closed = 1;
nodes = (
(192,94,o),
(184,96,qs),
(179,98,o),
(167,114,o),
(166,120,qs),
(166,122,o),
(168,130,o),
(169,132,qs),
(170,135,o),
(170,141,o),
(171,144,qs),
(172,149,o),
(177,165,o),
(182,166,qs),
(190,168,o),
(197,153,o),
(197,145,qs),
(197,142,o),
(193,136,o),
(194,133,qs),
(195,128,o),
(205,125,o),
(216,124,o),
(227,122,o),
(230,118,qs),
(236,112,o),
(229,98,o),
(223,95,q),
(213,94,o)
);
},
{
closed = 1;
nodes = (
(262,563,o),
(257,562,q),
(249,562,o),
(233,573,o),
(238,583,qs),
(239,585,o),
(249,591,o),
(252,592,qs),
(260,594,o),
(271,592,o),
(279,590,q),
(284,585,o),
(284,564,o),
(276,564,qs),
(272,564,o)
);
},
{
closed = 1;
nodes = (
(87,437,q),
(92,440,o),
(93,448,o),
(95,454,qs),
(97,462,o),
(99,484,o),
(90,499,qs),
(87,505,o),
(88,521,o),
(87,530,qs),
(87,541,o),
(85,559,o),
(86,568,q),
(82,573,o),
(72,567,o),
(70,563,q),
(71,558,o),
(67,546,o),
(67,541,q),
(68,538,o),
(69,533,o),
(70,529,qs),
(70,525,o),
(69,519,o),
(68,514,qs),
(68,509,o),
(70,502,o),
(68,490,qs),
(67,479,o),
(72,455,o),
(72,441,q),
(77,437,o)
);
},
{
closed = 1;
nodes = (
(481,517,o),
(484,515,qs),
(488,513,o),
(490,498,o),
(494,493,q),
(497,486,o),
(506,487,o),
(509,492,q),
(512,504,o),
(502,534,o),
(489,536,qs),
(477,537,o),
(457,522,q),
(462,514,o),
(470,514,q),
(472,513,o)
);
},
{
closed = 1;
nodes = (
(502,458,o),
(504,454,q),
(507,452,o),
(515,453,o),
(517,456,qs),
(519,460,o),
(517,468,o),
(511,472,o),
(504,471,o),
(502,467,q),
(504,463,o)
);
},
{
closed = 1;
nodes = (
(434,212,o),
(441,211,qs),
(447,210,o),
(458,215,o),
(470,213,q),
(473,214,o),
(478,218,o),
(480,220,q),
(483,225,o),
(482,227,o),
(483,232,q),
(481,237,o),
(473,236,o),
(468,237,qs),
(463,237,o),
(455,240,o),
(451,239,q),
(446,244,o),
(436,254,o),
(433,262,qs),
(431,268,o),
(431,283,o),
(429,288,qs),
(427,293,o),
(414,298,o),
(409,292,q),
(407,278,o),
(416,257,o),
(416,244,qs),
(415,236,o),
(414,227,o),
(417,222,qs),
(420,217,o)
);
},
{
closed = 1;
nodes = (
(48,233,o),
(43,240,qs),
(41,244,o),
(36,249,o),
(31,247,q),
(29,223,o),
(58,198,o),
(82,200,q),
(84,203,o),
(85,214,o),
(86,217,q),
(82,219,o),
(77,217,o),
(74,217,qs),
(64,218,o)
);
},
{
closed = 1;
nodes = (
(138,44,o),
(121,56,o),
(110,74,o),
(109,89,q),
(104,94,o),
(103,113,o),
(92,114,q),
(90,100,o),
(91,65,o),
(96,54,qs),
(103,40,o),
(128,23,o),
(141,15,q),
(154,12,o),
(166,17,q),
(168,19,o),
(166,25,o),
(166,29,q),
(157,35,o)
);
},
{
closed = 1;
nodes = (
(751,93,o),
(745,104,o),
(737,108,o),
(733,102,qs),
(729,96,o),
(734,77,o),
(732,69,q),
(726,60,o),
(712,41,o),
(697,42,q),
(695,37,o),
(681,37,o),
(680,26,q),
(687,27,o),
(698,23,o),
(705,23,qs),
(726,23,o),
(756,48,o),
(752,74,q),
(753,78,o)
);
}
);
width = 734;
}
);
note = lslash;
unicode = 322;
},
{
glyphname = Thorn;
layers = (
{
layerId = m01;
shapes = (
{
closed = 1;
nodes = (
(162,809,o),
(148,809,qs),
(140,808,o),
(124,805,o),
(115,806,qs),
(103,807,o),
(78,809,o),
(67,804,q),
(63,803,o),
(51,795,o),
(49,792,qs),
(47,787,o),
(46,776,o),
(45,771,qs),
(44,766,o),
(45,756,o),
(45,751,qs),
(43,725,o),
(38,676,o),
(50,653,q),
(55,682,o),
(56,734,o),
(67,758,q),
(80,768,o),
(109,780,o),
(127,781,qs),
(142,782,o),
(168,769,o),
(184,771,q),
(189,777,o),
(207,793,o),
(201,804,q),
(187,802,o)
);
},
{
closed = 1;
nodes = (
(286,788,o),
(279,792,o),
(270,795,o),
(260,801,qs),
(258,802,o),
(250,799,o),
(246,799,qs),
(229,797,o),
(223,791,q),
(222,786,o),
(220,781,o),
(220,778,q),
(224,774,o),
(231,769,o),
(236,768,qs),
(246,766,o),
(258,774,o),
(264,775,qs),
(269,776,o),
(282,773,o),
(287,776,q),
(290,781,o)
);
},
{
closed = 1;
nodes = (
(336,740,o),
(314,740,qs),
(306,740,o),
(289,743,o),
(281,741,q),
(251,738,o),
(214,721,q),
(206,724,o),
(192,724,o),
(184,727,qs),
(176,729,o),
(163,742,o),
(155,744,q),
(144,749,o),
(124,742,o),
(112,743,q),
(101,738,o),
(97,715,o),
(96,703,qs),
(95,699,o),
(93,692,o),
(92,689,q),
(90,675,o),
(94,644,o),
(95,629,qs),
(96,618,o),
(94,596,o),
(94,586,qs),
(95,577,o),
(98,565,o),
(93,560,q),
(97,548,o),
(98,510,o),
(99,490,q),
(104,482,o),
(100,461,o),
(103,453,q),
(100,443,o),
(96,424,o),
(93,409,q),
(94,394,o),
(92,368,o),
(94,356,qs),
(95,353,o),
(97,347,o),
(98,344,qs),
(99,337,o),
(100,325,o),
(100,317,qs),
(101,306,o),
(98,297,q),
(96,294,o),
(90,290,o),
(88,286,qs),
(83,275,o),
(86,248,o),
(83,236,q),
(84,230,o),
(83,216,o),
(83,210,qs),
(83,203,o),
(85,188,o),
(86,182,qs),
(88,160,o),
(86,120,o),
(90,100,q),
(93,96,o),
(98,90,o),
(100,85,q),
(99,74,o),
(86,46,o),
(90,35,qs),
(91,33,o),
(94,24,o),
(96,20,q),
(100,15,o),
(112,11,o),
(118,9,qs),
(133,6,o),
(172,7,o),
(191,7,qs),
(199,7,o),
(212,5,o),
(219,5,qs),
(227,5,o),
(243,7,o),
(251,7,qs),
(263,8,o),
(289,3,o),
(300,3,qs),
(305,3,o),
(312,6,o),
(326,6,qs),
(334,7,o),
(356,11,o),
(368,12,qs),
(382,14,o),
(410,11,o),
(421,16,q),
(433,29,o),
(431,48,qs),
(431,59,o),
(434,83,o),
(434,94,qs),
(434,99,o),
(432,108,o),
(432,113,qs),
(431,128,o),
(436,158,o),
(432,170,q),
(443,171,o),
(467,171,o),
(476,172,qs),
(495,174,o),
(534,172,o),
(554,173,qs),
(579,174,o),
(625,172,o),
(647,173,qs),
(664,174,o),
(691,173,o),
(709,174,qs),
(714,175,o),
(723,177,o),
(728,178,qs),
(737,180,o),
(756,180,o),
(763,182,qs),
(777,188,o),
(797,209,o),
(807,223,q),
(815,225,o),
(831,233,o),
(837,238,qs),
(845,243,o),
(852,249,o),
(857,255,qs),
(859,258,o),
(863,261,o),
(864,264,qs),
(868,275,o),
(868,298,o),
(870,309,qs),
(873,329,o),
(882,366,o),
(882,386,qs),
(882,391,o),
(881,403,o),
(881,409,qs),
(879,430,o),
(870,472,o),
(868,492,qs),
(867,500,o),
(862,512,o),
(860,517,q),
(862,527,o),
(852,539,o),
(850,547,q),
(833,558,o),
(794,581,o),
(768,584,qs),
(754,585,o),
(738,587,qs),
(718,589,o),
(672,590,o),
(655,587,q),
(646,592,o),
(633,580,o),
(626,578,qs),
(618,575,o),
(594,578,o),
(586,583,qs),
(583,585,o),
(576,592,o),
(571,594,qs),
(567,595,o),
(555,594,o),
(550,594,qs),
(539,594,o),
(516,595,o),
(504,595,qs),
(501,595,o),
(495,596,o),
(493,596,qs),
(489,596,o),
(482,593,o),
(479,593,qs),
(473,593,o),
(461,596,o),
(455,595,qs),
(448,595,o),
(435,592,o),
(428,594,q),
(426,619,o),
(434,657,o),
(432,677,qs),
(432,687,o),
(431,708,o),
(427,716,qs),
(425,721,o),
(415,729,o),
(413,735,q),
(387,731,o)
);
},
{
closed = 1;
nodes = (
(176,640,o),
(168,636,q),
(166,624,o),
(168,596,o),
(166,583,qs),
(165,577,o),
(155,557,o),
(150,558,qs),
(147,558,o),
(144,567,o),
(143,579,o),
(143,592,o),
(143,596,qs),
(142,612,o),
(138,652,o),
(139,666,qs),
(139,674,o),
(141,692,o),
(147,695,q),
(152,695,o),
(156,691,o),
(161,692,q),
(163,687,o),
(173,681,o),
(184,675,o),
(193,669,o),
(194,664,qs),
(196,653,o)
);
},
{
closed = 1;
nodes = (
(247,677,o),
(251,682,q),
(253,682,o),
(254,680,o),
(262,683,q),
(264,678,o),
(270,665,o),
(266,658,q),
(260,656,o),
(237,650,o),
(234,659,qs),
(232,668,o)
);
},
{
closed = 1;
nodes = (
(615,359,o),
(613,356,q),
(609,339,o),
(593,312,o),
(587,298,q),
(578,293,o),
(559,290,o),
(547,290,qs),
(544,290,o),
(538,292,o),
(535,292,qs),
(527,291,o),
(515,284,o),
(508,289,q),
(500,286,o),
(481,287,o),
(471,287,qs),
(460,288,o),
(437,286,o),
(427,289,q),
(429,320,o),
(423,381,o),
(427,410,qs),
(429,425,o),
(428,440,q),
(426,449,o),
(428,463,o),
(430,471,q),
(448,474,o),
(486,474,o),
(506,473,qs),
(513,473,o),
(526,474,o),
(539,471,qs),
(547,469,o),
(560,469,o),
(567,467,qs),
(573,465,o),
(591,456,o),
(593,453,qs),
(598,447,o),
(603,431,o),
(607,413,o),
(610,395,o),
(614,388,qs),
(616,383,o),
(627,374,o),
(626,368,qs),
(625,363,o)
);
},
{
closed = 1;
nodes = (
(809,410,o),
(820,408,q),
(825,397,o),
(814,376,o),
(799,381,q),
(791,392,o)
);
},
{
closed = 1;
nodes = (
(822,323,o),
(826,297,o),
(821,283,q),
(816,274,o),
(790,265,o),
(782,256,qs),
(780,253,o),
(777,244,o),
(773,238,o),
(767,236,o),
(763,241,q),
(765,249,o),
(761,262,o),
(764,268,qs),
(765,271,o),
(773,280,o),
(782,291,qs),
(790,299,o),
(799,318,o),
(804,330,q),
(813,331,l)
);
},
{
closed = 1;
nodes = (
(352,171,o),
(346,175,q),
(344,183,o),
(355,199,o),
(361,195,qs),
(365,193,o),
(368,182,o),
(367,179,qs),
(365,174,o)
);
},
{
closed = 1;
nodes = (
(368,123,o),
(373,123,q),
(378,117,o),
(379,96,o),
(376,87,q),
(365,79,o),
(333,65,o),
(319,76,q),
(318,80,o),
(321,86,o),
(319,88,q),
(339,108,o),
(360,126,q),
(365,126,o)
);
},
{
closed = 1;
nodes = (
(477,666,o),
(475,678,o),
(471,688,o),
(465,690,q),
(460,685,o),
(462,666,o),
(461,657,qs),
(461,654,o),
(459,643,o),
(460,640,qs),
(465,627,o),
(488,625,o),
(502,625,qs),
(511,624,o),
(527,627,o),
(535,629,q),
(531,634,o),
(531,644,o),
(527,649,q),
(517,648,o),
(495,646,o),
(482,650,q),
(478,653,o)
);
},
{
closed = 1;
nodes = (
(864,178,o),
(869,184,qs),
(872,187,o),
(880,199,o),
(881,202,qs),
(883,215,o),
(873,217,q),
(869,217,o),
(859,205,o),
(855,203,qs),
(848,200,o),
(833,198,o),
(826,193,q),
(824,190,o),
(820,182,o),
(818,180,qs),
(813,176,o),
(802,166,o),
(796,163,qs),
(792,161,o),
(784,158,o),
(780,156,qs),
(776,154,o),
(770,148,o),
(766,146,qs),
(749,140,o),
(717,146,o),
(698,140,q),
(696,137,o),
(696,128,o),
(703,118,q),
(716,118,o),
(737,124,o),
(749,124,qs),
(765,124,o),
(797,125,o),
(825,134,o),
(846,150,o),
(850,165,q),
(854,169,o)
);
},
{
closed = 1;
nodes = (
(629,136,o),
(611,135,q),
(610,128,o),
(615,121,q),
(643,111,o),
(667,127,qs),
(672,130,o),
(668,140,o),
(665,143,q),
(651,141,o)
);
},
{
closed = 1;
nodes = (
(52,3,o),
(49,24,o),
(45,45,o),
(33,54,q),
(31,51,o),
(30,41,o),
(28,39,q),
(30,32,o),
(26,17,o),
(26,9,qs),
(26,-2,o),
(31,-37,o),
(37,-45,qs),
(41,-50,o),
(62,-59,o),
(72,-60,qs),
(82,-62,o),
(101,-58,o),
(108,-56,qs),
(119,-54,o),
(142,-56,o),
(148,-51,q),
(153,-49,o),
(158,-34,q),
(150,-29,o),
(130,-34,o),
(122,-29,q),
(110,-33,o),
(78,-23,o),
(62,-26,q),
(57,-18,o)
);
},
{
closed = 1;
nodes = (
(230,-34,o),
(225,-35,qs),
(220,-36,o),
(208,-34,o),
(196,-33,o),
(185,-35,o),
(182,-39,qs),
(176,-46,o),
(184,-61,o),
(190,-65,q),
(195,-59,o),
(207,-62,o),
(213,-62,qs),
(224,-62,o),
(249,-50,o),
(246,-37,q),
(241,-33,o)
);
}
);
width = 912;
}
);
note = Thorn;
unicode = 222;
},
{
glyphname = thorn;
layers = (
{
layerId = m01;
shapes = (
{
closed = 1;
nodes = (
(139,734,o),
(128,734,qs),
(121,734,o),
(108,731,o),
(100,732,qs),
(90,734,o),
(70,735,o),
(61,732,qs),
(58,731,o),
(48,725,o),
(46,722,qs),
(44,720,o),
(44,711,o),
(43,706,qs),
(42,701,o),
(42,693,o),
(42,689,qs),
(40,669,o),
(35,628,o),
(44,610,q),
(49,634,o),
(50,675,o),
(59,695,q),
(70,703,o),
(95,713,o),
(110,713,qs),
(122,713,o),
(143,701,o),
(157,702,q),
(162,708,o),
(175,721,o),
(170,729,q),
(160,728,o)
);
},
{
closed = 1;
nodes = (
(229,719,o),
(218,726,q),
(216,726,o),
(210,724,o),
(207,724,qs),
(194,724,o),
(185,708,q),
(191,700,o),
(199,699,qs),
(207,697,o),
(216,703,o),
(221,705,q),
(226,705,o),
(235,702,o),
(240,706,q),
(244,713,o)
);
},
{
closed = 1;
nodes = (
(279,674,o),
(261,675,qs),
(254,675,o),
(241,678,o),
(234,677,qs),
(210,676,o),
(179,662,q),
(172,664,o),
(161,665,o),
(155,667,qs),
(147,669,o),
(137,680,o),
(132,682,qs),
(123,685,o),
(107,680,o),
(96,682,q),
(88,678,o),
(84,660,o),
(83,649,q),
(82,646,o),
(80,640,o),
(80,638,qs),
(78,627,o),
(81,601,o),
(81,589,qs),
(81,581,o),
(79,562,o),
(79,554,qs),
(79,547,o),
(82,537,o),
(78,534,q),
(80,523,o),
(81,492,o),
(81,476,q),
(85,470,o),
(81,452,o),
(83,445,q),
(81,437,o),
(77,423,o),
(74,410,q),
(74,397,o),
(72,377,o),
(74,367,qs),
(74,365,o),
(77,358,o),
(77,356,qs),
(78,351,o),
(78,340,o),
(78,335,qs),
(79,327,o),
(76,318,q),
(74,315,o),
(70,312,o),
(68,309,qs),
(62,300,o),
(65,279,o),
(61,268,q),
(62,263,o),
(61,253,o),
(61,248,qs),
(61,242,o),
(62,230,o),
(62,224,qs),
(64,207,o),
(62,175,o),
(65,159,q),
(67,156,o),
(71,150,o),
(73,145,q),
(72,136,o),
(60,114,o),
(63,104,q),
(65,102,o),
(67,95,o),
(69,93,qs),
(73,87,o),
(86,83,qs),
(98,81,o),
(129,81,o),
(145,80,qs),
(151,80,o),
(163,78,o),
(168,78,qs),
(174,78,o),
(187,79,o),
(194,79,qs),
(205,80,o),
(224,75,o),
(233,75,qs),
(238,75,o),
(244,77,o),
(255,76,q),
(262,77,o),
(279,80,o),
(289,81,qs),
(301,81,o),
(325,78,o),
(333,82,q),
(342,91,o),
(342,109,qs),
(342,117,o),
(345,136,o),
(345,146,qs),
(345,151,o),
(344,157,o),
(344,161,qs),
(344,173,o),
(348,197,o),
(345,208,q),
(354,208,o),
(374,208,o),
(382,209,qs),
(396,209,o),
(428,207,o),
(444,207,qs),
(464,207,o),
(504,205,o),
(521,205,qs),
(534,206,o),
(557,205,o),
(571,205,q),
(574,206,o),
(582,207,o),
(587,208,qs),
(595,209,o),
(609,209,o),
(615,211,qs),
(627,215,o),
(644,232,o),
(652,243,q),
(658,244,o),
(672,251,o),
(677,254,qs),
(683,257,o),
(689,262,o),
(699,275,qs),
(704,283,o),
(704,302,o),
(706,311,qs),
(709,327,o),
(716,358,o),
(717,374,qs),
(717,379,o),
(716,387,o),
(716,392,qs),
(715,410,o),
(709,444,o),
(708,461,qs),
(707,466,o),
(703,476,o),
(701,481,q),
(703,490,o),
(696,500,o),
(694,506,q),
(681,514,o),
(648,535,o),
(628,538,qs),
(623,539,o),
(610,540,o),
(603,541,qs),
(588,543,o),
(550,545,o),
(537,543,q),
(529,546,o),
(518,538,o),
(512,536,qs),
(506,533,o),
(486,537,o),
(479,541,qs),
(476,543,o),
(472,549,o),
(468,550,qs),
(465,551,o),
(455,550,o),
(451,550,qs),
(442,551,o),
(423,552,o),
(403,553,qs),
(401,553,o),
(395,551,o),
(392,551,qs),
(387,551,o),
(378,554,o),
(373,554,qs),
(368,553,o),
(356,551,o),
(351,553,q),
(350,573,o),
(357,604,o),
(356,621,qs),
(356,629,o),
(355,646,o),
(353,652,qs),
(351,657,o),
(343,664,o),
(341,669,q),
(320,666,o)
);
},
{
closed = 1;
nodes = (
(148,596,o),
(140,593,q),
(138,583,o),
(139,560,o),
(137,550,qs),
(136,545,o),
(128,529,o),
(123,530,qs),
(119,531,o),
(120,554,o),
(119,561,qs),
(118,575,o),
(116,606,o),
(117,617,qs),
(117,625,o),
(120,639,o),
(124,643,q),
(125,643,o),
(135,639,q),
(138,631,o),
(160,624,o),
(162,615,qs),
(163,606,o)
);
},
{
closed = 1;
nodes = (
(205,625,o),
(218,630,q),
(220,626,o),
(224,614,o),
(220,609,q),
(215,607,o),
(197,603,o),
(195,610,qs),
(194,618,o)
);
},
{
closed = 1;
nodes = (
(499,358,o),
(497,355,q),
(493,341,o),
(479,321,o),
(474,309,q),
(466,304,o),
(452,303,o),
(431,304,qs),
(426,304,o),
(415,299,o),
(410,302,q),
(402,300,o),
(388,301,o),
(380,302,qs),
(371,303,o),
(352,302,o),
(344,304,q),
(346,330,o),
(342,380,o),
(346,403,qs),
(348,415,o),
(348,428,q),
(346,435,o),
(348,447,o),
(350,453,q),
(365,455,o),
(396,454,o),
(413,453,qs),
(418,453,o),
(428,454,o),
(438,451,qs),
(444,449,o),
(457,449,o),
(462,446,qs),
(467,444,o),
(480,436,o),
(482,434,qs),
(491,425,o),
(492,392,o),
(498,381,qs),
(500,378,o),
(508,370,o),
(507,365,qs),
(506,360,o)
);
},
{
closed = 1;
nodes = (
(657,394,o),
(667,392,q),
(671,384,o),
(661,367,o),
(649,372,q),
(643,381,o)
);
},
{
closed = 1;
nodes = (
(667,325,o),
(670,302,o),
(665,291,q),
(660,285,o),
(639,278,o),
(633,270,qs),
(631,268,o),
(628,261,o),
(625,255,o),
(620,254,o),
(616,258,q),
(618,264,o),
(615,275,o),
(617,281,q),
(619,283,o),
(626,290,o),
(634,298,q),
(643,310,o),
(651,330,q),
(659,331,l)
);
},
{
closed = 1;
nodes = (
(275,213,q),
(273,221,o),
(284,232,o),
(289,229,q),
(291,227,o),
(293,218,o),
(292,216,qs),
(288,206,o)
);
},
{
closed = 1;
nodes = (
(303,158,o),
(298,141,q),
(289,134,o),
(262,125,o),
(252,143,q),
(268,160,o),
(286,173,q),
(296,171,l)
);
},
{
closed = 1;
nodes = (
(393,611,o),
(392,621,o),
(388,629,o),
(383,631,q),
(378,627,o),
(380,611,o),
(379,604,qs),
(379,602,o),
(377,592,o),
(378,590,qs),
(381,579,o),
(401,578,o),
(412,577,q),
(420,575,o),
(433,578,o),
(438,580,q),
(436,584,o),
(436,592,o),
(433,596,q),
(425,595,o),
(407,595,o),
(397,598,q),
(394,601,o)
);
},
{
closed = 1;
nodes = (
(698,205,o),
(702,210,q),
(710,216,o),
(712,223,qs),
(713,228,o),
(709,236,o),
(707,236,qs),
(702,237,o),
(693,227,o),
(691,225,q),
(685,222,o),
(672,222,o),
(667,217,qs),
(665,215,o),
(662,210,o),
(660,208,qs),
(656,204,o),
(646,196,o),
(641,194,qs),
(638,192,o),
(632,190,o),
(629,188,qs),
(626,186,o),
(620,183,o),
(617,181,q),
(603,176,o),
(577,182,o),
(562,177,q),
(560,174,o),
(565,160,q),
(576,159,o),
(593,163,o),
(602,163,qs),
(615,163,o),
(642,164,o),
(664,170,o),
(682,183,o),
(686,195,q),
(688,198,o)
);
},
{
closed = 1;
nodes = (
(505,176,o),
(490,175,q),
(489,171,o),
(492,166,o),
(494,164,q),
(515,154,o),
(536,168,qs),
(540,170,o),
(537,178,o),
(534,180,q),
(523,179,o)
);
},
{
closed = 1;
nodes = (
(30,107,o),
(17,122,q),
(15,119,o),
(14,112,o),
(12,110,q),
(14,104,o),
(11,92,o),
(10,85,qs),
(9,76,o),
(13,47,o),
(18,41,qs),
(22,37,o),
(39,29,o),
(46,28,qs),
(54,26,o),
(71,29,o),
(76,30,qs),
(85,32,o),
(104,30,o),
(109,34,q),
(110,34,o),
(113,37,o),
(118,47,q),
(112,51,o),
(95,47,o),
(88,52,q),
(79,50,o),
(52,58,o),
(39,56,q),
(32,70,o)
);
},
{
closed = 1;
nodes = (
(177,46,o),
(173,45,qs),
(163,44,o),
(143,50,o),
(137,43,qs),
(132,38,o),
(138,25,o),
(143,22,q),
(146,26,o),
(157,24,o),
(162,23,q),
(171,23,o),
(192,32,o),
(188,43,q),
(185,46,o)
);
}
);
width = 748;
}
);
note = thorn;
unicode = 254;
},
{
glyphname = onehalf;
layers = (
{
layerId = m01;
shapes = (
{
closed = 1;
nodes = (
(454,693,o),
(457,702,qs),
(459,707,o),
(463,714,o),
(465,718,qs),
(467,723,o),
(470,735,o),
(472,740,qs),
(474,743,o),
(478,747,o),
(479,752,q),
(487,756,o),
(484,763,o),
(474,766,o),
(462,764,o),
(460,758,qs),
(458,754,o),
(458,743,o),
(457,739,qs),
(455,732,o),
(444,724,o),
(442,710,qs),
(440,702,o),
(426,684,o),
(434,679,q),
(445,681,o)
);
},
{
closed = 1;
nodes = (
(174,748,q),
(174,743,o),
(181,740,o),
(188,741,o),
(192,746,o),
(191,751,qs),
(189,758,o)
);
},
{
closed = 1;
nodes = (
(221,712,o),
(223,695,qs),
(223,691,o),
(220,685,o),
(220,681,qs),
(221,676,o),
(232,673,o),
(237,676,qs),
(240,678,o),
(243,696,o),
(242,703,qs),
(242,709,o),
(240,724,o),
(241,730,qs),
(241,739,o),
(239,752,o),
(231,755,qs),
(226,757,o),
(212,751,o),
(209,745,q),
(212,743,o),
(219,742,o),
(221,739,qs),
(224,734,o)
);
},
{
closed = 1;
nodes = (
(434,434,o),
(438,436,q),
(443,453,o),
(460,481,o),
(467,497,q),
(477,513,o),
(493,549,o),
(505,569,q),
(509,581,o),
(521,604,o),
(527,616,qs),
(534,628,o),
(548,651,o),
(552,664,qs),
(553,667,o),
(554,675,o),
(556,679,qs),
(559,687,o),
(569,705,o),
(568,715,qs),
(568,719,o),
(564,725,o),
(564,729,q),
(561,730,o),
(555,735,o),
(551,736,qs),
(549,736,o),
(548,735,o),
(538,739,q),
(533,739,o),
(523,738,o),
(518,738,qs),
(516,738,o),
(509,740,o),
(507,740,qs),
(499,739,o),
(491,728,o),
(485,724,q),
(484,721,o),
(481,717,o),
(482,712,q),
(477,702,o),
(466,683,o),
(463,674,qs),
(461,669,o),
(459,661,o),
(457,656,q),
(453,650,o),
(444,638,o),
(443,630,q),
(438,625,o),
(434,612,o),
(430,606,q),
(428,601,o),
(421,591,o),
(420,587,qs),
(418,573,o),
(415,557,o),
(410,549,qs),
(407,545,o),
(401,539,o),
(399,535,qs),
(396,530,o),
(393,523,o),
(391,518,qs),
(389,514,o),
(384,508,o),
(382,504,qs),
(380,501,o),
(380,495,o),
(379,492,q),
(377,489,o),
(374,483,o),
(372,481,q),
(364,465,o),
(347,430,o),
(342,412,q),
(333,395,o),
(315,363,o),
(307,346,qs),
(305,342,o),
(299,335,o),
(298,332,qs),
(296,326,o),
(298,312,o),
(298,307,q),
(297,304,o),
(297,296,o),
(296,294,qs),
(292,283,o),
(270,272,o),
(264,264,q),
(259,254,o),
(251,234,o),
(241,218,qs),
(237,212,o),
(232,199,o),
(224,187,qs),
(222,183,o),
(219,175,o),
(217,170,qs),
(213,162,o),
(205,147,o),
(201,139,qs),
(199,135,o),
(193,128,o),
(191,124,qs),
(186,114,o),
(179,97,o),
(175,88,qs),
(173,85,o),
(167,79,o),
(165,75,qs),
(164,73,o),
(165,70,o),
(158,60,qs),
(156,57,o),
(155,50,o),
(153,47,qs),
(151,44,o),
(146,39,o),
(144,36,qs),
(142,31,o),
(142,18,o),
(142,13,q),
(144,8,o),
(153,5,o),
(154,0,q),
(171,-2,o),
(203,-5,o),
(217,-7,q),
(230,6,o),
(245,40,o),
(254,57,q),
(259,63,o),
(265,80,o),
(269,88,qs),
(271,91,o),
(276,97,o),
(278,100,qs),
(280,103,o),
(282,111,o),
(284,114,q),
(296,140,o),
(320,191,o),
(330,220,q),
(339,236,o),
(352,270,o),
(361,286,q),
(362,291,o),
(367,297,o),
(369,300,q),
(370,303,o),
(371,310,o),
(372,313,qs),
(377,324,o),
(387,342,o),
(389,353,qs),
(390,357,o),
(389,365,o),
(390,369,qs),
(392,374,o),
(398,383,o),
(401,386,qs),
(406,391,o),
(415,398,o),
(420,401,q),
(422,409,o),
(430,420,o),
(432,425,qs),
(434,428,o)
);
},
{
closed = 1;
nodes = (
(532,685,o),
(526,674,o),
(516,665,o),
(512,664,q),
(509,667,o),
(503,665,o),
(500,663,q),
(498,677,o),
(517,695,o),
(528,700,q),
(533,696,o)
);
},
{
closed = 1;
nodes = (
(195,45,o),
(191,42,o),
(185,42,q),
(181,56,o),
(199,74,o),
(204,83,q),
(209,81,o),
(213,73,o),
(213,62,o),
(210,51,o),
(208,47,q),
(198,47,l)
);
},
{
closed = 1;
nodes = (
(244,116,q),
(249,108,o),
(241,88,o),
(231,92,q),
(233,107,o)
);
},
{
closed = 1;
nodes = (
(109,366,o),
(118,364,qs),
(144,359,o),
(205,361,o),
(231,361,q),
(233,364,o),
(240,365,o),
(242,367,q),
(242,375,o),
(241,393,o),
(242,402,qs),
(243,407,o),
(245,414,o),
(244,418,qs),
(242,427,o),
(222,435,o),
(211,433,q),
(205,438,o),
(206,455,o),
(205,463,qs),
(205,466,o),
(202,472,o),
(201,476,qs),
(201,480,o),
(204,487,o),
(205,490,qs),
(208,504,o),
(205,535,o),
(204,553,qs),
(203,567,o),
(205,594,o),
(204,603,qs),
(203,610,o),
(199,620,o),
(197,625,qs),
(196,630,o),
(195,638,o),
(196,641,qs),
(197,646,o),
(203,655,o),
(205,660,qs),
(206,665,o),
(205,679,o),
(206,684,qs),
(207,697,o),
(204,719,o),
(202,729,q),
(192,734,o),
(177,728,o),
(169,727,qs),
(162,726,o),
(151,732,o),
(138,730,qs),
(130,729,o),
(112,733,o),
(103,731,qs),
(95,729,o),
(86,716,o),
(76,703,q),
(74,699,o),
(72,692,o),
(59,686,q),
(54,680,o),
(46,669,o),
(41,663,qs),
(33,652,o),
(18,634,o),
(22,614,q),
(28,605,o),
(56,609,o),
(66,610,q),
(71,607,o),
(70,597,o),
(70,592,qs),
(70,570,ls),
(69,560,o),
(66,538,o),
(68,517,qs),
(68,509,o),
(65,494,o),
(67,487,q),
(67,484,o),
(71,479,o),
(72,476,q),
(72,471,o),
(67,462,o),
(67,457,qs),
(66,449,o),
(68,437,o),
(66,431,q),
(47,431,o),
(25,422,o),
(24,403,qs),
(24,398,o),
(27,391,o),
(28,386,qs),
(29,381,o),
(26,371,o),
(27,368,qs),
(28,365,o),
(32,360,o),
(33,358,q),
(42,356,o),
(62,359,o),
(73,359,q),
(75,361,o),
(80,367,o),
(84,369,qs),
(93,372,o)
);
},
{
closed = 1;
nodes = (
(200,395,o),
(203,397,qs),
(208,400,o),
(213,410,o),
(218,410,qs),
(226,410,o),
(228,388,o),
(216,384,qs),
(211,382,o),
(184,378,o),
(175,379,qs),
(171,380,o),
(165,384,o),
(167,388,q),
(167,389,o),
(185,394,o),
(187,395,q),
(193,396,o)
);
},
{
closed = 1;
nodes = (
(100,701,o),
(106,709,o),
(114,712,o),
(124,712,q),
(129,709,o),
(149,708,o),
(156,710,q),
(158,708,o),
(164,707,o),
(166,705,q),
(165,698,o),
(156,694,o),
(144,693,o),
(130,695,o),
(125,694,qs),
(120,693,o),
(112,685,o),
(105,677,o),
(96,674,o),
(93,688,q),
(95,692,o)
);
},
{
closed = 1;
nodes = (
(74,411,o),
(78,410,q),
(86,416,o),
(87,447,o),
(87,459,qs),
(87,467,o),
(101,471,o),
(103,463,qs),
(104,460,o),
(101,454,o),
(100,450,qs),
(100,447,o),
(101,442,o),
(102,439,q),
(102,431,o),
(100,410,o),
(98,404,q),
(96,401,o),
(86,393,o),
(81,393,qs),
(78,393,o),
(69,394,o),
(63,398,o),
(61,403,o),
(65,408,q),
(68,409,o)
);
},
{
closed = 1;
nodes = (
(495,413,o),
(481,400,o),
(477,397,q),
(475,389,o),
(461,380,o),
(462,371,q),
(472,372,o),
(485,388,o),
(498,389,q),
(507,384,o),
(521,396,o),
(521,407,q),
(523,409,o),
(530,411,o),
(530,415,qs),
(529,424,o),
(514,416,o),
(511,415,q),
(505,415,l)
);
},
{
closed = 1;
nodes = (
(729,80,o),
(727,78,q),
(713,75,o),
(694,88,q),
(691,89,o),
(683,86,o),
(680,86,qs),
(662,85,o),
(629,84,o),
(614,85,q),
(616,94,o),
(630,104,o),
(637,109,qs),
(646,114,o),
(653,123,q),
(662,131,o),
(678,141,o),
(680,154,q),
(684,157,o),
(692,164,o),
(699,162,q),
(722,180,o),
(755,239,o),
(752,273,qs),
(751,281,o),
(748,299,o),
(744,307,qs),
(741,315,o),
(732,328,o),
(727,333,qs),
(724,337,o),
(719,344,o),
(717,347,q),
(710,353,o),
(690,367,o),
(681,372,qs),
(676,374,o),
(665,378,o),
(658,380,qs),
(653,382,o),
(641,386,o),
(636,387,qs),
(619,389,o),
(588,392,o),
(570,391,qs),
(556,389,o),
(534,384,o),
(526,369,qs),
(522,362,o),
(505,356,o),
(498,361,q),
(487,356,o),
(468,337,o),
(453,321,q),
(451,317,o),
(449,309,q),
(444,302,o),
(444,297,qs),
(444,292,o),
(447,287,o),
(450,283,qs),
(455,275,o),
(466,258,o),
(474,256,qs),
(484,253,o),
(499,265,o),
(507,270,qs),
(512,273,o),
(521,281,o),
(526,285,qs),
(543,297,o),
(573,319,o),
(597,321,q),
(599,323,o),
(603,327,o),
(608,327,q),
(611,324,o),
(607,317,o),
(608,313,qs),
(608,310,o),
(613,303,o),
(615,298,qs),
(625,272,o),
(612,248,q),
(601,237,o),
(580,218,o),
(568,208,q),
(568,200,o),
(555,179,o),
(541,179,q),
(526,166,o),
(492,146,o),
(474,124,q),
(468,122,o),
(449,101,o),
(449,93,qs),
(449,88,o),
(456,76,o),
(456,71,qs),
(455,63,o),
(446,51,o),
(445,44,qs),
(445,42,o),
(449,36,o),
(447,32,q),
(452,29,o),
(461,16,o),
(466,12,qs),
(468,11,o),
(471,11,o),
(479,5,qs),
(481,4,o),
(488,4,o),
(490,3,q),
(496,3,o),
(502,1,q),
(505,1,o),
(512,3,o),
(517,4,qs),
(525,5,o),
(547,5,o),
(557,5,q),
(561,4,o),
(567,3,o),
(571,3,qs),
(577,3,o),
(593,6,o),
(608,5,q),
(610,6,o),
(615,12,o),
(618,13,qs),
(632,20,o),
(658,10,o),
(669,5,q),
(686,7,o),
(720,4,o),
(735,5,qs),
(742,6,o),
(752,12,o),
(756,16,q),
(761,24,o),
(761,37,o),
(763,49,qs),
(764,60,o),
(764,78,o),
(759,83,q),
(753,84,o),
(743,85,o),
(738,84,qs),
(734,83,o)
);
},
{
closed = 1;
nodes = (
(686,210,o),
(693,215,q),
(695,228,o),
(702,230,q),
(705,241,o),
(708,263,o),
(711,272,qs),
(713,277,o),
(720,287,o),
(725,283,qs),
(730,280,o),
(730,257,o),
(728,249,qs),
(724,237,o),
(714,215,o),
(707,208,qs),
(700,199,o),
(684,187,o),
(676,180,q),
(676,175,o),
(669,170,o),
(664,172,q),
(659,178,o),
(668,185,o),
(671,189,qs),
(676,195,o)
);
},
{
closed = 1;
nodes = (
(642,139,o),
(634,138,q),
(627,145,o),
(643,159,o),
(650,157,q),
(648,149,o)
);
},
{
closed = 1;
nodes = (
(512,296,o),
(507,294,q),
(502,289,o),
(491,283,o),
(486,278,q),
(481,280,o),
(476,283,o),
(474,286,qs),
(467,295,o),
(474,310,o),
(496,307,q),
(503,307,o),
(516,317,o),
(522,319,q),
(524,321,o),
(535,317,o),
(536,313,qs),
(536,310,o),
(525,305,o),
(523,303,q),
(518,300,o)
);
},
{
closed = 1;
nodes = (
(470,36,o),
(466,37,q),
(465,47,o),
(474,60,o),
(476,68,qs),
(479,77,o),
(470,89,o),
(472,100,q),
(478,102,o),
(485,106,o),
(490,98,qs),
(497,87,o),
(489,62,o),
(485,51,q),
(485,49,o),
(488,46,o),
(495,36,q),
(496,30,o),
(480,24,o),
(474,29,qs),
(471,31,o)
);
},
{
closed = 1;
nodes = (
(730,22,o),
(717,22,qs),
(712,22,o),
(700,19,o),
(702,34,q),
(708,38,o),
(720,37,o),
(725,39,q),
(731,43,o),
(740,57,o),
(749,52,q),
(753,43,o),
(741,34,o),
(740,27,q),
(738,26,o)
);
},
{
closed = 1;
nodes = (
(143,348,o),
(138,349,qs),
(134,349,o),
(124,348,o),
(119,349,qs),
(115,349,o),
(108,351,o),
(105,351,qs),
(101,351,o),
(93,351,o),
(90,350,qs),
(86,349,o),
(84,345,o),
(80,343,qs),
(75,341,o),
(63,340,o),
(65,333,qs),
(66,327,o),
(77,326,o),
(92,330,o),
(105,336,o),
(108,336,qs),
(112,337,o),
(123,334,o),
(128,334,qs),
(135,335,o),
(156,339,o),
(156,343,qs),
(156,345,o)
);
},
{
closed = 1;
nodes = (
(187,341,o),
(196,338,o),
(205,340,o),
(204,346,q),
(203,348,o),
(195,351,o),
(189,349,qs),
(183,347,o)
);
},
{
closed = 1;
nodes = (
(768,249,o),
(769,238,o),
(774,232,o),
(780,233,qs),
(786,235,o),
(791,251,o),
(790,259,q),
(788,262,o),
(785,267,o),
(784,271,q),
(784,276,o),
(785,285,o),
(784,290,qs),
(782,297,o),
(774,309,o),
(768,310,q),
(766,307,o),
(769,300,o),
(769,297,qs),
(770,291,o),
(771,274,o),
(770,266,qs),
(770,261,o)
);
},
{
closed = 1;
nodes = (
(796,113,o),
(781,114,o),
(765,112,o),
(759,103,q),
(761,98,o),
(773,96,o),
(780,98,q),
(784,96,o),
(786,84,o),
(786,71,o),
(787,61,o),
(792,60,qs),
(796,59,o),
(802,68,o),
(806,81,o),
(807,94,o),
(807,99,qs),
(806,106,o)
);
},
{
closed = 1;
nodes = (
(323,89,o),
(321,96,qs),
(318,106,o),
(299,99,o),
(302,87,q),
(307,81,o)
);
},
{
closed = 1;
nodes = (
(271,44,o),
(267,36,qs),
(261,20,o),
(242,-9,o),
(227,-19,qs),
(225,-20,o),
(208,-22,o),
(209,-29,qs),
(210,-34,o),
(223,-32,o),
(237,-36,q),
(240,-36,o),
(254,-27,o),
(256,-25,qs),
(261,-21,o),
(263,-13,o),
(272,0,qs),
(278,11,o),
(285,34,o),
(290,42,q),
(298,41,o),
(307,60,o),
(302,67,qs),
(297,72,o),
(285,65,o),
(285,57,q),
(274,55,o)
);
},
{
closed = 1;
nodes = (
(437,17,o),
(432,20,q),
(431,25,o),
(431,30,o),
(429,32,qs),
(426,34,o),
(422,29,o),
(420,21,o),
(420,12,o),
(423,3,qs),
(425,-3,o),
(424,-12,o),
(430,-14,qs),
(436,-16,o),
(458,-13,o),
(459,-9,qs),
(461,-1,o),
(449,0,o),
(443,2,q),
(444,10,o)
);
},
{
closed = 1;
nodes = (
(769,-7,o),
(773,-9,qs),
(779,-11,o),
(785,-4,o),
(785,3,o),
(780,9,o),
(774,7,qs),
(769,5,o)
);
}
);
width = 827;
}
);
note = onehalf;
unicode = 189;
},
{
glyphname = onequarter;
layers = (
{
layerId = m01;
shapes = (
{
closed = 1;
nodes = (
(454,693,o),
(457,702,qs),
(459,707,o),
(463,714,o),
(465,718,qs),
(467,723,o),
(470,735,o),
(472,740,qs),
(474,743,o),
(478,747,o),
(479,752,q),
(487,756,o),
(484,763,o),
(474,766,o),
(462,764,o),
(460,758,qs),
(458,754,o),
(458,743,o),
(457,739,qs),
(455,732,o),
(444,724,o),
(442,710,qs),
(440,702,o),
(426,684,o),
(434,679,q),
(445,681,o)
);
},
{
closed = 1;
nodes = (
(174,748,q),
(174,743,o),
(181,740,o),
(188,741,o),
(192,746,o),
(191,751,qs),
(189,758,o)
);
},
{
closed = 1;
nodes = (
(221,712,o),
(223,695,qs),
(223,691,o),
(220,685,o),
(220,681,qs),
(221,676,o),
(232,673,o),
(237,676,qs),
(240,678,o),
(243,696,o),
(242,703,qs),
(242,709,o),
(240,724,o),
(241,730,qs),
(241,739,o),
(239,752,o),
(231,755,qs),
(226,757,o),
(212,751,o),
(209,745,q),
(212,743,o),
(219,742,o),
(221,739,qs),
(224,734,o)
);
},
{
closed = 1;
nodes = (
(430,420,o),
(432,425,qs),
(434,428,o),
(434,434,o),
(438,436,q),
(443,453,o),
(460,481,o),
(467,497,q),
(477,513,o),
(493,549,o),
(505,569,q),
(509,581,o),
(521,604,o),
(527,616,qs),
(534,628,o),
(548,651,o),
(552,664,qs),
(553,667,o),
(554,675,o),
(556,679,qs),
(559,687,o),
(569,705,o),
(568,715,qs),
(568,719,o),
(564,725,o),
(564,729,q),
(561,730,o),
(555,735,o),
(551,736,qs),
(549,736,o),
(548,735,o),
(538,739,q),
(533,739,o),
(523,738,o),
(518,738,qs),
(516,738,o),
(509,740,o),
(507,740,qs),
(499,739,o),
(491,728,o),
(485,724,q),
(484,721,o),
(481,717,o),
(482,712,q),
(477,702,o),
(466,683,o),
(463,674,qs),
(461,669,o),
(459,661,o),
(457,656,q),
(453,650,o),
(444,638,o),
(443,630,q),
(438,625,o),
(434,612,o),
(430,606,q),
(428,601,o),
(421,591,o),
(420,587,qs),
(418,573,o),
(415,557,o),
(410,549,qs),
(407,545,o),
(401,539,o),
(399,535,qs),
(396,530,o),
(393,523,o),
(391,518,qs),
(389,514,o),
(384,508,o),
(382,504,qs),
(380,501,o),
(380,495,o),
(379,492,q),
(377,489,o),
(374,483,o),
(372,481,q),
(364,465,o),
(347,430,o),
(342,412,q),
(333,395,o),
(315,363,o),
(307,346,qs),
(305,342,o),
(299,335,o),
(298,332,qs),
(296,326,o),
(298,312,o),
(298,307,q),
(297,304,o),
(297,296,o),
(296,294,qs),
(292,283,o),
(270,272,o),
(264,264,q),
(259,254,o),
(251,234,o),
(241,218,qs),
(237,212,o),
(232,199,o),
(224,187,qs),
(222,183,o),
(219,175,o),
(217,170,qs),
(213,162,o),
(205,147,o),
(201,139,qs),
(199,135,o),
(193,128,o),
(191,124,qs),
(186,114,o),
(179,97,o),
(175,88,qs),
(173,85,o),
(167,79,o),
(165,75,qs),
(164,73,o),
(165,70,o),
(158,60,qs),
(156,57,o),
(155,50,o),
(153,47,qs),
(151,44,o),
(146,39,o),
(144,36,qs),
(142,31,o),
(142,18,o),
(142,13,q),
(144,8,o),
(153,5,o),
(154,0,q),
(171,-2,o),
(203,-5,o),
(217,-7,q),
(230,6,o),
(245,40,o),
(254,57,q),
(259,63,o),
(265,80,o),
(269,88,qs),
(271,91,o),
(276,97,o),
(278,100,qs),
(280,103,o),
(282,111,o),
(284,114,q),
(296,140,o),
(320,191,o),
(330,220,q),
(339,236,o),
(352,270,o),
(361,286,q),
(362,291,o),
(367,297,o),
(369,300,q),
(370,303,o),
(371,310,o),
(372,313,qs),
(377,324,o),
(387,342,o),
(389,353,qs),
(390,357,o),
(389,365,o),
(390,369,qs),
(392,374,o),
(398,383,o),
(401,386,qs),
(406,391,o),
(415,398,o),
(420,401,q),
(422,409,o)
);
},
{
closed = 1;
nodes = (
(532,685,o),
(526,674,o),
(516,665,o),
(512,664,q),
(509,667,o),
(503,665,o),
(500,663,q),
(498,677,o),
(517,695,o),
(528,700,q),
(533,696,o)
);
},
{
closed = 1;
nodes = (
(195,45,o),
(191,42,o),
(185,42,q),
(181,56,o),
(199,74,o),
(204,83,q),
(209,81,o),
(213,73,o),
(213,62,o),
(210,51,o),
(208,47,q),
(198,47,l)
);
},
{
closed = 1;
nodes = (
(244,116,q),
(249,108,o),
(241,88,o),
(231,92,q),
(233,107,o)
);
},
{
closed = 1;
nodes = (
(109,366,o),
(118,364,qs),
(144,359,o),
(205,361,o),
(231,361,q),
(233,364,o),
(240,365,o),
(242,367,q),
(242,375,o),
(241,393,o),
(242,402,qs),
(243,407,o),
(245,414,o),
(244,418,qs),
(242,427,o),
(222,435,o),
(211,433,q),
(205,438,o),
(206,455,o),
(205,463,qs),
(205,466,o),
(202,472,o),
(201,476,qs),
(201,480,o),
(204,487,o),
(205,490,qs),
(208,504,o),
(205,535,o),
(204,553,qs),
(203,567,o),
(205,594,o),
(204,603,qs),
(203,610,o),
(199,620,o),
(197,625,qs),
(196,630,o),
(195,638,o),
(196,641,qs),
(197,646,o),
(203,655,o),
(205,660,qs),
(206,665,o),
(205,679,o),
(206,684,qs),
(207,697,o),
(204,719,o),
(202,729,q),
(192,734,o),
(177,728,o),
(169,727,qs),
(162,726,o),
(151,732,o),
(138,730,qs),
(130,729,o),
(112,733,o),
(103,731,qs),
(95,729,o),
(86,716,o),
(76,703,q),
(74,699,o),
(72,692,o),
(59,686,q),
(54,680,o),
(46,669,o),
(41,663,qs),
(33,652,o),
(18,634,o),
(22,614,q),
(28,605,o),
(56,609,o),
(66,610,q),
(71,607,o),
(70,597,o),
(70,592,qs),
(70,570,ls),
(69,560,o),
(66,538,o),
(68,517,qs),
(68,509,o),
(65,494,o),
(67,487,q),
(67,484,o),
(71,479,o),
(72,476,q),
(72,471,o),
(67,462,o),
(67,457,qs),
(66,449,o),
(68,437,o),
(66,431,q),
(47,431,o),
(25,422,o),
(24,403,qs),
(24,398,o),
(27,391,o),
(28,386,qs),
(29,381,o),
(26,371,o),
(27,368,qs),
(28,365,o),
(32,360,o),
(33,358,q),
(42,356,o),
(62,359,o),
(73,359,q),
(75,361,o),
(80,367,o),
(84,369,qs),
(93,372,o)
);
},
{
closed = 1;
nodes = (
(200,395,o),
(203,397,qs),
(208,400,o),
(213,410,o),
(218,410,qs),
(226,410,o),
(228,388,o),
(216,384,qs),
(211,382,o),
(184,378,o),
(175,379,qs),
(171,380,o),
(165,384,o),
(167,388,q),
(167,389,o),
(185,394,o),
(187,395,q),
(193,396,o)
);
},
{
closed = 1;
nodes = (
(100,701,o),
(106,709,o),
(114,712,o),
(124,712,q),
(129,709,o),
(149,708,o),
(156,710,q),
(158,708,o),
(164,707,o),
(166,705,q),
(165,698,o),
(156,694,o),
(144,693,o),
(130,695,o),
(125,694,qs),
(120,693,o),
(112,685,o),
(105,677,o),
(96,674,o),
(93,688,q),
(95,692,o)
);
},
{
closed = 1;
nodes = (
(74,411,o),
(78,410,q),
(86,416,o),
(87,447,o),
(87,459,qs),
(87,467,o),
(101,471,o),
(103,463,qs),
(104,460,o),
(101,454,o),
(100,450,qs),
(100,447,o),
(101,442,o),
(102,439,q),
(102,431,o),
(100,410,o),
(98,404,q),
(96,401,o),
(86,393,o),
(81,393,qs),
(78,393,o),
(69,394,o),
(63,398,o),
(61,403,o),
(65,408,q),
(68,409,o)
);
},
{
closed = 1;
nodes = (
(702,402,o),
(692,399,qs),
(686,397,o),
(691,387,o),
(696,387,qs),
(703,387,o)
);
},
{
closed = 1;
nodes = (
(739,370,o),
(740,365,qs),
(741,359,o),
(741,338,o),
(749,338,qs),
(755,337,o),
(759,343,o),
(759,353,o),
(756,364,o),
(756,368,q),
(754,375,o),
(755,391,o),
(751,395,qs),
(748,398,o),
(735,400,o),
(721,399,o),
(712,394,o),
(713,389,qs),
(714,384,o),
(729,384,o),
(734,382,q),
(736,377,o)
);
},
{
closed = 1;
nodes = (
(720,79,o),
(722,95,q),
(728,95,o),
(738,96,o),
(743,98,q),
(749,113,o),
(746,149,o),
(748,167,q),
(746,176,o),
(726,176,o),
(720,177,q),
(718,190,o),
(721,215,o),
(720,227,qs),
(719,232,o),
(716,239,o),
(715,243,qs),
(711,257,o),
(719,281,o),
(721,292,qs),
(722,296,o),
(720,301,o),
(720,305,qs),
(720,317,o),
(723,340,o),
(722,351,qs),
(721,355,o),
(714,368,o),
(712,369,qs),
(704,373,o),
(686,367,o),
(678,368,qs),
(673,368,o),
(666,373,o),
(660,376,q),
(654,375,o),
(642,374,o),
(635,374,qs),
(631,374,o),
(622,376,o),
(617,376,qs),
(611,376,o),
(584,375,o),
(573,364,qs),
(569,359,o),
(563,355,o),
(561,352,qs),
(559,347,o),
(562,336,o),
(559,330,qs),
(557,325,o),
(545,323,o),
(540,325,q),
(534,320,o),
(526,309,o),
(522,304,q),
(523,294,o),
(515,281,o),
(511,274,q),
(493,263,o),
(458,234,o),
(445,216,qs),
(443,213,o),
(439,205,o),
(437,201,q),
(431,193,o),
(428,187,q),
(425,176,o),
(428,148,o),
(423,126,q),
(422,115,o),
(433,101,o),
(440,96,q),
(454,97,o),
(481,95,o),
(494,97,qs),
(499,98,o),
(508,102,o),
(521,98,qs),
(533,96,o),
(557,98,o),
(571,96,q),
(573,86,o),
(570,67,o),
(573,57,q),
(575,53,o),
(583,48,o),
(584,44,qs),
(585,39,o),
(577,30,o),
(575,25,qs),
(574,20,o),
(575,15,o),
(575,10,q),
(580,5,o),
(589,5,o),
(603,3,qs),
(620,1,o),
(659,6,o),
(675,6,qs),
(686,6,o),
(700,5,o),
(709,8,qs),
(717,11,o),
(718,16,o),
(718,25,qs),
(719,40,o)
);
},
{
closed = 1;
nodes = (
(464,126,o),
(465,118,q),
(461,112,o),
(450,114,o),
(443,122,o),
(443,133,o),
(449,136,q),
(451,128,o)
);
},
{
closed = 1;
nodes = (
(477,115,q),
(479,124,o),
(492,116,q),
(486,111,o)
);
},
{
closed = 1;
nodes = (
(573,191,q),
(571,187,o),
(574,182,o),
(572,177,q),
(558,175,o),
(533,174,o),
(519,175,q),
(517,182,o),
(525,191,o),
(529,196,qs),
(541,208,o),
(563,234,o),
(574,247,q),
(576,241,o),
(573,229,o),
(575,223,qs),
(577,219,o),
(584,214,o),
(583,208,qs),
(583,204,o)
);
},
{
closed = 1;
nodes = (
(615,34,o),
(615,28,qs),
(615,20,o),
(598,17,o),
(600,30,q),
(603,35,o)
);
},
{
closed = 1;
nodes = (
(615,346,o),
(608,345,o),
(604,343,qs),
(598,340,o),
(590,330,o),
(582,335,q),
(580,339,o),
(588,357,o),
(593,359,qs),
(604,363,o),
(620,356,q),
(620,348,l)
);
},
{
closed = 1;
nodes = (
(639,344,o),
(637,348,q),
(637,352,o),
(641,356,o),
(647,356,o),
(652,353,o),
(651,350,q),
(651,346,o)
);
},
{
closed = 1;
nodes = (
(692,69,o),
(697,65,q),
(701,58,o),
(691,49,o),
(686,54,q),
(684,60,o)
);
},
{
closed = 1;
nodes = (
(698,89,o),
(696,84,q),
(692,84,o),
(688,88,o),
(686,90,q),
(686,97,o),
(688,110,o),
(689,116,qs),
(690,119,o),
(698,123,o),
(707,123,o),
(714,119,o),
(714,115,q),
(708,113,o),
(696,109,o),
(695,102,qs),
(694,97,o)
);
},
{
closed = 1;
nodes = (
(143,348,o),
(138,349,qs),
(134,349,o),
(124,348,o),
(119,349,qs),
(115,349,o),
(108,351,o),
(105,351,qs),
(101,351,o),
(93,351,o),
(90,350,qs),
(86,349,o),
(84,345,o),
(80,343,qs),
(75,341,o),
(63,340,o),
(65,333,qs),
(66,327,o),
(77,326,o),
(92,330,o),
(105,336,o),
(108,336,qs),
(112,337,o),
(123,334,o),
(128,335,q),
(135,335,o),
(156,339,o),
(156,343,qs),
(156,345,o)
);
},
{
closed = 1;
nodes = (
(187,341,o),
(196,338,o),
(205,340,o),
(204,346,qs),
(202,353,o),
(189,350,q),
(183,347,o)
);
},
{
closed = 1;
nodes = (
(409,118,o),
(406,130,o),
(400,134,o),
(394,128,q),
(396,117,o),
(389,98,o),
(391,88,qs),
(392,82,o),
(401,72,o),
(407,71,qs),
(412,70,o),
(424,74,o),
(425,79,qs),
(427,87,o),
(414,92,o),
(412,97,qs),
(410,102,o)
);
},
{
closed = 1;
nodes = (
(323,89,o),
(321,96,qs),
(318,106,o),
(299,99,o),
(302,87,q),
(307,81,o)
);
},
{
closed = 1;
nodes = (
(271,44,o),
(267,36,qs),
(261,20,o),
(242,-9,o),
(227,-19,qs),
(225,-20,o),
(208,-22,o),
(209,-29,qs),
(210,-34,o),
(223,-32,o),
(237,-36,q),
(240,-36,o),
(254,-27,o),
(256,-25,qs),
(261,-21,o),
(263,-13,o),
(272,0,qs),
(278,11,o),
(285,34,o),
(290,42,q),
(298,41,o),
(307,60,o),
(302,67,qs),
(297,72,o),
(285,65,o),
(285,57,q),
(274,55,o)
);
},
{
closed = 1;
nodes = (
(753,64,o),
(751,61,qs),
(750,60,o),
(750,57,o),
(742,51,q),
(735,40,o),
(742,7,o),
(741,-2,q),
(736,-7,o),
(716,-5,o),
(715,-13,qs),
(714,-20,o),
(725,-22,o),
(739,-18,o),
(752,-12,o),
(761,-10,q),
(767,-5,o),
(764,15,o),
(764,26,qs),
(765,34,o),
(764,46,o),
(759,50,q),
(764,48,o),
(771,55,o),
(769,59,qs),
(767,65,o)
);
}
);
width = 791;
}
);
note = onequarter;
unicode = 188;
},
{
glyphname = onesuperior;
layers = (
{
layerId = m01;
shapes = (
{
closed = 1;
nodes = (
(164,748,q),
(165,739,o),
(183,742,o),
(181,751,qs),
(179,758,o)
);
},
{
closed = 1;
nodes = (
(211,712,o),
(213,695,qs),
(213,691,o),
(210,685,o),
(210,681,qs),
(211,676,o),
(222,673,o),
(226,676,qs),
(229,678,o),
(232,696,o),
(231,703,qs),
(231,709,o),
(229,724,o),
(230,730,qs),
(230,739,o),
(228,752,o),
(221,755,qs),
(216,757,o),
(202,751,o),
(199,745,q),
(202,743,o),
(209,742,o),
(211,739,qs),
(214,734,o)
);
},
{
closed = 1;
nodes = (
(99,366,o),
(108,364,qs),
(134,359,o),
(194,361,o),
(221,361,q),
(223,364,o),
(229,365,o),
(231,367,q),
(231,375,o),
(230,393,o),
(231,402,qs),
(232,407,o),
(234,414,o),
(233,418,qs),
(231,427,o),
(212,435,o),
(201,433,q),
(195,438,o),
(196,455,o),
(195,463,qs),
(195,466,o),
(191,472,o),
(190,476,qs),
(190,480,o),
(194,487,o),
(195,490,qs),
(198,504,o),
(195,535,o),
(194,553,qs),
(193,567,o),
(195,594,o),
(194,603,qs),
(193,610,o),
(188,620,o),
(186,625,qs),
(185,630,o),
(184,638,o),
(185,641,qs),
(186,646,o),
(193,655,o),
(195,660,qs),
(196,665,o),
(195,679,o),
(196,684,q),
(197,708,o),
(191,729,q),
(182,734,o),
(167,728,o),
(159,727,qs),
(152,726,o),
(140,732,o),
(128,730,qs),
(120,729,o),
(101,733,o),
(93,731,qs),
(85,729,o),
(76,716,o),
(66,703,qs),
(63,699,o),
(61,692,o),
(49,686,q),
(44,680,o),
(36,669,o),
(31,663,qs),
(27,658,o),
(18,649,o),
(12,638,o),
(9,624,o),
(11,614,q),
(17,605,o),
(46,609,o),
(55,610,q),
(60,607,o),
(59,597,o),
(59,592,qs),
(59,570,ls),
(58,560,o),
(55,538,o),
(57,517,qs),
(57,509,o),
(54,494,o),
(56,487,q),
(56,484,o),
(60,479,o),
(61,476,q),
(61,471,o),
(56,462,o),
(56,457,qs),
(55,449,o),
(57,437,o),
(55,431,q),
(37,431,o),
(14,422,o),
(13,403,qs),
(13,398,o),
(16,391,o),
(17,386,qs),
(18,381,o),
(15,371,o),
(16,368,qs),
(17,365,o),
(22,360,o),
(23,358,q),
(32,356,o),
(52,359,o),
(62,359,q),
(65,361,o),
(70,367,o),
(74,369,qs),
(83,372,o)
);
},
{
closed = 1;
nodes = (
(189,395,o),
(193,397,qs),
(198,400,o),
(203,410,o),
(208,410,qs),
(216,410,o),
(218,388,o),
(206,384,qs),
(201,382,o),
(174,378,o),
(165,379,qs),
(161,380,o),
(155,384,o),
(157,388,q),
(157,389,o),
(175,394,o),
(177,395,q),
(182,396,o)
);
},
{
closed = 1;
nodes = (
(90,701,o),
(96,709,o),
(104,712,o),
(114,712,q),
(119,709,o),
(139,708,o),
(145,710,q),
(147,708,o),
(154,707,o),
(156,705,q),
(155,698,o),
(146,694,o),
(134,693,o),
(120,695,o),
(115,694,qs),
(110,693,o),
(102,685,o),
(94,677,o),
(86,674,o),
(83,688,q),
(85,692,o)
);
},
{
closed = 1;
nodes = (
(63,411,o),
(68,410,q),
(76,416,o),
(77,447,o),
(77,459,qs),
(77,467,o),
(91,471,o),
(93,463,qs),
(94,460,o),
(91,454,o),
(90,450,qs),
(90,447,o),
(91,442,o),
(92,439,q),
(92,431,o),
(90,410,o),
(88,404,q),
(86,401,o),
(76,393,o),
(71,393,qs),
(63,393,o),
(47,399,o),
(54,408,q),
(57,409,o)
);
},
{
closed = 1;
nodes = (
(133,348,o),
(128,349,qs),
(124,349,o),
(114,348,o),
(109,349,qs),
(104,349,o),
(97,351,o),
(95,351,qs),
(91,351,o),
(83,351,o),
(80,350,qs),
(76,349,o),
(74,345,o),
(70,343,qs),
(64,341,o),
(53,340,o),
(54,333,qs),
(55,327,o),
(67,326,o),
(81,330,o),
(95,336,o),
(97,336,qs),
(101,337,o),
(113,334,o),
(118,334,qs),
(125,335,o),
(145,339,o),
(145,343,qs),
(145,345,o)
);
},
{
closed = 1;
nodes = (
(177,341,o),
(186,338,o),
(195,340,o),
(194,346,q),
(193,348,o),
(184,351,o),
(179,349,qs),
(173,347,o)
);
}
);
width = 264;
}
);
note = onesuperior;
unicode = 185;
},
{
glyphname = threequarters;
layers = (
{
layerId = m01;
shapes = (
{
closed = 1;
nodes = (
(679,-11,o),
(699,-2,q),
(702,-2,o),
(709,-1,o),
(711,1,q),
(707,1,o),
(699,-2,o),
(695,-1,q),
(680,0,o),
(643,3,o),
(626,-4,q),
(643,-2,o)
);
},
{
closed = 1;
nodes = (
(547,693,o),
(551,702,qs),
(553,707,o),
(556,714,o),
(558,718,qs),
(560,723,o),
(563,735,o),
(565,740,qs),
(567,743,o),
(572,747,o),
(572,752,q),
(580,756,o),
(577,763,o),
(567,766,o),
(555,764,o),
(553,758,qs),
(551,754,o),
(551,743,o),
(550,739,qs),
(548,732,o),
(538,724,o),
(536,710,qs),
(534,702,o),
(519,684,o),
(527,679,q),
(538,681,o)
);
},
{
closed = 1;
nodes = (
(52,718,o),
(53,721,qs),
(54,725,o),
(59,733,o),
(62,735,q),
(66,736,o),
(79,737,o),
(92,739,o),
(101,744,o),
(100,750,qs),
(99,756,o),
(76,758,o),
(71,758,qs),
(47,756,o),
(39,748,qs),
(36,744,o),
(27,722,o),
(29,716,qs),
(30,712,o),
(40,705,o),
(45,707,qs),
(50,708,o)
);
},
{
closed = 1;
nodes = (
(119,758,o),
(115,756,qs),
(109,754,o),
(110,745,o),
(117,739,o),
(125,739,o),
(126,745,qs),
(126,752,o)
);
},
{
closed = 1;
nodes = (
(380,698,o),
(380,691,qs),
(380,685,o),
(388,670,o),
(393,669,qs),
(399,669,o),
(405,678,o),
(408,692,o),
(408,708,o),
(407,715,qs),
(406,724,o),
(395,740,o),
(380,740,q),
(377,732,o),
(388,725,o),
(390,720,q),
(389,714,o)
);
},
{
closed = 1;
nodes = (
(523,420,o),
(525,425,qs),
(527,428,o),
(528,434,o),
(531,436,q),
(537,453,o),
(554,481,o),
(561,497,qs),
(570,513,o),
(587,549,o),
(598,569,q),
(602,581,o),
(614,604,o),
(621,616,qs),
(627,628,o),
(641,651,o),
(645,664,qs),
(646,667,o),
(647,675,o),
(649,679,qs),
(652,687,o),
(663,705,o),
(662,715,qs),
(662,719,o),
(657,725,o),
(658,729,q),
(654,730,o),
(648,735,o),
(644,736,qs),
(643,736,o),
(641,735,o),
(631,739,q),
(626,739,o),
(617,738,o),
(612,738,qs),
(609,738,o),
(603,740,o),
(600,740,qs),
(592,739,o),
(584,728,o),
(579,724,q),
(578,721,o),
(575,717,o),
(575,712,q),
(570,702,o),
(560,683,o),
(556,674,qs),
(554,669,o),
(552,661,o),
(550,656,q),
(546,650,o),
(538,638,o),
(537,630,q),
(532,625,o),
(527,612,o),
(523,606,q),
(521,601,o),
(514,591,o),
(513,587,qs),
(511,573,o),
(508,557,o),
(503,549,qs),
(497,541,o),
(493,535,qs),
(490,530,o),
(486,523,o),
(484,518,qs),
(482,514,o),
(477,508,o),
(475,504,qs),
(473,501,o),
(473,495,o),
(472,492,q),
(470,489,o),
(467,483,o),
(465,481,q),
(457,465,o),
(440,430,o),
(435,412,q),
(427,395,o),
(409,363,o),
(400,346,qs),
(398,342,o),
(392,335,o),
(391,332,qs),
(389,326,o),
(392,312,o),
(391,307,q),
(391,300,o),
(389,294,qs),
(385,283,o),
(365,272,o),
(357,264,q),
(352,254,o),
(344,234,o),
(334,218,qs),
(330,212,o),
(326,199,o),
(317,187,q),
(315,183,o),
(312,175,o),
(310,170,qs),
(306,162,o),
(298,147,o),
(294,139,qs),
(292,135,o),
(287,128,o),
(285,124,qs),
(280,114,o),
(272,97,o),
(268,88,qs),
(266,85,o),
(261,79,o),
(259,75,q),
(257,73,o),
(258,70,o),
(251,60,qs),
(249,57,o),
(248,50,o),
(246,47,qs),
(244,44,o),
(240,39,o),
(239,36,qs),
(237,31,o),
(237,18,o),
(236,13,q),
(238,8,o),
(246,5,o),
(247,0,q),
(264,-2,o),
(296,-5,o),
(310,-7,q),
(324,6,o),
(338,40,o),
(347,57,q),
(352,63,o),
(358,80,o),
(362,88,qs),
(364,91,o),
(369,97,o),
(371,100,qs),
(373,103,o),
(375,111,o),
(377,114,q),
(389,140,o),
(414,191,o),
(423,220,q),
(432,236,o),
(445,270,o),
(455,286,q),
(456,291,o),
(460,297,o),
(462,300,q),
(463,303,o),
(464,310,o),
(465,313,qs),
(470,324,o),
(480,342,o),
(482,353,qs),
(483,357,o),
(482,365,o),
(484,369,q),
(486,378,o),
(495,386,q),
(499,391,o),
(508,398,o),
(513,401,q),
(515,409,o)
);
},
{
closed = 1;
nodes = (
(626,685,o),
(619,674,o),
(609,665,o),
(605,664,q),
(603,667,o),
(596,665,o),
(593,663,q),
(591,677,o),
(611,695,o),
(623,700,q),
(627,696,o)
);
},
{
closed = 1;
nodes = (
(288,45,o),
(285,42,o),
(280,42,q),
(275,56,o),
(292,74,o),
(297,83,q),
(302,81,o),
(306,73,o),
(306,62,o),
(303,51,o),
(301,47,q),
(291,47,l)
);
},
{
closed = 1;
nodes = (
(337,116,q),
(342,108,o),
(334,88,o),
(326,92,q),
(326,107,o)
);
},
{
closed = 1;
nodes = (
(351,411,o),
(354,421,qs),
(356,426,o),
(361,441,o),
(361,446,qs),
(360,452,o),
(355,461,o),
(355,466,qs),
(355,473,o),
(362,480,o),
(364,484,q),
(366,495,o),
(362,505,qs),
(360,513,o),
(353,525,o),
(352,532,q),
(342,549,o),
(314,569,o),
(293,573,q),
(310,596,o),
(347,636,o),
(362,659,q),
(360,664,o),
(361,674,o),
(360,680,qs),
(359,684,o),
(354,692,o),
(356,697,qs),
(357,701,o),
(364,710,o),
(361,716,q),
(355,724,o),
(350,724,qs),
(340,725,o),
(318,724,o),
(307,723,qs),
(296,722,o),
(268,723,o),
(257,721,qs),
(246,719,o),
(223,711,o),
(209,712,qs),
(187,714,o),
(168,720,qs),
(165,721,o),
(159,723,o),
(156,724,qs),
(153,725,o),
(145,724,o),
(142,724,qs),
(127,723,o),
(97,723,o),
(83,721,q),
(78,717,o),
(66,712,o),
(62,705,q),
(61,697,o),
(65,687,o),
(65,681,q),
(63,677,o),
(59,670,o),
(60,665,qs),
(62,659,o),
(74,650,o),
(79,650,q),
(81,649,o),
(87,651,o),
(90,652,q),
(98,653,o),
(119,650,o),
(124,652,q),
(128,652,o),
(135,658,o),
(139,660,q),
(141,660,o),
(151,662,o),
(161,655,q),
(168,652,o),
(186,651,o),
(197,652,qs),
(207,652,o),
(227,651,o),
(236,652,qs),
(241,653,o),
(249,654,o),
(252,651,q),
(253,646,o),
(247,639,o),
(244,637,qs),
(234,629,o),
(218,611,o),
(209,602,q),
(210,593,o),
(208,588,qs),
(205,580,o),
(191,579,o),
(183,575,qs),
(180,573,o),
(174,566,o),
(171,563,qs),
(165,557,o),
(156,547,o),
(159,535,q),
(162,529,o),
(169,519,o),
(174,514,qs),
(178,510,o),
(189,499,o),
(195,499,q),
(198,498,o),
(206,501,o),
(208,503,q),
(213,505,o),
(218,514,o),
(225,514,q),
(231,507,o),
(236,485,o),
(236,461,o),
(229,440,o),
(223,434,qs),
(212,423,o),
(174,416,o),
(155,422,q),
(152,424,o),
(146,428,o),
(143,430,q),
(139,428,o),
(137,421,o),
(132,420,qs),
(123,418,o),
(117,438,qs),
(116,440,o),
(108,447,o),
(105,447,q),
(100,449,o),
(94,446,o),
(88,445,q),
(85,439,o),
(76,426,o),
(70,412,o),
(71,398,o),
(78,391,qs),
(82,386,o),
(95,379,o),
(101,374,qs),
(107,370,o),
(121,360,o),
(137,356,qs),
(143,354,o),
(157,349,o),
(163,348,qs),
(172,347,o),
(191,349,o),
(201,348,qs),
(230,345,o),
(288,352,o),
(305,366,q),
(303,380,o),
(322,388,o),
(332,388,q),
(340,392,o)
);
},
{
closed = 1;
nodes = (
(322,648,o),
(325,650,q),
(326,657,o),
(324,678,o),
(332,678,q),
(334,677,o),
(340,669,o),
(341,665,q),
(341,660,o),
(335,654,o),
(333,650,q),
(328,645,o),
(322,634,o),
(314,642,q),
(317,644,o)
);
},
{
closed = 1;
nodes = (
(83,683,o),
(85,692,o),
(90,696,o),
(95,693,q),
(94,689,o),
(94,680,o),
(96,678,q),
(99,680,o),
(106,678,o),
(108,676,q),
(105,668,o),
(88,666,o),
(82,670,q),
(82,673,o)
);
},
{
closed = 1;
nodes = (
(184,529,o),
(186,536,q),
(193,537,o),
(205,532,o),
(211,532,q),
(212,528,o),
(201,517,o),
(198,517,qs),
(193,517,o)
);
},
{
closed = 1;
nodes = (
(200,368,o),
(201,374,o),
(208,379,o),
(214,377,q),
(217,368,o),
(211,364,q),
(205,362,o)
);
},
{
closed = 1;
nodes = (
(247,377,o),
(257,379,qs),
(276,382,o),
(292,389,q),
(290,371,o),
(257,366,o),
(240,365,q),
(231,371,o)
);
},
{
closed = 1;
nodes = (
(42,408,qs),
(41,413,o),
(49,422,o),
(49,425,qs),
(51,437,o),
(43,435,q),
(41,435,o),
(34,427,o),
(33,425,qs),
(31,422,o),
(27,412,q),
(25,409,o),
(20,400,o),
(20,397,q),
(22,391,o),
(32,385,o),
(34,383,qs),
(40,377,o),
(48,368,o),
(55,367,qs),
(61,366,o),
(69,372,o),
(68,378,qs),
(66,384,o),
(50,392,o),
(46,397,qs),
(42,403,o)
);
},
{
closed = 1;
nodes = (
(618,385,o),
(617,381,qs),
(614,373,o),
(626,363,o),
(632,369,qs),
(637,373,o),
(639,381,q),
(645,383,o),
(650,401,o),
(639,401,q),
(634,400,o)
);
},
{
closed = 1;
nodes = (
(795,402,o),
(785,399,qs),
(780,397,o),
(785,387,o),
(790,387,qs),
(796,387,o)
);
},
{
closed = 1;
nodes = (
(833,370,o),
(834,365,qs),
(835,359,o),
(834,338,o),
(843,338,qs),
(849,337,o),
(852,343,o),
(852,353,o),
(849,364,o),
(849,368,q),
(847,375,o),
(848,391,o),
(844,395,qs),
(842,398,o),
(829,400,o),
(815,399,o),
(805,394,o),
(806,389,qs),
(807,384,o),
(822,384,o),
(827,382,q),
(829,377,o)
);
},
{
closed = 1;
nodes = (
(814,79,o),
(815,95,q),
(821,95,o),
(832,96,o),
(837,98,q),
(842,113,o),
(839,149,o),
(841,167,q),
(839,176,o),
(820,176,o),
(813,177,q),
(811,190,o),
(814,215,o),
(813,227,qs),
(812,232,o),
(809,239,o),
(808,243,qs),
(804,257,o),
(812,281,o),
(814,292,qs),
(815,296,o),
(814,301,o),
(813,305,q),
(813,317,o),
(816,340,o),
(815,351,qs),
(814,355,o),
(808,368,o),
(805,369,qs),
(797,373,o),
(779,367,o),
(771,368,qs),
(766,368,o),
(759,373,o),
(754,376,q),
(747,375,o),
(735,374,o),
(728,374,qs),
(724,374,o),
(716,376,o),
(711,376,qs),
(704,376,o),
(677,375,o),
(667,364,qs),
(663,359,o),
(656,355,o),
(654,352,qs),
(652,347,o),
(655,336,o),
(653,330,qs),
(651,325,o),
(638,322,o),
(633,324,q),
(628,319,o),
(620,309,o),
(615,304,q),
(617,294,o),
(608,281,o),
(604,274,q),
(587,263,o),
(551,234,o),
(539,216,qs),
(537,213,o),
(534,205,o),
(530,201,qs),
(524,193,o),
(521,187,q),
(519,176,o),
(522,148,o),
(516,126,q),
(515,115,o),
(527,101,o),
(534,96,q),
(548,97,o),
(574,95,o),
(587,97,qs),
(592,98,o),
(602,102,o),
(614,98,q),
(626,96,o),
(651,98,o),
(665,96,q),
(667,86,o),
(664,67,o),
(667,57,q),
(669,53,o),
(677,48,o),
(677,44,qs),
(678,39,o),
(671,30,o),
(669,25,qs),
(668,20,o),
(669,15,o),
(669,10,q),
(673,5,o),
(682,5,o),
(696,3,qs),
(714,1,o),
(753,6,o),
(768,6,qs),
(779,6,o),
(794,5,o),
(802,8,qs),
(810,11,o),
(811,16,o),
(812,25,qs),
(812,40,o)
);
},
{
closed = 1;
nodes = (
(557,126,o),
(558,118,q),
(554,112,o),
(544,114,o),
(536,122,o),
(536,133,o),
(542,136,q),
(544,128,o)
);
},
{
closed = 1;
nodes = (
(574,113,o),
(571,115,q),
(572,120,o),
(576,124,o),
(585,116,q),
(583,114,o)
);
},
{
closed = 1;
nodes = (
(667,191,qs),
(665,187,o),
(668,182,o),
(666,177,q),
(652,175,o),
(626,174,o),
(612,175,q),
(610,182,o),
(618,191,o),
(623,196,qs),
(634,208,o),
(656,234,o),
(668,247,q),
(670,241,o),
(667,229,o),
(669,223,qs),
(671,219,o),
(677,214,o),
(676,208,qs),
(676,204,o)
);
},
{
closed = 1;
nodes = (
(709,34,o),
(709,28,qs),
(709,24,o),
(703,19,o),
(697,18,o),
(692,24,o),
(694,30,q),
(697,35,o)
);
},
{
closed = 1;
nodes = (
(708,346,o),
(701,345,o),
(697,343,qs),
(691,340,o),
(683,330,o),
(675,334,q),
(673,339,o),
(681,357,o),
(686,359,qs),
(692,361,o),
(707,359,o),
(713,356,q),
(713,348,l)
);
},
{
closed = 1;
nodes = (
(733,344,o),
(730,348,q),
(729,356,o),
(746,356,o),
(745,350,qs),
(744,346,o)
);
},
{
closed = 1;
nodes = (
(785,69,o),
(792,65,q),
(795,58,o),
(784,49,o),
(779,54,q),
(777,60,o)
);
},
{
closed = 1;
nodes = (
(792,89,o),
(790,84,q),
(785,84,o),
(781,88,o),
(779,90,q),
(779,97,o),
(781,110,o),
(782,116,qs),
(783,119,o),
(791,123,o),
(800,123,o),
(807,119,o),
(807,115,q),
(801,113,o),
(790,109,o),
(788,102,q),
(788,97,o)
);
},
{
closed = 1;
nodes = (
(89,356,o),
(80,361,q),
(75,361,o),
(73,354,o),
(78,346,o),
(86,341,o),
(91,343,q),
(93,338,o),
(104,336,o),
(106,341,qs),
(109,348,o),
(98,356,o),
(93,357,qs),
(92,357,o)
);
},
{
closed = 1;
nodes = (
(502,118,o),
(499,130,o),
(493,134,o),
(487,128,q),
(489,117,o),
(482,98,o),
(484,88,qs),
(485,82,o),
(495,72,o),
(500,71,qs),
(505,70,o),
(517,74,o),
(518,79,qs),
(520,87,o),
(507,92,o),
(505,97,qs),
(503,102,o)
);
},
{
closed = 1;
nodes = (
(416,89,o),
(414,96,qs),
(413,101,o),
(406,104,o),
(398,101,o),
(393,93,o),
(395,87,q),
(401,81,o)
);
},
{
closed = 1;
nodes = (
(365,44,o),
(361,36,qs),
(354,20,o),
(337,-9,o),
(321,-19,qs),
(319,-20,o),
(301,-22,o),
(302,-29,qs),
(303,-34,o),
(317,-32,o),
(330,-36,q),
(333,-36,o),
(347,-27,o),
(349,-25,qs),
(354,-21,o),
(356,-13,o),
(359,-9,q),
(360,-6,o),
(364,-2,o),
(366,0,q),
(371,11,o),
(378,34,o),
(383,42,q),
(391,41,o),
(400,60,o),
(395,67,qs),
(390,72,o),
(378,65,o),
(378,57,q),
(368,55,o)
);
},
{
closed = 1;
nodes = (
(846,64,o),
(844,61,qs),
(843,60,o),
(843,57,o),
(836,51,q),
(832,46,o),
(832,31,o),
(834,16,o),
(836,2,o),
(835,-2,q),
(832,-4,o),
(824,-5,o),
(815,-7,o),
(808,-9,o),
(808,-13,qs),
(807,-20,o),
(818,-22,o),
(833,-18,o),
(846,-12,o),
(854,-10,q),
(860,-5,o),
(857,15,o),
(858,26,qs),
(858,34,o),
(858,46,o),
(853,50,q),
(858,48,o),
(864,55,o),
(862,59,qs),
(860,65,o)
);
}
);
width = 899;
}
);
note = threequarters;
unicode = 190;
},
{
glyphname = threesuperior;
layers = (
{
layerId = m01;
shapes = (
{
closed = 1;
nodes = (
(42,718,o),
(43,721,qs),
(44,725,o),
(49,733,o),
(52,735,q),
(55,736,o),
(69,737,o),
(82,739,o),
(91,744,o),
(90,750,qs),
(89,756,o),
(66,758,o),
(60,758,qs),
(37,756,o),
(29,748,qs),
(26,744,o),
(16,722,o),
(18,716,qs),
(19,712,o),
(30,705,o),
(35,707,qs),
(40,708,o)
);
},
{
closed = 1;
nodes = (
(109,758,o),
(104,756,qs),
(98,754,o),
(100,745,o),
(107,739,o),
(115,739,o),
(116,745,qs),
(116,752,o)
);
},
{
closed = 1;
nodes = (
(370,698,o),
(370,691,qs),
(370,685,o),
(378,670,o),
(383,669,qs),
(388,669,o),
(394,678,o),
(397,692,o),
(397,708,o),
(396,715,qs),
(395,724,o),
(385,740,o),
(370,740,q),
(367,732,o),
(378,725,o),
(380,720,q),
(379,714,o)
);
},
{
closed = 1;
nodes = (
(341,411,o),
(344,421,qs),
(346,426,o),
(351,441,o),
(351,446,qs),
(350,452,o),
(345,461,o),
(345,466,qs),
(345,473,o),
(352,480,o),
(353,484,qs),
(354,489,o),
(353,501,o),
(352,505,qs),
(350,513,o),
(343,525,o),
(342,532,q),
(322,566,o),
(283,573,q),
(300,596,o),
(337,636,o),
(352,659,q),
(350,664,o),
(351,674,o),
(350,680,qs),
(349,684,o),
(344,692,o),
(346,697,qs),
(347,701,o),
(353,710,o),
(351,716,q),
(345,724,o),
(340,724,qs),
(330,725,o),
(308,724,o),
(297,723,qs),
(286,722,o),
(258,723,o),
(247,721,qs),
(236,719,o),
(213,711,o),
(199,712,qs),
(178,713,o),
(158,720,qs),
(155,721,o),
(149,723,o),
(145,724,qs),
(142,725,o),
(135,724,o),
(132,724,qs),
(117,723,o),
(87,723,o),
(73,721,q),
(68,717,o),
(55,712,o),
(52,705,q),
(51,697,o),
(54,687,o),
(54,681,q),
(53,677,o),
(49,670,o),
(50,665,qs),
(52,659,o),
(63,650,o),
(69,650,q),
(71,649,o),
(77,651,o),
(80,652,q),
(88,653,o),
(108,650,o),
(114,652,q),
(118,652,o),
(125,658,o),
(129,660,q),
(131,660,o),
(140,662,o),
(151,655,q),
(158,652,o),
(176,651,o),
(186,652,qs),
(197,652,o),
(217,651,o),
(225,652,qs),
(230,653,o),
(239,654,o),
(242,651,q),
(243,646,o),
(237,639,o),
(233,637,q),
(224,629,o),
(208,611,o),
(199,602,q),
(200,593,o),
(198,588,qs),
(195,580,o),
(181,579,o),
(173,575,qs),
(170,573,o),
(164,566,o),
(161,563,qs),
(155,557,o),
(145,547,o),
(148,535,q),
(152,529,o),
(159,519,o),
(164,514,qs),
(168,510,o),
(179,499,o),
(184,499,q),
(187,498,o),
(196,501,o),
(198,503,q),
(203,505,o),
(208,514,o),
(215,514,q),
(221,507,o),
(226,485,o),
(225,461,o),
(219,440,o),
(213,434,qs),
(202,423,o),
(164,416,o),
(144,422,q),
(141,424,o),
(136,428,o),
(133,430,q),
(129,428,o),
(127,421,o),
(122,420,qs),
(113,418,o),
(106,438,qs),
(105,440,o),
(97,447,o),
(95,447,q),
(90,449,o),
(84,446,o),
(78,445,q),
(75,439,o),
(66,426,o),
(60,412,o),
(61,398,o),
(68,391,qs),
(72,386,o),
(85,379,o),
(91,374,qs),
(96,370,o),
(111,360,o),
(127,356,qs),
(133,354,o),
(146,349,o),
(153,348,qs),
(162,347,o),
(181,349,o),
(190,348,qs),
(219,345,o),
(277,352,o),
(295,366,q),
(293,380,o),
(312,388,o),
(322,388,q),
(330,392,o)
);
},
{
closed = 1;
nodes = (
(311,648,o),
(314,650,q),
(316,657,o),
(313,678,o),
(322,678,q),
(324,677,o),
(330,669,o),
(331,665,q),
(331,660,o),
(325,654,o),
(323,650,q),
(318,645,o),
(311,634,o),
(304,642,q),
(307,644,o)
);
},
{
closed = 1;
nodes = (
(73,683,o),
(75,692,o),
(80,696,o),
(85,693,q),
(84,689,o),
(84,680,o),
(86,678,q),
(92,681,o),
(97,676,q),
(95,668,o),
(78,666,o),
(72,670,q),
(72,673,o)
);
},
{
closed = 1;
nodes = (
(174,529,o),
(176,536,q),
(182,537,o),
(195,532,o),
(201,532,q),
(202,528,o),
(190,517,o),
(187,517,qs),
(182,517,o)
);
},
{
closed = 1;
nodes = (
(189,368,o),
(190,374,o),
(198,379,o),
(204,377,q),
(207,368,o),
(201,364,q),
(194,362,o)
);
},
{
closed = 1;
nodes = (
(236,377,o),
(247,379,qs),
(264,382,o),
(282,389,q),
(280,371,o),
(247,366,o),
(229,365,q),
(221,371,o)
);
},
{
closed = 1;
nodes = (
(32,408,qs),
(31,413,o),
(39,422,o),
(39,425,qs),
(41,437,o),
(33,435,q),
(31,435,o),
(24,427,o),
(23,425,q),
(20,422,o),
(16,412,q),
(10,404,o),
(10,397,qs),
(11,391,o),
(22,385,o),
(24,383,qs),
(30,377,o),
(38,368,o),
(45,367,qs),
(59,365,o),
(57,378,q),
(55,384,o),
(40,392,o),
(36,397,qs),
(32,403,o)
);
},
{
closed = 1;
nodes = (
(79,356,o),
(70,361,q),
(64,361,o),
(63,354,o),
(68,346,o),
(76,341,o),
(81,343,q),
(83,338,o),
(94,336,o),
(96,341,qs),
(98,348,o),
(88,356,o),
(83,357,qs),
(82,357,o)
);
}
);
width = 408;
}
);
note = threesuperior;
unicode = 179;
},
{
glyphname = twosuperior;
layers = (
{
layerId = m01;
shapes = (
{
closed = 1;
nodes = (
(95,761,o),
(82,749,o),
(78,745,q),
(76,737,o),
(61,728,o),
(62,719,q),
(73,720,o),
(86,736,o),
(98,737,q),
(108,732,o),
(122,744,o),
(122,755,q),
(124,757,o),
(131,759,o),
(131,763,qs),
(130,772,o),
(115,764,o),
(112,763,q),
(105,763,l)
);
},
{
closed = 1;
nodes = (
(330,428,o),
(328,426,q),
(313,423,o),
(295,436,q),
(292,437,o),
(284,434,o),
(281,434,qs),
(263,433,o),
(229,432,o),
(215,433,q),
(217,442,o),
(230,452,o),
(238,457,qs),
(247,462,o),
(254,471,qs),
(262,479,o),
(279,489,o),
(281,502,q),
(285,505,o),
(293,512,o),
(300,510,q),
(323,529,o),
(355,588,o),
(352,622,qs),
(351,630,o),
(348,647,o),
(345,655,qs),
(342,663,o),
(333,676,o),
(328,681,qs),
(323,688,o),
(317,695,q),
(302,708,o),
(282,720,q),
(276,722,o),
(265,726,o),
(259,728,qs),
(254,730,o),
(242,734,o),
(237,735,qs),
(220,737,o),
(189,740,o),
(171,739,qs),
(157,737,o),
(134,732,o),
(127,717,q),
(123,711,o),
(106,704,o),
(98,710,q),
(87,704,o),
(68,685,o),
(53,669,q),
(51,666,o),
(49,657,q),
(45,649,o),
(45,645,qs),
(45,640,o),
(48,635,o),
(50,631,qs),
(55,624,o),
(66,606,o),
(75,604,qs),
(85,601,o),
(100,613,o),
(108,618,qs),
(113,622,o),
(122,629,o),
(127,633,qs),
(143,645,o),
(174,668,o),
(198,669,q),
(200,671,o),
(204,675,o),
(209,675,q),
(212,672,o),
(208,666,o),
(209,662,qs),
(209,658,o),
(214,651,o),
(216,646,qs),
(224,620,o),
(213,596,q),
(202,585,o),
(180,566,o),
(169,556,q),
(169,548,o),
(156,527,o),
(141,527,q),
(127,514,o),
(93,494,o),
(75,472,q),
(69,470,o),
(49,450,o),
(49,441,qs),
(49,436,o),
(56,424,o),
(56,419,qs),
(55,412,o),
(47,399,o),
(46,392,qs),
(46,390,o),
(49,384,o),
(48,380,q),
(53,377,o),
(61,365,o),
(67,360,q),
(69,359,o),
(72,359,o),
(80,353,qs),
(82,352,o),
(89,352,o),
(91,351,q),
(96,351,o),
(102,349,q),
(107,349,o),
(113,351,o),
(118,352,qs),
(126,353,o),
(147,353,o),
(158,353,q),
(162,352,o),
(168,351,o),
(172,351,qs),
(177,351,o),
(193,354,o),
(209,353,q),
(212,354,o),
(216,360,o),
(219,361,qs),
(233,368,o),
(259,358,o),
(269,353,q),
(286,355,o),
(321,352,o),
(336,353,qs),
(347,354,o),
(356,365,qs),
(362,372,o),
(362,385,o),
(364,397,qs),
(365,408,o),
(365,426,o),
(359,431,q),
(353,432,o),
(344,433,o),
(339,432,qs),
(335,431,o)
);
},
{
closed = 1;
nodes = (
(287,558,o),
(294,563,q),
(296,577,o),
(303,579,q),
(306,589,o),
(308,611,o),
(311,621,qs),
(313,626,o),
(320,635,o),
(326,631,qs),
(331,628,o),
(331,605,o),
(329,597,qs),
(326,586,o),
(314,563,o),
(307,556,q),
(301,547,o),
(284,536,o),
(276,528,q),
(276,523,o),
(269,518,o),
(264,520,q),
(260,526,o),
(268,533,o),
(271,538,q),
(277,543,o)
);
},
{
closed = 1;
nodes = (
(243,487,o),
(234,486,q),
(227,494,o),
(244,507,o),
(251,505,q),
(249,498,o)
);
},
{
closed = 1;
nodes = (
(113,644,o),
(108,642,q),
(103,637,o),
(92,631,o),
(87,626,q),
(82,628,o),
(77,631,o),
(75,634,qs),
(68,643,o),
(75,658,o),
(96,655,q),
(103,655,o),
(117,666,o),
(123,668,q),
(125,670,o),
(135,666,o),
(136,662,qs),
(136,658,o),
(126,653,o),
(124,651,q),
(119,648,o)
);
},
{
closed = 1;
nodes = (
(71,384,o),
(67,385,q),
(66,395,o),
(75,409,o),
(77,416,qs),
(80,425,o),
(71,438,o),
(73,449,q),
(79,451,o),
(85,455,o),
(91,446,qs),
(97,435,o),
(91,410,o),
(86,399,q),
(87,397,o),
(90,394,o),
(95,384,q),
(96,378,o),
(81,372,o),
(75,377,qs),
(72,379,o)
);
},
{
closed = 1;
nodes = (
(332,370,o),
(317,370,qs),
(312,370,o),
(301,368,o),
(303,382,q),
(308,386,o),
(321,385,o),
(326,387,q),
(332,391,o),
(341,405,o),
(349,400,q),
(353,391,o),
(342,382,o),
(341,375,q),
(339,374,o)
);
},
{
closed = 1;
nodes = (
(369,597,o),
(370,587,o),
(375,581,o),
(381,582,qs),
(387,584,o),
(392,599,o),
(390,607,qs),
(389,610,o),
(386,615,o),
(385,620,qs),
(385,625,o),
(386,633,o),
(385,638,qs),
(383,645,o),
(375,657,o),
(369,658,q),
(367,655,o),
(370,648,o),
(370,645,q),
(372,639,o),
(372,622,o),
(371,614,qs),
(371,609,o)
);
},
{
closed = 1;
nodes = (
(373,461,o),
(359,452,q),
(361,447,o),
(374,444,o),
(381,446,q),
(385,444,o),
(386,433,o),
(386,420,o),
(387,410,o),
(392,409,qs),
(396,408,o),
(403,417,o),
(407,429,o),
(408,442,o),
(408,447,qs),
(406,462,o)
);
},
{
closed = 1;
nodes = (
(38,366,o),
(33,369,q),
(32,374,o),
(32,378,o),
(30,380,q),
(26,382,o),
(22,377,o),
(20,369,o),
(20,361,o),
(24,351,qs),
(26,345,o),
(25,336,o),
(31,334,qs),
(37,332,o),
(58,335,o),
(59,339,qs),
(61,347,o),
(49,348,o),
(44,350,q),
(45,358,o)
);
},
{
closed = 1;
nodes = (
(370,341,o),
(374,339,qs),
(380,337,o),
(386,344,o),
(386,351,o),
(381,357,o),
(375,355,qs),
(370,353,o)
);
}
);
width = 428;
}
);
note = twosuperior;
unicode = 178;
},
{
glyphname = brokenbar;
layers = (
{
layerId = m01;
shapes = (
{
closed = 1;
nodes = (
(74,435,o),
(79,435,qs),
(87,435,o),
(107,433,o),
(115,438,qs),
(121,442,o),
(125,459,o),
(126,479,o),
(126,500,o),
(126,508,qs),
(126,511,o),
(128,517,o),
(127,519,q),
(127,523,o),
(122,530,o),
(122,535,q),
(124,546,o),
(128,573,o),
(127,588,qs),
(127,590,o),
(125,592,o),
(125,600,qs),
(125,606,o),
(123,616,o),
(123,622,qs),
(123,643,ls),
(123,651,o),
(125,665,o),
(123,682,qs),
(122,696,o),
(126,727,o),
(115,735,q),
(95,736,o),
(57,740,o),
(45,726,q),
(45,722,o),
(39,713,o),
(38,708,qs),
(36,697,o),
(36,672,o),
(34,660,qs),
(33,653,o),
(30,636,o),
(32,629,qs),
(34,624,o),
(47,613,o),
(46,606,qs),
(45,601,o),
(38,595,o),
(37,592,qs),
(35,581,o),
(33,552,o),
(33,537,q),
(35,527,o),
(35,522,qs),
(36,512,o),
(34,494,o),
(35,483,qs),
(36,474,o),
(36,454,o),
(38,447,q),
(40,444,o),
(49,436,o),
(52,435,qs),
(59,433,o)
);
},
{
closed = 1;
nodes = (
(71,501,o),
(76,502,q),
(78,500,o),
(78,492,o),
(84,492,q),
(89,478,o),
(85,473,qs),
(82,469,o),
(73,468,o),
(65,472,o),
(59,480,o),
(61,486,qs),
(62,489,o)
);
},
{
closed = 1;
nodes = (
(125,133,o),
(125,141,qs),
(125,144,o),
(127,151,o),
(127,154,qs),
(128,159,o),
(125,170,o),
(125,176,qs),
(125,181,o),
(126,192,o),
(126,198,qs),
(126,206,o),
(127,220,o),
(127,226,qs),
(127,229,o),
(125,234,o),
(125,239,q),
(123,251,o),
(123,279,o),
(117,287,qs),
(112,294,o),
(83,299,o),
(75,297,q),
(73,297,o),
(69,294,o),
(56,294,q),
(50,293,o),
(39,278,o),
(39,264,qs),
(39,258,o),
(37,245,o),
(38,237,qs),
(38,226,o),
(39,205,o),
(40,196,qs),
(40,189,o),
(38,177,o),
(38,172,qs),
(39,163,o),
(52,144,o),
(50,135,qs),
(49,128,o),
(42,121,o),
(40,115,q),
(44,104,o),
(40,81,o),
(41,69,qs),
(42,55,o),
(42,28,o),
(43,14,q),
(47,9,o),
(52,1,o),
(57,-2,q),
(68,0,o),
(90,-5,o),
(101,-3,qs),
(108,-2,o),
(123,2,o),
(125,7,q),
(127,9,o),
(125,17,o),
(126,20,qs),
(128,29,o),
(129,47,o),
(127,54,qs),
(126,58,o),
(121,68,o),
(122,73,qs),
(122,77,o),
(126,83,o),
(127,97,q),
(128,99,o),
(128,105,o),
(129,108,q),
(129,116,o)
);
},
{
closed = 1;
nodes = (
(89,185,q),
(82,192,o),
(84,212,o),
(82,222,qs),
(81,227,o),
(78,238,o),
(84,243,qs),
(86,245,o),
(93,250,o),
(96,249,q),
(99,247,o),
(99,240,o),
(101,237,q),
(102,233,o),
(105,227,o),
(106,224,qs),
(108,214,o),
(105,197,o),
(103,188,q),
(93,186,o)
);
}
);
width = 180;
}
);
note = brokenbar;
unicode = 166;
},
{
glyphname = minus;
layers = (
{
layerId = m01;
shapes = (
{
closed = 1;
nodes = (
(530,439,o),
(518,444,q),
(508,442,o),
(482,445,o),
(471,445,qs),
(466,445,o),
(452,447,o),
(440,446,o),
(430,440,o),
(430,434,q),
(433,431,o),
(443,431,qs),
(460,432,o),
(494,430,o),
(508,425,q),
(513,421,o),
(517,408,o),
(521,402,q),
(525,401,o),
(533,397,o),
(538,399,q),
(543,413,o)
);
},
{
closed = 1;
nodes = (
(465,410,qs),
(444,411,o),
(406,413,o),
(387,409,qs),
(380,407,o),
(368,400,o),
(361,396,q),
(356,398,o),
(347,402,o),
(342,404,qs),
(337,406,o),
(327,412,o),
(322,412,qs),
(305,414,o),
(274,409,o),
(260,414,q),
(256,412,o),
(249,413,o),
(245,413,qs),
(234,414,o),
(212,413,o),
(201,414,qs),
(186,414,o),
(151,412,o),
(134,411,qs),
(123,410,o),
(102,412,o),
(91,412,qs),
(75,413,o),
(46,406,o),
(32,403,q),
(30,400,o),
(24,394,o),
(22,389,qs),
(20,383,o),
(22,369,o),
(22,361,q),
(20,350,o),
(22,331,o),
(27,325,q),
(33,325,o),
(42,317,o),
(47,316,qs),
(57,314,o),
(78,318,o),
(89,317,qs),
(112,317,o),
(164,321,o),
(191,317,q),
(196,320,o),
(202,327,o),
(207,328,qs),
(215,330,o),
(231,320,o),
(239,323,q),
(252,315,o),
(283,319,o),
(298,319,qs),
(306,319,o),
(318,318,o),
(327,318,qs),
(338,319,o),
(361,319,o),
(373,321,qs),
(391,323,o),
(420,322,o),
(439,323,qs),
(451,323,o),
(473,322,o),
(481,323,qs),
(486,324,o),
(500,330,o),
(503,344,qs),
(505,359,o),
(503,396,o),
(488,414,q),
(479,410,o)
);
},
{
closed = 1;
nodes = (
(76,349,o),
(71,345,q),
(67,347,o),
(54,353,o),
(54,358,qs),
(53,363,o),
(64,376,o),
(70,378,qs),
(75,380,o),
(88,381,o),
(93,381,qs),
(98,382,o),
(111,385,o),
(113,381,q),
(112,370,o),
(94,370,o),
(86,366,q),
(81,362,o)
);
},
{
closed = 1;
nodes = (
(142,377,q),
(142,381,o),
(145,384,o),
(152,384,q),
(157,392,o),
(166,386,q),
(171,379,o),
(162,370,o),
(155,369,q),
(148,372,o)
);
},
{
closed = 1;
nodes = (
(517,386,o),
(518,378,qs),
(519,373,o),
(528,371,o),
(538,374,o),
(544,383,o),
(541,389,q),
(536,391,o)
);
},
{
closed = 1;
nodes = (
(154,299,o),
(135,293,o),
(128,294,q),
(126,297,o),
(114,298,o),
(108,298,qs),
(101,298,o),
(86,298,o),
(81,297,qs),
(73,296,o),
(60,294,o),
(54,296,qs),
(47,298,o),
(32,305,o),
(27,297,qs),
(21,289,o),
(38,283,o),
(51,276,q),
(57,274,o),
(68,276,o),
(73,278,q),
(80,279,o),
(93,278,o),
(100,279,qs),
(102,279,o),
(107,281,o),
(119,281,q),
(125,283,o),
(135,288,o),
(141,286,q),
(144,290,o),
(161,287,o),
(162,292,q),
(158,297,l)
);
}
);
width = 562;
}
);
note = minus;
unicode = 8722;
},
{
glyphname = multiply;
layers = (
{
layerId = m01;
shapes = (
{
closed = 1;
nodes = (
(488,212,o),
(480,219,qs),
(465,231,o),
(450,248,q),
(445,250,o),
(440,255,o),
(435,257,q),
(428,267,o),
(408,281,o),
(397,287,q),
(389,298,o),
(369,315,o),
(364,329,q),
(356,336,o),
(336,345,o),
(331,354,q),
(338,365,o),
(358,379,o),
(365,389,qs),
(369,395,o),
(366,413,o),
(372,417,q),
(380,418,o),
(387,423,o),
(392,427,qs),
(403,434,o),
(415,448,o),
(424,458,qs),
(426,461,o),
(432,465,o),
(434,467,qs),
(442,475,o),
(456,489,o),
(462,497,qs),
(468,505,o),
(470,508,qs),
(474,512,o),
(484,521,o),
(493,530,o),
(497,542,o),
(494,549,q),
(488,554,o),
(472,569,o),
(467,575,q),
(465,579,o),
(462,584,o),
(460,586,qs),
(454,593,o),
(437,593,o),
(427,596,q),
(422,595,o),
(414,582,o),
(411,578,qs),
(409,575,o),
(402,570,o),
(400,568,qs),
(398,566,o),
(398,562,o),
(388,555,qs),
(386,553,o),
(383,547,o),
(374,541,q),
(371,537,o),
(368,526,o),
(365,521,qs),
(361,516,o),
(356,509,o),
(351,506,q),
(348,499,o),
(337,489,o),
(332,485,qs),
(327,480,o),
(318,473,o),
(313,469,qs),
(300,458,o),
(275,436,o),
(262,425,q),
(257,431,o),
(244,434,o),
(239,439,q),
(234,442,o),
(228,451,o),
(224,455,qs),
(220,459,o),
(213,466,o),
(208,469,q),
(197,483,o),
(175,508,o),
(164,520,q),
(155,525,o),
(142,544,o),
(134,552,q),
(128,554,o),
(121,563,o),
(109,573,q),
(102,572,o),
(97,579,o),
(93,581,q),
(86,579,o),
(74,585,o),
(66,583,qs),
(62,582,o),
(54,573,o),
(50,570,qs),
(45,565,o),
(32,552,o),
(22,538,o),
(20,521,o),
(30,509,qs),
(35,502,o),
(47,487,o),
(54,482,qs),
(64,474,o),
(83,457,o),
(100,460,q),
(106,452,o),
(110,434,o),
(116,427,qs),
(118,425,o),
(126,420,o),
(129,416,qs),
(134,411,o),
(142,403,o),
(147,399,qs),
(151,396,o),
(156,389,o),
(158,387,qs),
(164,382,o),
(177,375,o),
(181,370,qs),
(183,368,o),
(189,355,o),
(190,353,q),
(191,344,o),
(178,333,o),
(176,325,q),
(168,318,o),
(156,303,o),
(142,290,q),
(140,286,o),
(141,276,o),
(139,271,qs),
(137,266,o),
(118,255,o),
(113,261,q),
(99,252,o),
(75,225,o),
(62,214,qs),
(46,201,o),
(35,173,q),
(33,161,o),
(42,146,o),
(47,141,qs),
(49,139,o),
(55,136,o),
(57,134,qs),
(62,129,o),
(66,126,qs),
(69,123,o),
(80,112,o),
(84,110,qs),
(95,105,o),
(116,118,o),
(126,125,q),
(129,128,o),
(133,135,o),
(135,137,qs),
(140,143,o),
(153,153,o),
(158,159,q),
(160,175,o),
(178,191,o),
(188,199,q),
(189,203,o),
(195,207,o),
(195,212,q),
(200,214,o),
(203,222,o),
(205,226,qs),
(210,234,o),
(223,248,o),
(229,255,q),
(237,261,o),
(251,273,o),
(259,280,q),
(264,270,o),
(284,260,o),
(295,246,qs),
(297,244,o),
(303,240,o),
(305,238,qs),
(309,234,o),
(319,230,o),
(324,226,qs),
(326,224,o),
(329,218,o),
(332,215,qs),
(334,212,o),
(339,208,o),
(341,205,qs),
(345,201,o),
(351,189,o),
(356,186,qs),
(365,182,o),
(382,181,o),
(388,173,q),
(386,167,o),
(392,159,o),
(395,154,q),
(400,153,o),
(408,146,o),
(419,140,qs),
(423,138,o),
(428,131,o),
(431,129,qs),
(433,127,o),
(446,119,o),
(450,119,qs),
(455,119,o),
(465,123,o),
(469,125,qs),
(472,127,o),
(477,134,o),
(480,138,qs),
(482,142,o),
(489,148,o),
(492,153,qs),
(497,159,o),
(502,174,o),
(510,175,q),
(510,182,o),
(505,187,o),
(503,191,q),
(497,199,o)
);
},
{
closed = 1;
nodes = (
(198,404,q),
(189,402,o),
(176,415,o),
(180,422,q),
(190,414,o)
);
},
{
closed = 1;
nodes = (
(227,322,o),
(220,325,q),
(220,330,o),
(225,337,o),
(232,343,o),
(238,350,o),
(245,353,q),
(246,347,o),
(250,337,o),
(247,332,qs),
(244,327,o)
);
},
{
closed = 1;
nodes = (
(280,463,o),
(288,470,qs),
(296,476,o),
(305,496,o),
(310,504,q),
(312,509,o),
(323,515,o),
(321,522,q),
(317,524,o),
(311,522,o),
(307,522,q),
(305,517,o),
(294,512,o),
(290,508,qs),
(288,506,o),
(284,501,o),
(282,499,qs),
(280,497,o),
(271,491,o),
(268,487,q),
(265,485,o),
(257,478,o),
(253,478,q),
(250,479,o),
(247,484,o),
(244,486,qs),
(242,488,o),
(237,487,o),
(224,487,q),
(222,480,o),
(230,475,o),
(232,470,q),
(238,469,o),
(245,457,o),
(250,456,qs),
(258,454,o)
);
},
{
closed = 1;
nodes = (
(286,229,o),
(283,236,q),
(279,235,o),
(273,239,o),
(268,245,o),
(263,250,o),
(260,250,qs),
(255,250,o),
(250,243,o),
(245,243,q),
(242,241,o),
(244,231,q),
(251,230,o),
(257,222,o),
(262,219,qs),
(266,217,o),
(273,215,o),
(278,213,qs),
(284,210,o),
(291,197,o),
(296,191,qs),
(301,186,o),
(316,182,o),
(326,182,q),
(329,188,o),
(324,198,o),
(315,205,o),
(306,212,o),
(305,217,q),
(298,221,o)
);
},
{
closed = 1;
nodes = (
(345,152,o),
(354,147,o),
(364,147,o),
(368,150,q),
(370,156,o),
(364,166,o),
(353,170,o),
(343,169,o),
(341,164,qs),
(339,160,o)
);
},
{
closed = 1;
nodes = (
(69,104,o),
(57,107,o),
(48,105,o),
(47,100,qs),
(47,96,o),
(52,91,o),
(54,89,qs),
(58,84,o),
(65,72,o),
(73,69,qs),
(76,68,o),
(85,70,o),
(90,72,qs),
(95,73,o),
(106,77,o),
(115,82,o),
(118,91,o),
(116,97,q),
(106,98,o),
(90,89,o),
(80,94,q),
(79,97,o)
);
}
);
width = 541;
}
);
note = multiply;
unicode = 215;
},
{
glyphname = exclam;
layers = (
{
layerId = m01;
shapes = (
{
closed = 1;
nodes = (
(64,774,o),
(56,775,q),
(50,769,o),
(39,757,o),
(36,748,q),
(38,743,o),
(34,730,o),
(33,724,qs),
(31,715,o),
(35,690,o),
(35,681,qs),
(36,673,o),
(34,654,o),
(42,652,q),
(46,654,o),
(47,675,o),
(47,683,qs),
(48,713,o),
(54,736,q),
(59,743,o),
(70,755,o),
(78,758,q),
(79,761,o),
(83,765,o),
(86,768,o),
(86,772,o),
(82,774,q),
(76,774,o)
);
},
{
closed = 1;
nodes = (
(72,624,o),
(67,596,q),
(69,583,o),
(77,557,o),
(75,543,q),
(74,540,o),
(72,533,o),
(71,528,qs),
(69,519,o),
(67,507,qs),
(64,491,o),
(64,460,o),
(62,444,qs),
(61,438,o),
(59,426,o),
(59,421,qs),
(59,415,o),
(61,404,o),
(61,398,qs),
(61,393,o),
(59,384,o),
(59,379,qs),
(60,373,o),
(67,359,o),
(68,354,qs),
(69,347,o),
(66,333,o),
(65,326,qs),
(65,316,o),
(70,297,o),
(70,288,qs),
(69,273,o),
(79,259,o),
(87,252,q),
(95,251,o),
(112,251,o),
(120,251,qs),
(126,251,o),
(137,248,o),
(152,250,qs),
(159,250,o),
(171,249,o),
(178,249,q),
(183,250,o),
(196,249,o),
(201,249,qs),
(206,248,o),
(213,248,o),
(217,248,qs),
(225,247,o),
(242,244,o),
(250,245,qs),
(255,246,o),
(265,254,o),
(271,254,qs),
(281,255,o),
(294,244,o),
(300,242,qs),
(306,240,o),
(318,244,o),
(325,241,q),
(330,244,o),
(335,255,o),
(340,258,q),
(344,267,o),
(346,288,o),
(348,297,qs),
(350,309,o),
(351,333,o),
(350,346,qs),
(350,353,o),
(351,368,o),
(351,374,qs),
(352,380,o),
(354,392,o),
(353,397,qs),
(352,402,o),
(346,411,o),
(344,415,qs),
(339,428,o),
(342,442,q),
(345,447,o),
(353,453,o),
(355,458,qs),
(357,461,o),
(355,469,o),
(355,473,qs),
(356,493,o),
(358,527,o),
(358,547,qs),
(358,562,o),
(360,593,o),
(360,607,q),
(359,610,o),
(358,615,o),
(358,618,qs),
(357,629,o),
(359,647,o),
(358,657,qs),
(358,666,o),
(357,685,o),
(359,691,q),
(357,697,o),
(357,711,o),
(355,717,q),
(351,720,o),
(349,729,o),
(344,731,qs),
(340,733,o),
(329,731,o),
(322,731,qs),
(315,731,o),
(305,732,o),
(300,729,q),
(297,726,o),
(293,719,o),
(290,718,qs),
(285,716,o),
(271,720,o),
(266,722,qs),
(260,725,o),
(252,734,o),
(247,736,q),
(224,741,o),
(176,736,o),
(156,741,q),
(146,739,o),
(127,742,o),
(118,741,qs),
(106,741,o),
(92,737,o),
(87,730,qs),
(84,727,o),
(81,719,o),
(79,716,q),
(79,709,o),
(74,700,o),
(73,695,qs),
(69,672,o)
);
},
{
closed = 1;
nodes = (
(318,336,o),
(315,318,q),
(313,312,o),
(314,299,o),
(312,294,q),
(310,292,o),
(302,293,o),
(299,292,q),
(297,294,o),
(291,297,o),
(289,299,q),
(286,308,o),
(289,337,o),
(294,343,qs),
(302,354,o)
);
},
{
closed = 1;
nodes = (
(117,537,o),
(111,539,q),
(112,545,o),
(104,558,o),
(106,566,q),
(109,571,o),
(120,584,o),
(125,582,q),
(128,582,o),
(127,580,o),
(134,569,q),
(136,563,o),
(133,550,o),
(131,543,q),
(126,542,o)
);
},
{
closed = 1;
nodes = (
(162,701,o),
(164,680,q),
(155,675,o),
(136,671,o),
(131,663,qs),
(126,655,o),
(129,633,o),
(114,624,q),
(110,626,o),
(106,635,o),
(106,640,qs),
(105,654,o),
(112,689,o),
(120,699,q),
(131,706,o)
);
},
{
closed = 1;
nodes = (
(40,603,o),
(44,607,o),
(42,612,q),
(35,619,o),
(28,604,o),
(27,597,qs),
(26,583,o),
(26,550,o),
(32,543,qs),
(34,541,o),
(41,537,o),
(42,537,q),
(44,538,o),
(53,550,o),
(53,552,q),
(57,559,o),
(52,563,o),
(50,568,qs),
(49,573,o),
(51,588,o),
(49,592,q),
(42,598,l)
);
},
{
closed = 1;
nodes = (
(325,47,o),
(330,50,q),
(332,60,o),
(343,83,o),
(338,95,q),
(337,100,o),
(326,110,o),
(323,116,qs),
(320,121,o),
(319,130,o),
(318,135,qs),
(316,143,o),
(308,152,o),
(297,165,qs),
(294,168,o),
(287,173,o),
(284,176,qs),
(280,179,o),
(272,185,o),
(269,187,qs),
(264,189,o),
(248,192,o),
(240,196,q),
(232,198,o),
(219,203,o),
(213,204,qs),
(193,207,o),
(155,206,o),
(131,202,qs),
(124,200,o),
(117,194,o),
(112,190,qs),
(109,188,o),
(99,186,o),
(96,184,qs),
(93,182,o),
(89,177,o),
(87,175,qs),
(77,167,o),
(61,147,o),
(60,135,qs),
(59,129,o),
(64,116,o),
(62,109,qs),
(61,104,o),
(52,99,o),
(48,96,q),
(43,84,o),
(44,72,qs),
(46,51,o),
(67,21,o),
(81,9,qs),
(84,7,o),
(90,2,o),
(92,0,qs),
(97,-4,o),
(106,-4,o),
(113,-6,qs),
(122,-8,o),
(139,-16,o),
(150,-18,qs),
(176,-24,o),
(229,-20,o),
(252,-10,q),
(272,-7,o),
(297,12,o),
(311,22,q),
(312,25,o),
(316,29,o),
(318,31,q),
(321,36,o)
);
},
{
closed = 1;
nodes = (
(173,31,o),
(168,30,q),
(163,35,o),
(170,49,o),
(175,51,q),
(178,49,o),
(183,52,o),
(187,51,q),
(189,49,o),
(187,39,o),
(187,36,q),
(183,33,o)
);
},
{
closed = 1;
nodes = (
(264,41,o),
(259,38,qs),
(254,35,o),
(240,24,o),
(225,33,q),
(225,36,o),
(223,41,o),
(226,48,q),
(235,49,o),
(246,62,o),
(254,77,o),
(263,92,o),
(271,96,q),
(275,94,o),
(280,85,o),
(284,83,q),
(284,75,o),
(275,57,o),
(270,51,qs),
(267,46,o)
);
},
{
closed = 1;
nodes = (
(371,111,o),
(365,117,o),
(358,117,o),
(357,113,qs),
(355,107,o),
(360,96,o),
(362,92,q),
(369,90,o),
(374,95,o),
(376,99,q),
(376,102,o)
);
},
{
closed = 1;
nodes = (
(353,42,o),
(348,32,qs),
(346,27,o),
(336,17,o),
(332,13,qs),
(327,8,o),
(318,-2,o),
(313,-5,qs),
(309,-8,o),
(295,-13,o),
(284,-19,o),
(280,-28,o),
(286,-34,q),
(300,-39,o),
(321,-25,o),
(332,-19,q),
(340,-8,o),
(366,10,o),
(369,28,qs),
(371,36,o),
(369,53,o),
(369,63,q),
(366,66,o),
(365,76,o),
(359,73,q),
(357,59,o)
);
}
);
width = 401;
}
);
note = exclam;
unicode = 33;
},
{
glyphname = quotedbl;
layers = (
{
layerId = m01;
shapes = (
{
closed = 1;
nodes = (
(89,740,o),
(62,743,o),
(38,739,o),
(30,726,qs),
(27,722,o),
(22,707,o),
(22,699,q),
(19,676,o),
(26,629,o),
(27,602,qs),
(28,579,o),
(29,542,o),
(34,528,qs),
(36,523,o),
(41,518,o),
(42,513,qs),
(44,504,o),
(40,490,o),
(40,480,qs),
(39,464,o),
(46,435,o),
(50,424,q),
(60,409,o),
(96,406,o),
(113,412,q),
(124,426,o),
(129,467,o),
(131,490,qs),
(132,500,o),
(134,519,o),
(135,528,qs),
(137,544,o),
(137,575,o),
(139,590,qs),
(140,594,o),
(143,600,o),
(143,604,q),
(144,606,o),
(142,611,o),
(145,620,q),
(147,633,o),
(146,657,o),
(144,667,q),
(150,689,o),
(135,725,o),
(127,736,q),
(116,734,o)
);
},
{
closed = 1;
nodes = (
(87,647,o),
(83,639,q),
(80,640,o),
(70,640,q),
(64,648,o),
(56,679,o),
(61,691,q),
(70,692,o),
(94,683,o),
(96,669,qs),
(97,658,o)
);
},
{
closed = 1;
nodes = (
(78,550,o),
(73,545,q),
(64,551,o),
(64,579,o),
(69,590,q),
(74,597,o),
(86,582,o),
(87,574,qs),
(89,563,o)
);
},
{
closed = 1;
nodes = (
(255,740,o),
(228,743,o),
(204,739,o),
(196,726,qs),
(194,722,o),
(188,707,o),
(187,699,qs),
(185,676,o),
(192,629,o),
(194,602,qs),
(195,579,o),
(196,542,o),
(201,528,qs),
(203,523,o),
(207,518,o),
(209,513,qs),
(211,504,o),
(206,490,o),
(206,480,qs),
(206,464,o),
(212,435,o),
(216,424,q),
(227,409,o),
(262,406,o),
(279,412,q),
(290,426,o),
(295,467,o),
(297,490,qs),
(298,500,o),
(301,519,o),
(302,528,qs),
(304,544,o),
(304,575,o),
(306,590,qs),
(306,594,o),
(309,600,o),
(310,604,qs),
(310,606,o),
(309,611,o),
(311,620,qs),
(314,647,o),
(311,667,q),
(316,689,o),
(301,725,o),
(293,736,q),
(282,734,o)
);
}
);
width = 334;
}
);
note = quotedbl;
unicode = 34;
},
{
glyphname = numbersign;
layers = (
{
layerId = m01;
shapes = (
{
closed = 1;
nodes = (
(189,653,o),
(183,671,qs),
(181,677,o),
(187,691,o),
(188,698,qs),
(189,703,o),
(186,710,o),
(187,714,q),
(192,722,o),
(208,726,q),
(208,731,o),
(215,731,o),
(215,736,qs),
(214,742,o),
(203,737,o),
(198,736,qs),
(190,734,o),
(181,736,o),
(179,726,q),
(169,714,o),
(168,679,o),
(166,663,qs),
(165,657,o),
(161,647,o),
(163,639,q),
(171,639,o)
);
},
{
closed = 1;
nodes = (
(547,237,o),
(552,238,qs),
(557,238,o),
(569,232,o),
(577,231,qs),
(582,231,o),
(593,233,o),
(598,234,qs),
(601,234,o),
(608,234,o),
(611,236,qs),
(614,238,o),
(617,243,o),
(622,245,q),
(623,257,o),
(635,283,o),
(632,296,qs),
(631,299,o),
(627,304,o),
(625,307,qs),
(621,314,o),
(614,316,o),
(605,317,qs),
(588,319,o),
(546,323,o),
(528,324,q),
(529,331,o),
(533,343,o),
(531,350,qs),
(530,354,o),
(527,359,o),
(527,362,qs),
(526,368,o),
(532,371,o),
(536,374,q),
(537,391,o),
(544,422,o),
(546,437,qs),
(548,446,o),
(548,464,o),
(551,472,q),
(559,474,o),
(575,471,o),
(584,472,qs),
(588,472,o),
(596,475,o),
(601,475,qs),
(611,475,o),
(632,472,o),
(641,474,qs),
(646,475,o),
(656,480,o),
(658,482,qs),
(661,486,o),
(663,502,o),
(665,508,qs),
(667,513,o),
(672,523,o),
(673,526,qs),
(679,553,o),
(660,559,qs),
(652,562,o),
(628,561,o),
(617,560,qs),
(615,560,o),
(609,562,o),
(606,562,qs),
(603,562,o),
(596,559,o),
(592,559,qs),
(584,559,o),
(570,558,o),
(564,557,q),
(564,566,o),
(570,579,o),
(569,587,q),
(571,594,o),
(576,608,o),
(579,616,qs),
(580,621,o),
(580,630,o),
(580,635,q),
(582,646,o),
(587,667,o),
(589,678,qs),
(590,693,o),
(589,708,q),
(587,715,o),
(574,717,o),
(566,718,qs),
(560,718,o),
(549,721,o),
(544,721,qs),
(539,721,o),
(525,718,o),
(523,715,q),
(514,716,o),
(504,707,o),
(498,691,o),
(495,673,o),
(494,665,qs),
(492,657,o),
(489,641,o),
(487,634,qs),
(486,626,o),
(483,612,o),
(484,607,qs),
(484,602,o),
(489,595,o),
(489,590,q),
(486,582,o),
(475,568,o),
(474,559,q),
(466,559,o),
(450,556,o),
(430,557,qs),
(425,557,o),
(415,555,o),
(410,555,qs),
(402,556,o),
(389,556,o),
(381,556,qs),
(375,556,o),
(362,558,o),
(355,558,qs),
(340,558,o),
(309,553,o),
(295,555,q),
(299,579,o),
(310,631,o),
(313,656,q),
(318,663,o),
(317,677,o),
(318,686,q),
(323,699,o),
(322,707,q),
(320,711,o),
(308,721,o),
(306,722,qs),
(302,723,o),
(295,722,o),
(292,723,q),
(284,723,o),
(265,724,o),
(258,723,qs),
(246,721,o),
(230,714,o),
(222,708,q),
(220,700,o),
(214,691,o),
(213,684,qs),
(212,678,o),
(218,666,o),
(217,658,qs),
(217,655,o),
(214,645,o),
(212,643,qs),
(210,640,o),
(205,637,o),
(204,627,qs),
(203,619,o),
(200,603,o),
(198,595,qs),
(196,584,o),
(194,562,o),
(188,553,q),
(180,552,o),
(159,549,o),
(154,544,q),
(149,545,o),
(145,552,o),
(142,555,q),
(128,553,o),
(105,554,o),
(95,552,qs),
(82,550,o),
(59,544,o),
(52,535,q),
(50,521,o),
(49,493,o),
(46,481,q),
(50,477,o),
(57,468,o),
(62,466,qs),
(70,464,o),
(88,465,o),
(94,464,qs),
(105,463,o),
(124,465,o),
(135,465,qs),
(138,465,o),
(143,464,o),
(146,463,q),
(154,463,o),
(168,467,o),
(175,468,q),
(175,451,o),
(167,423,o),
(165,408,qs),
(163,396,o),
(161,373,o),
(159,360,q),
(154,351,o),
(153,325,o),
(148,314,q),
(128,314,o),
(94,311,o),
(77,309,qs),
(69,309,o),
(51,310,o),
(46,307,q),
(42,310,o),
(31,305,o),
(29,302,qs),
(27,300,o),
(27,292,o),
(26,288,qs),
(23,273,o),
(11,237,o),
(20,223,q),
(27,215,o),
(45,215,o),
(56,216,qs),
(75,218,o),
(114,218,o),
(131,218,q),
(131,198,o),
(123,163,o),
(120,146,qs),
(118,135,o),
(116,113,o),
(114,101,qs),
(113,93,o),
(112,80,o),
(110,74,qs),
(109,69,o),
(105,59,o),
(105,54,qs),
(104,48,o),
(113,37,o),
(118,35,qs),
(129,32,o),
(154,34,o),
(162,36,qs),
(167,37,o),
(177,35,o),
(182,36,qs),
(190,37,o),
(201,46,o),
(209,47,q),
(210,59,o),
(220,79,o),
(218,91,qs),
(217,95,o),
(213,101,o),
(213,106,qs),
(213,114,o),
(222,123,o),
(224,130,q),
(226,153,o),
(238,201,o),
(240,226,q),
(283,231,o),
(376,232,o),
(423,230,q),
(423,216,o),
(414,190,o),
(411,166,qs),
(411,162,o),
(408,156,o),
(407,152,qs),
(403,138,o),
(399,109,o),
(396,94,qs),
(394,86,o),
(387,67,o),
(390,56,q),
(397,53,o),
(407,44,o),
(415,42,qs),
(418,41,o),
(426,42,o),
(440,39,q),
(443,39,o),
(453,41,o),
(458,42,qs),
(463,43,o),
(471,43,o),
(476,45,qs),
(481,47,o),
(491,68,o),
(493,73,qs),
(494,76,o),
(492,83,o),
(493,87,q),
(494,101,o),
(498,125,o),
(500,137,qs),
(505,162,o),
(512,207,o),
(518,230,q),
(523,231,o),
(530,228,o),
(535,229,qs),
(540,229,o)
);
},
{
closed = 1;
nodes = (
(453,428,o),
(449,426,q),
(451,418,o),
(443,400,o),
(449,386,qs),
(453,376,o),
(450,366,qs),
(449,362,o),
(443,357,o),
(441,354,qs),
(438,347,o),
(434,332,o),
(431,322,q),
(427,319,o),
(419,319,o),
(414,318,qs),
(408,316,o),
(391,311,o),
(384,311,q),
(371,309,o),
(359,311,q),
(353,311,o),
(341,316,o),
(333,315,qs),
(315,314,o),
(276,313,o),
(256,313,q),
(256,324,o),
(264,342,o),
(262,351,q),
(262,355,o),
(259,361,o),
(259,365,qs),
(260,369,o),
(263,374,o),
(272,384,q),
(274,405,o),
(280,448,o),
(287,468,q),
(304,472,o),
(331,470,o),
(346,475,qs),
(352,477,o),
(362,485,o),
(370,484,qs),
(375,483,o),
(380,474,o),
(385,472,qs),
(390,470,o),
(397,472,q),
(413,472,o),
(445,475,o),
(459,473,q),
(459,464,o),
(454,448,o),
(452,439,q),
(452,435,o)
);
},
{
closed = 1;
nodes = (
(677,461,o),
(672,455,q),
(662,447,o),
(640,448,o),
(628,446,qs),
(623,445,o),
(614,444,o),
(609,446,q),
(608,444,o),
(609,440,o),
(617,432,q),
(627,430,o),
(647,431,o),
(656,429,qs),
(664,428,o),
(677,424,o),
(682,429,qs),
(684,432,o),
(687,437,o),
(689,439,q),
(687,445,o),
(698,459,o),
(698,467,qs),
(698,472,o),
(692,485,o),
(686,483,q),
(681,477,o)
);
},
{
closed = 1;
nodes = (
(36,420,o),
(44,424,o),
(49,424,q),
(60,426,o),
(83,429,o),
(85,440,q),
(82,443,o),
(67,442,o),
(51,441,o),
(37,444,o),
(36,451,qs),
(35,454,o),
(36,458,o),
(35,462,q),
(30,463,o),
(23,469,o),
(18,468,qs),
(14,467,o),
(11,456,o),
(10,451,qs),
(8,428,o),
(26,424,q),
(31,421,l)
);
},
{
closed = 1;
nodes = (
(297,439,o),
(297,434,q),
(296,431,o),
(298,425,o),
(298,421,qs),
(297,413,o),
(291,393,o),
(296,385,q),
(302,384,o),
(310,392,o),
(314,395,q),
(316,401,o),
(323,414,o),
(323,422,q),
(324,427,o),
(332,432,o),
(341,436,o),
(349,440,o),
(349,452,q),
(341,456,o),
(320,454,o),
(309,455,q),
(304,453,o)
);
},
{
closed = 1;
nodes = (
(379,452,o),
(377,449,qs),
(373,441,o),
(386,435,o),
(404,436,o),
(416,445,o),
(411,452,q),
(401,456,o),
(394,455,qs),
(391,455,o)
);
},
{
closed = 1;
nodes = (
(612,219,o),
(608,213,o),
(605,205,o),
(604,202,q),
(604,205,o),
(600,205,o),
(595,212,q),
(592,214,o),
(579,213,o),
(573,212,qs),
(567,211,o),
(557,207,o),
(552,209,qs),
(549,211,o),
(542,210,o),
(539,210,q),
(531,205,o),
(530,180,o),
(529,170,qs),
(529,163,o),
(527,150,o),
(529,144,q),
(534,142,o),
(538,153,qs),
(539,156,o),
(544,159,o),
(546,162,qs),
(550,170,o),
(550,189,o),
(559,193,q),
(570,191,o),
(599,196,o),
(617,190,q),
(625,190,o),
(637,212,o),
(623,217,q),
(618,221,o)
);
},
{
closed = 1;
nodes = (
(164,23,o),
(161,22,q),
(159,22,o),
(156,19,o),
(147,20,qs),
(143,20,o),
(136,17,o),
(132,16,q),
(118,15,o),
(94,19,o),
(85,25,q),
(85,30,o),
(81,34,o),
(80,37,q),
(85,54,o),
(85,72,q),
(81,73,o),
(77,67,o),
(74,66,q),
(74,58,o),
(70,44,o),
(68,37,qs),
(66,33,o),
(65,25,o),
(63,22,q),
(62,13,o),
(69,2,o),
(73,-4,q),
(78,-7,o),
(90,-4,o),
(95,-4,q),
(99,-6,o),
(109,-3,qs),
(114,-1,o),
(126,-2,o),
(131,-1,qs),
(138,0,o),
(150,4,o),
(156,6,q),
(158,11,o),
(167,11,q),
(167,5,o),
(175,1,o),
(184,2,o),
(190,8,o),
(189,13,qs),
(187,20,o),
(178,18,o),
(173,19,qs),
(169,19,o)
);
}
);
width = 688;
}
);
note = numbersign;
unicode = 35;
},
{
glyphname = dollar;
layers = (
{
layerId = m01;
shapes = (
{
closed = 1;
nodes = (
(214,680,o),
(218,683,qs),
(224,687,o),
(226,705,o),
(227,723,o),
(231,740,o),
(237,744,qs),
(242,748,o),
(258,750,o),
(263,752,qs),
(265,753,o),
(272,759,o),
(272,764,qs),
(272,770,o),
(261,770,o),
(250,772,qs),
(244,773,o),
(229,767,o),
(224,769,q),
(218,766,o),
(219,760,o),
(218,755,qs),
(217,752,o),
(214,745,o),
(213,742,q),
(213,740,o),
(214,734,o),
(214,731,qs),
(214,726,o),
(212,718,o),
(214,706,q),
(214,700,o),
(205,691,o),
(197,684,o),
(194,678,o),
(200,674,q),
(205,677,o)
);
},
{
closed = 1;
nodes = (
(491,275,o),
(484,286,q),
(474,294,o),
(461,313,o),
(453,322,qs),
(441,333,o),
(413,352,o),
(400,362,qs),
(391,370,o),
(371,385,o),
(360,390,q),
(340,406,o),
(313,420,q),
(305,429,o),
(287,442,o),
(279,452,q),
(277,457,o),
(268,467,o),
(266,474,qs),
(263,486,o),
(271,508,o),
(274,517,q),
(282,524,o),
(300,546,o),
(315,549,qs),
(322,550,o),
(334,550,o),
(339,552,qs),
(344,554,o),
(353,567,o),
(359,565,qs),
(364,563,o),
(373,546,o),
(377,544,q),
(391,541,o),
(409,521,o),
(418,512,q),
(425,510,o),
(433,502,o),
(438,498,qs),
(440,496,o),
(444,493,o),
(446,490,q),
(451,487,o),
(462,478,o),
(467,477,qs),
(469,477,o),
(474,479,o),
(484,479,qs),
(495,480,o),
(515,495,o),
(521,500,qs),
(532,507,o),
(534,511,q),
(536,513,o),
(538,523,o),
(537,526,q),
(537,531,o),
(531,539,q),
(528,549,o),
(524,569,o),
(520,578,qs),
(518,582,o),
(515,589,o),
(507,598,q),
(505,604,o),
(498,612,qs),
(490,620,o),
(473,633,o),
(464,639,qs),
(454,646,o),
(426,663,o),
(415,665,qs),
(403,667,o),
(381,671,o),
(370,671,qs),
(366,671,o),
(358,668,o),
(354,670,q),
(350,684,o),
(355,715,o),
(350,727,q),
(338,735,o),
(326,736,qs),
(322,736,o),
(314,734,o),
(310,734,qs),
(306,734,o),
(299,736,o),
(294,736,qs),
(288,735,o),
(273,734,o),
(268,733,qs),
(265,733,o),
(259,735,o),
(257,735,q),
(251,733,o),
(247,720,o),
(246,713,qs),
(246,709,o),
(245,701,o),
(245,697,qs),
(244,693,o),
(243,685,o),
(244,682,q),
(244,680,o),
(249,673,o),
(248,669,qs),
(247,661,o),
(224,658,o),
(209,650,q),
(202,648,o),
(187,646,o),
(180,643,qs),
(175,641,o),
(163,634,o),
(158,631,qs),
(146,625,o),
(134,611,o),
(133,597,q),
(128,593,o),
(122,584,o),
(117,582,qs),
(112,579,o),
(102,579,o),
(97,577,qs),
(88,572,o),
(81,559,o),
(74,551,q),
(73,544,o),
(68,536,o),
(66,530,qs),
(58,510,o),
(57,488,q),
(56,483,o),
(55,475,o),
(55,470,qs),
(55,458,o),
(62,435,o),
(65,426,qs),
(70,409,o),
(79,397,qs),
(84,391,o),
(100,376,o),
(106,370,q),
(109,368,o),
(113,361,o),
(115,359,qs),
(120,354,o),
(131,350,o),
(136,347,q),
(138,344,o),
(145,341,o),
(147,338,q),
(156,333,o),
(179,324,o),
(188,319,qs),
(193,317,o),
(202,313,o),
(205,313,qs),
(210,313,o),
(216,319,o),
(221,317,q),
(227,312,o),
(225,300,o),
(224,292,q),
(231,285,o),
(247,273,o),
(255,266,q),
(262,255,o),
(278,230,o),
(278,213,qs),
(278,208,o),
(273,199,o),
(270,185,q),
(268,180,o),
(257,176,o),
(253,172,q),
(240,167,o),
(220,165,o),
(208,167,qs),
(202,168,o),
(191,173,o),
(185,175,qs),
(175,178,o),
(160,184,o),
(153,189,qs),
(146,195,o),
(134,206,o),
(127,211,qs),
(124,213,o),
(117,213,o),
(115,215,qs),
(112,217,o),
(108,221,o),
(103,221,qs),
(96,222,o),
(79,214,o),
(75,210,qs),
(70,205,o),
(64,193,o),
(59,186,qs),
(57,182,o),
(49,175,o),
(48,172,qs),
(44,159,o),
(52,146,o),
(58,139,qs),
(65,131,o),
(83,112,o),
(92,109,q),
(97,106,o),
(107,105,o),
(112,103,qs),
(118,101,o),
(129,93,o),
(137,95,qs),
(142,96,o),
(154,100,o),
(159,100,qs),
(167,100,o),
(172,88,o),
(175,84,qs),
(177,82,o),
(185,76,o),
(188,74,qs),
(190,72,o),
(198,70,o),
(201,68,q),
(205,67,o),
(212,63,o),
(215,63,qs),
(221,62,o),
(229,65,o),
(237,60,q),
(238,52,o),
(242,40,o),
(244,32,qs),
(245,27,o),
(245,18,o),
(247,14,qs),
(249,7,o),
(260,4,o),
(267,1,qs),
(270,0,o),
(275,-3,o),
(278,-4,qs),
(284,-6,o),
(294,-3,o),
(310,-3,qs),
(316,-3,o),
(329,-1,o),
(336,1,qs),
(341,2,o),
(351,4,o),
(354,8,q),
(356,19,o),
(364,41,o),
(361,54,q),
(367,56,o),
(377,58,o),
(382,60,q),
(388,58,o),
(401,64,o),
(409,62,q),
(414,66,o),
(423,67,o),
(429,69,qs),
(434,71,o),
(444,76,o),
(449,79,qs),
(452,81,o),
(459,83,o),
(462,85,qs),
(473,90,o),
(486,101,o),
(494,109,qs),
(499,114,o),
(506,123,o),
(505,131,q),
(509,135,o),
(512,141,q),
(524,146,o),
(528,157,qs),
(529,162,o),
(527,168,o),
(531,181,q),
(531,183,o),
(531,192,o),
(530,196,qs),
(528,210,o),
(516,234,o),
(511,247,q),
(505,257,o)
);
},
{
closed = 1;
nodes = (
(303,704,o),
(310,701,o),
(315,694,o),
(315,690,q),
(313,684,o),
(306,681,q),
(303,685,o),
(295,690,o),
(296,697,qs),
(297,702,o)
);
},
{
closed = 1;
nodes = (
(102,442,o),
(105,447,q),
(111,453,o),
(119,449,o),
(122,439,o),
(118,429,o),
(112,428,qs),
(104,427,o)
);
},
{
closed = 1;
nodes = (
(115,483,o),
(111,481,q),
(109,484,o),
(99,494,o),
(98,498,qs),
(98,500,o),
(98,507,o),
(99,511,qs),
(100,516,o),
(102,530,o),
(105,535,q),
(107,537,o),
(117,545,o),
(119,545,qs),
(122,545,o),
(126,541,o),
(130,541,q),
(136,527,o),
(125,498,o),
(124,484,q),
(120,483,o)
);
},
{
closed = 1;
nodes = (
(272,62,o),
(276,73,q),
(281,76,o),
(292,72,o),
(296,70,q),
(299,62,o),
(293,39,o),
(285,37,q),
(281,44,o)
);
},
{
closed = 1;
nodes = (
(436,277,o),
(441,274,qs),
(446,271,o),
(446,254,o),
(446,249,q),
(439,242,o),
(422,254,o),
(424,263,qs),
(425,268,o)
);
},
{
closed = 1;
nodes = (
(472,150,o),
(464,141,o),
(455,136,o),
(449,139,qs),
(444,141,o),
(435,154,o),
(437,160,qs),
(439,165,o),
(449,173,o),
(455,180,q),
(455,188,o),
(458,209,o),
(472,216,q),
(477,214,o),
(481,203,o),
(487,190,q),
(488,185,o),
(481,170,o),
(479,165,qs),
(477,161,o)
);
},
{
closed = 1;
nodes = (
(156,646,o),
(159,651,q),
(164,653,o),
(173,656,o),
(175,660,qs),
(178,667,o),
(173,675,o),
(168,674,qs),
(161,673,o),
(152,669,o),
(144,667,qs),
(139,665,o),
(131,661,o),
(129,659,qs),
(121,651,o),
(129,634,o),
(138,634,qs),
(147,635,o)
);
},
{
closed = 1;
nodes = (
(546,501,o),
(541,496,o),
(536,489,o),
(532,482,o),
(534,479,q),
(535,475,o),
(543,476,o),
(551,482,o),
(557,491,o),
(556,496,q),
(547,501,l)
);
},
{
closed = 1;
nodes = (
(489,454,o),
(478,450,qs),
(464,445,o),
(450,459,o),
(441,464,qs),
(436,466,o),
(423,476,o),
(418,474,q),
(417,456,o),
(438,436,o),
(451,430,qs),
(460,425,o),
(471,424,o),
(482,428,qs),
(490,430,o),
(498,435,o),
(503,438,qs),
(510,443,o),
(522,456,o),
(525,464,q),
(523,466,o),
(520,471,o),
(516,472,q),
(506,468,o)
);
},
{
closed = 1;
nodes = (
(193,207,o),
(187,203,q),
(187,194,o),
(211,190,o),
(220,191,qs),
(228,191,o),
(238,199,o),
(243,202,q),
(247,210,o),
(251,233,o),
(247,244,q),
(245,247,o),
(238,254,o),
(234,257,q),
(223,269,o),
(215,274,q),
(213,281,o),
(212,297,o),
(206,298,qs),
(204,298,o),
(201,296,o),
(193,295,q),
(189,293,o),
(184,287,o),
(182,285,q),
(187,272,o),
(207,259,o),
(218,252,q),
(224,244,o),
(222,215,o),
(214,209,q),
(206,207,o)
);
},
{
closed = 1;
nodes = (
(19,204,q),
(16,199,o),
(7,188,o),
(1,175,o),
(-1,161,o),
(7,147,qs),
(13,139,o),
(29,121,o),
(44,120,q),
(42,130,o),
(29,141,o),
(27,152,q),
(22,158,o),
(24,169,o),
(29,181,o),
(34,194,o),
(34,201,q),
(30,205,o)
);
},
{
closed = 1;
nodes = (
(248,-20,o),
(229,-13,o),
(224,-6,q),
(222,5,o),
(221,31,o),
(218,41,q),
(213,46,o),
(191,48,o),
(172,52,q),
(171,46,o),
(177,41,o),
(186,37,o),
(195,34,o),
(198,31,q),
(199,18,o),
(199,0,o),
(198,-12,q),
(201,-15,o),
(204,-25,o),
(208,-28,qs),
(211,-31,o),
(230,-36,o),
(239,-36,qs),
(252,-36,o),
(280,-40,o),
(288,-33,q),
(286,-28,o),
(276,-27,o),
(269,-27,q),
(259,-23,ls)
);
},
{
closed = 1;
nodes = (
(322,-41,o),
(331,-41,o),
(338,-34,o),
(337,-28,q),
(333,-25,o),
(318,-26,o),
(315,-28,q),
(314,-35,o)
);
}
);
width = 566;
}
);
note = dollar;
unicode = 36;
},
{
glyphname = percent;
layers = (
{
layerId = m01;
shapes = (
{
closed = 1;
nodes = (
(44,655,o),
(57,666,q),
(59,669,o),
(62,675,o),
(65,677,q),
(65,694,o),
(76,718,o),
(87,723,q),
(92,728,o),
(101,737,o),
(109,742,qs),
(114,745,o),
(131,754,o),
(120,761,q),
(115,759,o),
(102,755,o),
(98,753,qs),
(87,747,o),
(70,728,o),
(59,723,q),
(51,706,o),
(31,674,o),
(30,651,q),
(26,646,o),
(30,635,o),
(34,635,qs),
(42,635,o)
);
},
{
closed = 1;
nodes = (
(415,296,o),
(421,307,q),
(432,311,o),
(434,336,o),
(439,344,qs),
(441,347,o),
(447,351,o),
(456,360,q),
(464,364,o),
(472,364,q),
(483,376,o),
(508,399,o),
(516,415,q),
(526,423,o),
(540,446,o),
(553,460,q),
(558,464,o),
(565,474,o),
(568,480,q),
(576,487,o),
(589,502,o),
(595,510,qs),
(601,518,o),
(614,533,o),
(618,544,q),
(626,549,o),
(633,563,o),
(639,568,q),
(646,576,o),
(659,589,o),
(664,597,q),
(670,601,o),
(678,612,o),
(683,617,qs),
(696,627,o),
(720,650,o),
(732,662,qs),
(745,673,o),
(767,697,o),
(774,713,q),
(780,713,o),
(783,718,o),
(782,726,o),
(776,733,o),
(773,735,q),
(762,736,o),
(738,739,o),
(725,738,qs),
(717,738,o),
(700,734,o),
(692,734,qs),
(678,734,o),
(661,730,o),
(651,725,q),
(641,711,o),
(599,702,o),
(581,695,qs),
(576,693,o),
(559,694,o),
(554,692,qs),
(550,690,o),
(546,683,o),
(542,681,qs),
(534,677,o),
(520,680,o),
(505,686,o),
(490,694,o),
(482,695,qs),
(477,696,o),
(465,694,o),
(460,694,qs),
(457,694,o),
(451,695,o),
(447,696,q),
(438,696,o),
(419,700,o),
(411,702,q),
(405,705,o),
(396,707,o),
(390,709,qs),
(383,711,o),
(373,718,o),
(367,720,qs),
(351,726,o),
(322,733,o),
(308,738,q),
(298,740,o),
(286,749,o),
(278,751,qs),
(273,753,o),
(263,752,o),
(259,754,q),
(250,752,o),
(227,759,o),
(216,758,qs),
(205,756,o),
(183,750,o),
(174,745,qs),
(161,739,o),
(136,723,o),
(124,717,q),
(123,713,o),
(117,709,o),
(110,698,q),
(106,694,o),
(97,689,o),
(95,684,qs),
(93,678,o),
(93,664,o),
(92,658,qs),
(92,653,o),
(88,647,q),
(85,640,o),
(67,631,o),
(61,625,qs),
(58,621,o),
(56,610,o),
(54,605,qs),
(52,600,o),
(47,592,o),
(46,587,qs),
(44,576,o),
(43,554,o),
(42,544,qs),
(42,535,o),
(46,509,o),
(54,484,o),
(63,463,o),
(69,458,qs),
(72,456,o),
(82,454,o),
(85,452,qs),
(88,450,o),
(94,447,o),
(96,445,qs),
(104,437,o),
(110,415,o),
(118,408,q),
(120,405,o),
(124,403,o),
(126,400,q),
(145,392,o),
(184,376,o),
(209,377,qs),
(219,378,o),
(236,376,o),
(247,377,qs),
(261,378,o),
(286,387,o),
(295,394,q),
(313,400,o),
(342,423,o),
(354,435,qs),
(362,442,o),
(370,458,o),
(377,471,qs),
(388,487,o),
(396,512,q),
(395,523,o),
(400,544,o),
(400,555,q),
(405,561,o),
(404,576,o),
(404,584,qs),
(402,601,o),
(404,637,o),
(397,652,q),
(411,649,o),
(440,639,o),
(456,640,q),
(463,638,o),
(476,638,o),
(484,638,qs),
(495,638,o),
(516,639,o),
(524,640,q),
(527,641,o),
(533,640,o),
(537,640,qs),
(555,642,o),
(587,644,o),
(603,648,q),
(598,642,o),
(592,631,o),
(587,626,qs),
(581,618,o),
(579,615,q),
(576,613,o),
(573,609,o),
(571,606,qs),
(564,598,o),
(552,584,o),
(545,577,qs),
(542,574,o),
(538,567,o),
(535,564,q),
(532,563,o),
(525,555,qs),
(521,550,o),
(510,540,o),
(505,535,q),
(504,527,o),
(496,516,o),
(495,508,q),
(487,502,o),
(486,493,q),
(481,487,o),
(475,474,o),
(470,469,q),
(460,462,o),
(437,450,o),
(429,442,qs),
(420,434,o),
(405,413,o),
(397,402,q),
(390,398,o),
(383,386,o),
(378,380,qs),
(372,372,o),
(359,358,o),
(349,346,q),
(346,339,o),
(335,332,o),
(333,324,q),
(318,309,o),
(294,278,o),
(280,264,q),
(270,250,o),
(246,225,o),
(236,212,q),
(228,204,o),
(216,186,o),
(208,178,qs),
(200,170,o),
(183,157,o),
(174,150,q),
(171,145,o),
(164,137,o),
(160,132,q),
(159,118,o),
(149,98,o),
(143,88,q),
(136,82,o),
(120,79,o),
(111,77,q),
(104,69,o),
(90,53,o),
(83,45,qs),
(81,42,o),
(77,36,o),
(75,33,qs),
(72,29,o),
(61,19,o),
(53,8,o),
(52,-4,o),
(59,-9,q),
(81,-14,o),
(120,-12,o),
(146,-1,q),
(156,5,l),
(158,4,o),
(169,10,q),
(192,39,o),
(240,95,o),
(262,125,q),
(266,127,o),
(270,134,o),
(272,137,q),
(292,156,o),
(307,178,q),
(326,196,o),
(356,236,o),
(377,252,q),
(379,258,o),
(386,264,o),
(390,267,q),
(398,277,o)
);
},
{
closed = 1;
nodes = (
(696,708,o),
(701,710,q),
(716,712,o),
(723,703,q),
(723,695,o),
(711,687,o),
(705,684,qs),
(699,681,o),
(690,677,o),
(686,682,q),
(686,688,o),
(687,693,o),
(689,698,q),
(692,699,o)
);
},
{
closed = 1;
nodes = (
(257,721,o),
(258,709,o),
(250,700,o),
(238,697,o),
(231,702,q),
(231,710,o),
(239,717,o),
(244,720,qs),
(251,725,l)
);
},
{
closed = 1;
nodes = (
(141,683,o),
(146,694,qs),
(151,702,o),
(168,709,o),
(170,715,q),
(177,717,o),
(185,722,o),
(200,714,q),
(188,711,o),
(173,696,o),
(162,678,o),
(152,659,o),
(146,651,q),
(141,650,o),
(137,656,o),
(135,665,o),
(136,675,o),
(137,678,qs),
(138,680,o)
);
},
{
closed = 1;
nodes = (
(227,476,o),
(216,478,qs),
(212,479,o),
(196,488,o),
(190,498,q),
(188,503,o),
(181,511,o),
(179,518,qs),
(177,523,o),
(177,555,o),
(181,569,qs),
(183,577,o),
(185,588,o),
(187,594,q),
(195,608,o),
(215,632,o),
(229,638,q),
(234,639,o),
(245,638,o),
(251,639,qs),
(256,640,o),
(267,647,o),
(272,643,q),
(278,633,o),
(280,608,o),
(282,594,q),
(283,591,o),
(285,585,o),
(285,582,qs),
(287,560,o),
(273,516,o),
(262,504,qs),
(260,502,o),
(253,496,o),
(249,493,qs),
(244,488,o)
);
},
{
closed = 1;
nodes = (
(305,454,o),
(295,448,o),
(285,444,o),
(281,446,qs),
(276,449,o),
(275,460,o),
(278,464,qs),
(280,468,o),
(287,472,o),
(292,475,qs),
(297,479,o),
(302,485,o),
(308,486,qs),
(316,488,o),
(320,469,o),
(314,462,q),
(313,460,o)
);
},
{
closed = 1;
nodes = (
(445,570,q),
(446,578,o),
(451,589,o),
(454,594,qs),
(456,597,o),
(463,603,o),
(466,604,qs),
(472,606,o),
(487,605,o),
(501,606,o),
(510,612,o),
(510,621,q),
(508,622,o),
(502,625,o),
(499,625,qs),
(497,625,o),
(494,622,o),
(482,623,qs),
(476,623,o),
(464,624,o),
(452,626,q),
(448,629,o),
(432,630,o),
(427,628,q),
(424,623,o),
(427,611,o),
(426,594,qs),
(426,591,o),
(427,585,o),
(427,582,qs),
(427,578,o),
(425,570,o),
(428,566,q),
(436,566,o)
);
},
{
closed = 1;
nodes = (
(659,521,o),
(670,532,q),
(675,535,o),
(680,544,o),
(674,555,q),
(671,553,o),
(664,547,o),
(659,544,q),
(650,535,o),
(634,513,o),
(625,506,q),
(619,493,o),
(599,477,o),
(592,460,qs),
(587,446,o),
(569,427,o),
(562,416,q),
(554,412,o),
(540,391,o),
(534,383,qs),
(531,380,o),
(521,373,o),
(521,369,qs),
(521,365,o),
(529,365,o),
(539,374,qs),
(559,394,o),
(598,435,o),
(612,461,q),
(620,469,o),
(637,484,o),
(642,495,q),
(650,501,o)
);
},
{
closed = 1;
nodes = (
(432,524,o),
(436,536,o),
(434,548,o),
(420,544,q),
(418,541,o),
(416,529,o),
(417,523,q),
(423,518,o)
);
},
{
closed = 1;
nodes = (
(791,215,o),
(790,223,qs),
(788,233,o),
(781,249,o),
(778,264,qs),
(771,287,o),
(744,312,o),
(723,333,q),
(716,335,o),
(713,340,q),
(709,341,o),
(704,344,o),
(697,349,q),
(689,347,o),
(672,356,o),
(663,355,qs),
(650,352,o),
(624,344,o),
(611,345,q),
(603,352,o),
(579,359,o),
(566,354,qs),
(562,352,o),
(555,346,o),
(550,346,q),
(542,341,o),
(526,332,o),
(518,326,qs),
(510,320,o),
(497,308,o),
(489,302,q),
(485,293,o),
(471,281,o),
(466,272,qs),
(465,270,o),
(465,266,o),
(459,258,qs),
(454,249,o),
(448,228,o),
(443,218,qs),
(441,214,o),
(438,208,o),
(436,204,q),
(435,199,o),
(435,190,o),
(435,185,q),
(433,179,o),
(430,167,o),
(430,161,qs),
(429,151,o),
(433,133,o),
(435,124,qs),
(436,119,o),
(439,109,o),
(440,103,qs),
(442,92,o),
(445,75,o),
(451,67,qs),
(459,54,o),
(484,43,o),
(498,33,q),
(501,28,o),
(508,18,o),
(508,5,q),
(510,3,o),
(516,-1,o),
(518,-3,q),
(525,-7,o),
(541,-8,o),
(548,-10,qs),
(553,-12,o),
(561,-16,o),
(566,-17,qs),
(573,-19,o),
(585,-22,o),
(591,-24,qs),
(608,-29,o),
(640,-19,o),
(657,-17,q),
(662,-14,o),
(670,-13,o),
(674,-11,qs),
(679,-9,o),
(686,-3,o),
(696,1,q),
(699,3,o),
(708,11,o),
(712,14,qs),
(729,28,o),
(757,60,o),
(767,80,qs),
(772,90,o),
(784,114,o),
(786,125,qs),
(787,133,o),
(788,147,o),
(790,156,q),
(790,160,o),
(792,166,o),
(792,170,qs),
(793,177,o),
(791,189,o),
(791,196,qs),
(791,204,o)
);
},
{
closed = 1;
nodes = (
(658,118,o),
(652,110,qs),
(650,107,o),
(645,104,o),
(643,102,qs),
(639,98,o),
(635,82,o),
(631,76,qs),
(629,73,o),
(623,66,o),
(618,66,qs),
(612,66,o),
(606,78,o),
(600,80,q),
(588,79,o),
(577,92,o),
(569,100,q),
(559,114,o),
(556,136,qs),
(554,147,o),
(558,165,o),
(560,174,qs),
(565,190,o),
(584,220,o),
(595,228,qs),
(602,234,o),
(623,241,o),
(632,241,qs),
(641,241,o),
(656,229,o),
(667,212,o),
(673,192,o),
(674,183,qs),
(675,175,o),
(672,159,o),
(670,148,q),
(665,140,o)
);
},
{
closed = 1;
nodes = (
(701,79,o),
(705,87,qs),
(706,90,o),
(709,95,o),
(710,98,qs),
(712,106,o),
(715,117,o),
(721,119,q),
(724,117,o),
(728,111,o),
(730,109,q),
(732,92,o),
(721,68,o),
(706,66,q),
(703,71,o)
);
},
{
closed = 1;
nodes = (
(737,164,o),
(728,170,q),
(730,185,o),
(743,188,q),
(745,185,o),
(747,179,o),
(751,177,q),
(750,174,o),
(747,170,o),
(745,167,q),
(743,167,o)
);
},
{
closed = 1;
nodes = (
(594,203,o),
(594,198,qs),
(594,195,o),
(598,187,o),
(607,190,qs),
(622,196,o),
(640,193,qs),
(647,191,o),
(648,175,o),
(653,174,q),
(657,182,o),
(654,200,o),
(652,208,q),
(645,218,o),
(628,221,o),
(614,216,qs),
(609,214,o)
);
},
{
closed = 1;
nodes = (
(99,97,o),
(118,103,q),
(121,107,o),
(124,118,o),
(126,123,qs),
(130,131,o),
(141,149,o),
(130,156,q),
(123,156,o),
(119,144,o),
(110,138,qs),
(102,132,o),
(96,124,q),
(92,121,o),
(85,115,o),
(82,112,qs),
(66,100,o),
(42,71,o),
(30,57,qs),
(26,51,o),
(19,35,o),
(26,18,q),
(28,17,o),
(40,22,q),
(45,26,o),
(50,37,o),
(53,42,qs),
(56,47,o),
(69,59,o),
(74,66,qs),
(81,76,o)
);
},
{
closed = 1;
nodes = (
(427,52,q),
(418,58,o),
(413,92,o),
(408,105,q),
(407,110,o),
(400,124,o),
(395,122,q),
(393,115,o),
(387,97,o),
(388,88,qs),
(388,86,o),
(390,80,o),
(391,77,qs),
(392,74,o),
(392,67,o),
(394,65,q),
(395,61,o),
(399,56,o),
(401,53,qs),
(403,50,o),
(402,46,o),
(413,40,q),
(418,36,o),
(424,27,o),
(431,27,q),
(435,19,o),
(457,24,q),
(459,30,o),
(455,36,o),
(452,38,qs),
(440,47,o)
);
}
);
width = 812;
}
);
note = percent;
unicode = 37;
},
{
glyphname = ampersand;
layers = (
{
layerId = m01;
shapes = (
{
closed = 1;
nodes = (
(624,768,o),
(632,767,qs),
(640,766,o),
(661,764,o),
(669,759,qs),
(673,757,o),
(678,750,o),
(688,744,qs),
(693,741,o),
(695,734,o),
(703,735,q),
(708,745,o),
(704,761,o),
(692,773,o),
(677,781,o),
(670,784,q),
(657,784,o),
(637,784,o),
(626,787,q),
(623,785,o),
(616,782,o),
(612,781,qs),
(608,780,o),
(601,781,o),
(599,778,qs),
(597,773,o),
(605,768,o),
(606,768,qs),
(613,766,o)
);
},
{
closed = 1;
nodes = (
(847,378,o),
(838,381,qs),
(831,383,o),
(817,382,o),
(809,383,qs),
(800,383,o),
(778,383,o),
(760,385,qs),
(754,385,o),
(742,382,o),
(735,381,qs),
(731,380,o),
(724,381,o),
(720,380,qs),
(710,379,o),
(689,378,o),
(679,378,q),
(674,379,o),
(663,381,o),
(658,380,qs),
(656,380,o),
(651,378,o),
(639,380,q),
(631,380,o),
(618,378,o),
(612,376,q),
(607,380,o),
(600,375,o),
(597,371,qs),
(595,369,o),
(591,364,o),
(590,362,q),
(589,357,o),
(593,347,o),
(592,343,qs),
(590,338,o),
(591,329,o),
(591,324,qs),
(593,307,o),
(595,268,o),
(594,253,qs),
(593,242,o),
(585,224,o),
(583,215,q),
(578,210,o),
(575,200,o),
(568,195,qs),
(566,193,o),
(559,188,o),
(556,186,qs),
(550,181,o),
(540,174,o),
(542,163,q),
(527,155,o),
(511,154,qs),
(506,154,o),
(498,157,o),
(493,157,qs),
(488,157,o),
(481,153,o),
(476,152,qs),
(472,151,o),
(463,153,o),
(459,153,qs),
(448,152,o),
(425,148,o),
(414,147,qs),
(393,147,o),
(354,149,o),
(339,158,q),
(334,160,o),
(326,168,o),
(321,167,q),
(317,171,o),
(310,177,o),
(308,182,qs),
(304,190,o),
(306,210,o),
(305,218,qs),
(304,235,o),
(306,257,o),
(313,267,qs),
(318,273,o),
(327,276,o),
(335,278,qs),
(338,279,o),
(343,281,o),
(352,281,qs),
(363,282,o),
(380,284,o),
(395,291,qs),
(398,293,o),
(404,301,o),
(409,301,q),
(413,302,o),
(421,294,o),
(425,292,qs),
(432,288,o),
(455,290,o),
(463,291,qs),
(479,293,o),
(501,298,o),
(502,314,qs),
(502,323,o),
(500,337,o),
(500,344,qs),
(500,349,o),
(502,357,o),
(503,361,qs),
(506,382,o),
(499,404,q),
(494,408,o),
(484,418,o),
(478,420,qs),
(471,421,o),
(459,417,o),
(452,418,qs),
(448,418,o),
(442,420,o),
(440,420,qs),
(437,420,o),
(430,418,o),
(426,418,qs),
(411,418,ls),
(400,418,o),
(379,414,o),
(368,416,qs),
(363,417,o),
(355,418,o),
(350,420,q),
(340,422,o),
(333,424,qs),
(322,426,o),
(296,439,o),
(294,459,qs),
(294,463,o),
(290,467,o),
(290,477,qs),
(290,483,o),
(288,496,o),
(290,509,qs),
(291,514,o),
(288,523,o),
(293,538,qs),
(295,545,o),
(296,558,o),
(298,563,qs),
(302,572,o),
(321,581,o),
(332,583,q),
(337,585,o),
(345,587,o),
(350,587,qs),
(355,588,o),
(366,585,o),
(371,586,qs),
(379,587,o),
(394,585,o),
(403,585,q),
(408,587,o),
(411,598,o),
(416,600,qs),
(423,602,o),
(427,593,o),
(430,590,qs),
(435,586,o),
(448,584,o),
(453,582,q),
(456,577,o),
(467,566,o),
(469,561,qs),
(472,554,o),
(472,536,o),
(474,519,o),
(477,505,o),
(483,502,qs),
(487,500,o),
(512,501,o),
(518,502,qs),
(525,503,o),
(538,500,o),
(544,500,qs),
(551,501,o),
(566,504,o),
(571,505,qs),
(578,506,o),
(588,503,o),
(593,505,qs),
(598,507,o),
(604,517,o),
(610,517,q),
(620,515,o),
(639,520,o),
(650,518,qs),
(655,517,o),
(665,508,o),
(670,506,qs),
(675,504,o),
(688,505,o),
(693,506,qs),
(703,507,o),
(723,506,o),
(730,509,qs),
(732,510,o),
(735,512,o),
(745,517,qs),
(750,520,o),
(751,531,o),
(754,536,q),
(752,543,o),
(753,557,o),
(752,564,qs),
(752,572,o),
(747,590,o),
(745,598,qs),
(744,603,o),
(744,611,o),
(742,616,q),
(740,627,o),
(730,647,o),
(726,658,qs),
(719,676,o),
(701,705,o),
(676,716,q),
(667,716,o),
(658,727,o),
(652,729,qs),
(640,733,o),
(609,740,o),
(592,738,qs),
(576,736,o),
(563,733,q),
(559,731,o),
(552,728,o),
(547,727,qs),
(540,725,o),
(523,724,o),
(515,726,qs),
(503,728,o),
(487,744,o),
(479,754,q),
(469,756,o),
(446,752,o),
(433,754,qs),
(429,754,o),
(421,756,o),
(416,756,qs),
(397,754,o),
(359,750,o),
(341,750,qs),
(336,750,o),
(325,745,o),
(313,748,q),
(308,748,o),
(292,743,o),
(288,741,qs),
(285,739,o),
(281,735,o),
(279,733,q),
(271,729,o),
(251,739,o),
(245,742,q),
(236,741,o),
(217,739,o),
(209,740,q),
(199,738,o),
(179,732,o),
(169,731,qs),
(165,731,o),
(157,732,o),
(153,731,qs),
(144,729,o),
(129,723,o),
(124,719,qs),
(118,714,o),
(106,707,o),
(99,702,q),
(89,689,o),
(71,663,o),
(65,645,qs),
(60,632,o),
(57,613,qs),
(55,600,o),
(52,576,o),
(51,559,qs),
(51,551,o),
(52,532,o),
(55,525,qs),
(58,518,o),
(74,507,o),
(75,497,qs),
(76,487,o),
(67,471,o),
(65,464,qs),
(63,455,o),
(70,445,o),
(75,430,qs),
(78,422,o),
(91,407,o),
(95,399,q),
(100,397,o),
(107,390,o),
(113,388,qs),
(119,386,o),
(137,383,o),
(136,375,qs),
(136,371,o),
(126,367,o),
(123,364,qs),
(120,361,o),
(115,353,o),
(111,349,q),
(103,344,o),
(94,333,o),
(89,327,qs),
(84,321,o),
(79,312,o),
(77,305,qs),
(75,298,o),
(70,282,o),
(68,273,qs),
(66,262,o),
(65,238,o),
(65,225,qs),
(63,205,o),
(71,164,o),
(75,147,q),
(80,142,o),
(87,133,o),
(88,125,qs),
(88,120,o),
(85,113,o),
(85,108,qs),
(86,100,o),
(96,85,o),
(97,80,q),
(109,71,o),
(124,48,o),
(135,40,qs),
(141,35,o),
(156,28,o),
(164,24,qs),
(172,20,o),
(185,10,o),
(193,6,qs),
(196,4,o),
(203,0,o),
(216,-4,q),
(224,-8,o),
(234,-9,q),
(240,-11,o),
(251,-12,o),
(256,-13,qs),
(263,-14,o),
(277,-16,o),
(284,-17,qs),
(295,-18,o),
(316,-22,o),
(327,-23,qs),
(331,-23,o),
(336,-22,o),
(339,-22,qs),
(344,-22,o),
(354,-24,o),
(360,-24,qs),
(364,-24,o),
(369,-23,o),
(372,-24,q),
(385,-25,o),
(405,-21,o),
(419,-19,qs),
(433,-18,o),
(462,-13,o),
(475,-11,qs),
(486,-9,o),
(510,-6,o),
(519,-1,q),
(528,-1,o),
(542,4,o),
(549,7,qs),
(560,11,o),
(577,18,o),
(585,26,q),
(590,29,o),
(597,37,o),
(602,39,q),
(606,32,o),
(601,14,o),
(605,7,qs),
(606,5,o),
(618,-1,o),
(623,-1,qs),
(630,-2,o),
(646,1,o),
(654,2,qs),
(660,3,o),
(672,0,o),
(678,0,q),
(681,1,o),
(686,2,o),
(689,3,qs),
(696,4,o),
(717,1,o),
(724,1,qs),
(729,1,o),
(740,3,o),
(755,4,qs),
(761,5,o),
(765,12,o),
(770,14,qs),
(775,16,o),
(794,19,o),
(799,17,q),
(805,9,o),
(820,2,o),
(833,4,q),
(835,5,o),
(842,7,o),
(851,5,q),
(853,6,o),
(865,16,o),
(866,18,qs),
(867,21,o),
(866,27,o),
(870,39,q),
(870,43,o),
(868,52,o),
(867,57,qs),
(866,61,o),
(864,71,o),
(856,81,q),
(855,86,o),
(862,95,o),
(864,99,q),
(865,110,o),
(858,126,o),
(858,134,qs),
(858,139,o),
(859,150,o),
(857,156,q),
(859,164,o),
(862,181,o),
(857,198,qs),
(856,202,o),
(857,211,o),
(855,215,q),
(854,220,o),
(848,229,o),
(848,236,q),
(852,243,o),
(857,257,o),
(862,262,q),
(861,269,o),
(862,283,o),
(862,290,qs),
(861,296,o),
(863,309,o),
(863,315,qs),
(863,326,o),
(857,348,o),
(859,359,q),
(857,369,o)
);
},
{
closed = 1;
nodes = (
(450,386,o),
(461,386,q),
(465,377,o),
(461,354,o),
(441,357,q),
(440,360,o),
(437,366,o),
(435,370,q),
(430,373,o),
(418,372,o),
(420,384,q),
(433,384,o)
);
},
{
closed = 1;
nodes = (
(612,554,o),
(602,550,o),
(591,550,o),
(588,553,q),
(591,561,o),
(606,570,o),
(615,566,q),
(617,561,o)
);
},
{
closed = 1;
nodes = (
(522,565,o),
(525,557,q),
(528,555,o),
(536,555,o),
(544,555,o),
(550,554,o),
(552,551,q),
(552,542,o),
(542,535,o),
(528,533,o),
(512,535,o),
(506,535,q),
(504,540,o),
(505,554,o),
(501,565,qs),
(500,570,o),
(507,590,o),
(512,587,q),
(517,580,o)
);
},
{
closed = 1;
nodes = (
(107,553,o),
(102,554,qs),
(99,555,o),
(93,574,o),
(94,579,qs),
(94,584,o),
(103,592,o),
(108,592,q),
(110,587,o),
(119,573,o),
(117,566,qs),
(116,563,o)
);
},
{
closed = 1;
nodes = (
(111,649,o),
(116,658,qs),
(117,660,o),
(119,663,o),
(124,672,qs),
(126,675,o),
(134,679,o),
(137,681,q),
(142,681,o),
(154,678,o),
(155,673,qs),
(155,668,o),
(144,660,o),
(141,654,q),
(139,652,o),
(138,645,o),
(136,642,qs),
(134,638,o),
(130,632,o),
(130,626,q),
(127,624,o),
(123,619,o),
(119,617,q),
(109,622,o)
);
},
{
closed = 1;
nodes = (
(128,274,o),
(120,276,q),
(118,279,o),
(116,286,o),
(115,289,q),
(115,293,o),
(122,300,o),
(124,308,q),
(126,310,o),
(134,317,o),
(138,321,qs),
(142,324,o),
(149,330,o),
(153,331,q),
(153,331,o),
(165,335,q),
(167,335,o),
(170,333,o),
(173,325,q),
(164,317,o),
(145,299,o),
(150,284,q),
(145,279,o)
);
},
{
closed = 1;
nodes = (
(647,52,o),
(645,55,q),
(645,61,o),
(646,72,o),
(643,76,q),
(646,85,o),
(653,89,q),
(661,81,o),
(670,64,o),
(676,55,q),
(681,53,o),
(694,55,o),
(701,53,q),
(697,39,o),
(666,38,o),
(652,41,q),
(650,44,o)
);
},
{
closed = 1;
nodes = (
(799,256,o),
(801,261,o),
(802,264,q),
(807,264,o),
(814,269,o),
(822,257,q),
(818,249,o),
(804,247,q),
(799,253,l)
);
},
{
closed = 1;
nodes = (
(800,294,o),
(796,296,q),
(788,298,o),
(789,312,o),
(786,319,q),
(784,330,o),
(762,328,o),
(754,339,q),
(757,347,o),
(772,348,o),
(781,349,qs),
(790,351,o),
(813,354,o),
(818,345,qs),
(820,340,o),
(818,328,o),
(820,321,qs),
(821,316,o),
(823,310,o),
(821,303,qs),
(820,298,o)
);
},
{
closed = 1;
nodes = (
(789,571,o),
(791,578,q),
(787,581,o),
(780,588,o),
(773,585,q),
(768,580,o),
(780,562,o),
(786,563,q),
(791,565,o)
);
},
{
closed = 1;
nodes = (
(720,479,o),
(715,480,qs),
(706,481,o),
(690,482,o),
(674,482,q),
(671,479,o),
(681,470,q),
(691,467,o),
(715,463,o),
(729,465,qs),
(734,465,o),
(745,468,o),
(761,471,q),
(766,473,o),
(779,480,o),
(781,482,qs),
(783,485,o),
(782,494,o),
(784,499,qs),
(785,503,o),
(790,509,o),
(790,513,qs),
(791,522,o),
(785,537,o),
(776,536,q),
(770,527,o),
(771,501,o),
(753,493,qs),
(747,490,o),
(738,482,o),
(733,481,qs),
(730,480,o)
);
},
{
closed = 1;
nodes = (
(416,253,o),
(424,263,q),
(421,270,o),
(409,269,o),
(406,264,qs),
(404,260,o)
);
},
{
closed = 1;
nodes = (
(377,247,o),
(391,251,o),
(395,256,q),
(397,265,o),
(382,267,o),
(376,266,qs),
(368,265,o),
(352,262,o),
(347,258,qs),
(344,256,o),
(339,246,o),
(332,239,q),
(332,231,o),
(330,227,q),
(328,216,o),
(337,194,o),
(345,193,qs),
(348,193,o),
(357,199,o),
(357,201,q),
(358,204,o),
(354,211,o),
(350,218,o),
(347,226,o),
(349,231,q),
(354,233,o),
(356,243,o),
(361,245,q),
(369,245,l)
);
},
{
closed = 1;
nodes = (
(130,19,o),
(120,19,q),
(113,24,o),
(104,37,o),
(98,44,qs),
(96,46,o),
(92,50,o),
(90,52,q),
(87,57,o),
(80,63,o),
(77,68,qs),
(72,76,o),
(65,91,o),
(54,103,q),
(49,97,o),
(54,82,o),
(58,77,q),
(59,70,o),
(64,60,o),
(66,53,q),
(70,50,o),
(74,41,o),
(85,30,q),
(88,25,o),
(101,12,o),
(112,9,q),
(116,7,o),
(118,-6,o),
(121,-9,qs),
(126,-16,o),
(149,-18,o),
(158,-14,q),
(158,-8,o),
(151,-4,o),
(147,-2,q),
(143,6,o)
);
},
{
closed = 1;
nodes = (
(683,-26,o),
(670,-26,qs),
(661,-25,o),
(641,-27,o),
(621,-28,o),
(601,-28,o),
(593,-24,q),
(592,-16,o),
(593,-7,o),
(588,-5,qs),
(583,-4,o),
(578,-16,o),
(578,-18,q),
(574,-35,o),
(588,-53,o),
(605,-51,qs),
(613,-50,o),
(632,-43,o),
(641,-41,q),
(643,-41,o),
(647,-42,o),
(656,-39,qs),
(666,-37,o),
(684,-41,o),
(691,-39,q),
(694,-39,o),
(704,-34,o),
(710,-29,o),
(709,-24,o),
(702,-23,qs),
(696,-21,o)
);
},
{
closed = 1;
nodes = (
(180,-29,o),
(185,-35,qs),
(188,-38,o),
(195,-45,o),
(199,-47,qs),
(206,-49,o),
(220,-45,o),
(224,-40,q),
(222,-28,o),
(198,-25,o),
(186,-23,qs),
(183,-22,o)
);
},
{
closed = 1;
nodes = (
(737,-39,o),
(753,-37,o),
(764,-30,o),
(760,-24,q),
(757,-21,o),
(745,-20,o),
(732,-22,o),
(723,-27,o),
(723,-31,qs),
(723,-36,o)
);
}
);
width = 901;
}
);
note = ampersand;
unicode = 38;
},
{
glyphname = quotesingle;
layers = (
{
layerId = m01;
shapes = (
{
closed = 1;
nodes = (
(89,740,o),
(62,743,o),
(38,739,o),
(30,726,qs),
(27,722,o),
(22,707,o),
(22,699,q),
(19,676,o),
(26,629,o),
(27,602,qs),
(28,579,o),
(29,542,o),
(34,528,qs),
(36,523,o),
(41,518,o),
(42,513,qs),
(44,504,o),
(40,490,o),
(40,480,qs),
(39,464,o),
(46,435,o),
(50,424,q),
(60,409,o),
(96,406,o),
(113,412,q),
(124,426,o),
(129,467,o),
(131,490,qs),
(132,500,o),
(134,519,o),
(135,528,qs),
(137,544,o),
(137,575,o),
(139,590,qs),
(140,594,o),
(143,600,o),
(143,604,q),
(144,606,o),
(142,611,o),
(145,620,q),
(147,633,o),
(146,657,o),
(144,667,q),
(150,689,o),
(135,725,o),
(127,736,q),
(116,734,o)
);
},
{
closed = 1;
nodes = (
(87,647,o),
(83,639,q),
(80,640,o),
(70,640,q),
(64,648,o),
(56,679,o),
(61,691,q),
(70,692,o),
(94,683,o),
(96,669,qs),
(97,658,o)
);
},
{
closed = 1;
nodes = (
(78,550,o),
(73,545,q),
(64,551,o),
(64,579,o),
(69,590,q),
(74,597,o),
(86,582,o),
(87,574,qs),
(89,563,o)
);
}
);
width = 167;
}
);
note = quotesingle;
unicode = 39;
},
{
glyphname = parenleft;
layers = (
{
layerId = m01;
shapes = (
{
closed = 1;
nodes = (
(332,715,o),
(343,723,qs),
(348,727,o),
(357,734,o),
(359,740,q),
(363,741,o),
(367,746,o),
(369,749,q),
(377,754,o),
(384,757,o),
(390,764,q),
(395,766,o),
(398,769,o),
(399,772,o),
(402,775,o),
(408,778,q),
(409,788,o),
(409,804,o),
(404,813,q),
(394,818,o),
(370,809,o),
(358,813,q),
(356,812,o),
(344,809,o),
(329,806,o),
(315,804,o),
(313,804,q),
(299,800,o),
(282,794,o),
(269,787,qs),
(258,782,o),
(229,763,o),
(219,755,qs),
(205,742,o),
(171,721,o),
(162,705,qs),
(157,695,o),
(151,677,o),
(146,668,q),
(143,665,o),
(138,656,o),
(134,653,q),
(113,646,o),
(100,613,o),
(93,590,qs),
(90,582,o),
(86,562,o),
(85,554,qs),
(84,549,o),
(82,539,o),
(81,534,qs),
(79,519,o),
(87,496,o),
(85,483,q),
(83,478,o),
(73,472,o),
(70,467,q),
(68,465,o),
(65,456,o),
(63,452,qs),
(58,441,o),
(56,412,o),
(56,397,qs),
(56,381,o),
(56,348,o),
(58,333,qs),
(59,321,o),
(63,300,o),
(65,290,qs),
(66,282,o),
(66,268,o),
(67,261,qs),
(71,231,o),
(91,180,o),
(98,154,q),
(100,152,o),
(102,146,o),
(104,143,q),
(111,139,o),
(126,130,o),
(129,122,qs),
(132,114,o),
(130,99,o),
(133,92,qs),
(135,89,o),
(147,79,o),
(158,76,q),
(164,73,o),
(172,61,o),
(174,56,qs),
(175,52,o),
(174,42,o),
(176,37,qs),
(177,35,o),
(181,29,o),
(183,27,q),
(188,16,o),
(213,2,o),
(221,-5,qs),
(226,-10,o),
(234,-18,o),
(240,-23,qs),
(247,-28,o),
(277,-38,o),
(285,-42,qs),
(292,-46,o),
(321,-51,o),
(354,-55,o),
(384,-57,o),
(393,-58,q),
(400,-57,o),
(407,-44,o),
(408,-29,o),
(403,-14,o),
(397,-10,q),
(383,-4,o),
(373,2,o),
(366,8,o),
(358,17,o),
(347,26,q),
(343,37,o),
(319,65,o),
(312,73,qs),
(310,76,o),
(303,89,o),
(295,103,o),
(287,115,o),
(285,118,q),
(283,129,o),
(271,149,o),
(267,159,qs),
(262,173,o),
(254,204,o),
(251,221,qs),
(248,238,o),
(240,268,o),
(238,283,qs),
(236,297,o),
(233,329,o),
(232,345,qs),
(231,356,o),
(232,379,o),
(232,391,q),
(236,402,o),
(233,426,o),
(234,438,q),
(236,443,o),
(239,451,o),
(240,456,qs),
(241,464,o),
(241,478,o),
(243,486,q),
(243,491,o),
(246,499,o),
(247,503,qs),
(252,524,o),
(264,569,o),
(272,589,qs),
(282,612,o),
(296,655,o),
(308,682,q),
(311,684,o),
(315,693,o),
(319,695,qs),
(324,697,o)
);
},
{
closed = 1;
nodes = (
(88,412,o),
(98,419,q),
(102,414,o),
(110,393,o),
(111,372,o),
(103,358,o),
(91,361,q),
(86,375,o)
);
},
{
closed = 1;
nodes = (
(135,579,o),
(130,580,q),
(126,587,o),
(130,604,o),
(135,608,q),
(141,608,o),
(149,611,o),
(151,603,qs),
(152,598,o),
(147,587,o),
(145,583,q),
(140,582,o)
);
},
{
closed = 1;
nodes = (
(45,237,o),
(43,246,qs),
(39,260,o),
(40,292,o),
(35,306,q),
(24,309,o),
(20,301,q),
(24,296,o),
(22,284,o),
(22,276,qs),
(22,264,o),
(26,239,o),
(28,226,qs),
(30,218,o),
(36,203,o),
(38,194,qs),
(40,184,o),
(41,164,o),
(43,156,q),
(47,150,o),
(48,145,qs),
(53,131,o),
(64,108,o),
(76,106,qs),
(89,105,o),
(88,123,o),
(83,131,qs),
(72,147,o),
(56,187,o),
(51,209,qs),
(49,219,o)
);
},
{
closed = 1;
nodes = (
(119,55,o),
(130,60,q),
(130,65,o),
(128,73,o),
(128,79,q),
(123,83,o),
(113,94,o),
(105,87,q),
(107,76,o)
);
}
);
width = 388;
}
);
note = parenleft;
unicode = 40;
},
{
glyphname = parenright;
layers = (
{
layerId = m01;
shapes = (
{
closed = 1;
nodes = (
(56,40,o),
(44,33,q),
(39,28,o),
(31,22,o),
(29,15,q),
(25,14,o),
(22,9,o),
(19,7,qs),
(11,2,o),
(4,-1,o),
(-2,-9,q),
(-7,-11,o),
(-10,-14,o),
(-12,-16,o),
(-14,-20,o),
(-19,-23,q),
(-20,-33,o),
(-22,-49,o),
(-17,-58,q),
(-12,-61,o),
(-1,-60,o),
(11,-57,o),
(23,-55,o),
(29,-57,q),
(31,-56,o),
(44,-53,o),
(59,-51,o),
(73,-49,o),
(75,-48,q),
(89,-45,o),
(106,-39,o),
(119,-33,qs),
(130,-27,o),
(159,-8,o),
(169,0,qs),
(183,12,o),
(217,35,o),
(226,50,qs),
(231,59,o),
(238,78,o),
(241,88,q),
(245,91,o),
(250,98,o),
(254,101,q),
(275,109,o),
(288,142,o),
(295,165,qs),
(298,174,o),
(301,194,o),
(303,202,qs),
(304,207,o),
(306,217,o),
(307,222,qs),
(309,237,o),
(301,260,o),
(303,271,qs),
(305,278,o),
(315,283,o),
(317,288,q),
(320,291,o),
(323,299,o),
(325,303,qs),
(330,314,o),
(331,343,o),
(331,357,qs),
(332,374,o),
(332,407,o),
(330,423,qs),
(329,434,o),
(324,455,o),
(324,465,qs),
(323,473,o),
(322,486,o),
(321,494,qs),
(316,524,o),
(297,575,o),
(290,601,q),
(288,603,o),
(286,608,o),
(284,611,q),
(277,616,o),
(262,625,o),
(259,633,qs),
(256,641,o),
(258,655,o),
(254,663,qs),
(253,666,o),
(241,676,o),
(230,679,q),
(216,685,o),
(214,699,qs),
(213,704,o),
(214,713,o),
(212,718,qs),
(211,720,o),
(207,726,o),
(205,729,qs),
(200,738,o),
(175,754,o),
(167,761,qs),
(162,765,o),
(153,773,o),
(148,777,qs),
(141,782,o),
(111,793,o),
(103,797,qs),
(96,801,o),
(67,806,o),
(34,810,o),
(3,812,o),
(-5,813,q),
(-12,812,o),
(-19,800,o),
(-20,785,o),
(-15,770,o),
(-10,766,q),
(4,759,o),
(15,753,o),
(22,747,o),
(30,738,o),
(41,729,q),
(44,718,o),
(69,690,o),
(76,682,q),
(79,675,o),
(98,643,o),
(102,637,q),
(105,626,o),
(117,605,o),
(121,596,qs),
(126,583,o),
(133,551,o),
(137,534,qs),
(139,517,o),
(148,487,o),
(151,472,qs),
(153,458,o),
(154,427,o),
(156,411,q),
(156,365,l),
(152,353,o),
(155,329,o),
(153,317,q),
(153,312,o),
(150,304,o),
(148,299,q),
(147,291,o),
(147,276,o),
(145,268,qs),
(144,264,o),
(142,257,o),
(141,252,qs),
(136,230,o),
(124,185,o),
(116,167,qs),
(106,144,o),
(92,99,o),
(80,74,q),
(77,71,o),
(73,61,o),
(68,59,qs),
(64,57,o)
);
},
{
closed = 1;
nodes = (
(300,344,o),
(289,336,q),
(286,340,o),
(279,362,o),
(277,383,o),
(285,397,o),
(297,394,q),
(302,380,o)
);
},
{
closed = 1;
nodes = (
(253,176,o),
(258,175,q),
(262,168,o),
(258,151,o),
(253,146,q),
(247,146,o),
(239,144,o),
(238,153,qs),
(237,158,o),
(240,169,o),
(243,172,q),
(247,173,o)
);
},
{
closed = 1;
nodes = (
(342,518,o),
(344,510,qs),
(349,495,o),
(348,464,o),
(353,450,q),
(364,444,o),
(368,455,q),
(365,460,o),
(366,471,o),
(366,478,qs),
(366,505,o),
(360,528,qs),
(358,536,o),
(352,552,o),
(350,561,qs),
(348,571,o),
(347,591,o),
(344,599,qs),
(343,603,o),
(339,609,q),
(335,623,o),
(323,647,o),
(312,648,qs),
(299,649,o),
(300,631,o),
(304,624,q),
(317,608,o),
(332,568,o),
(337,546,qs),
(339,535,o)
);
},
{
closed = 1;
nodes = (
(269,700,o),
(258,694,q),
(258,689,o),
(260,682,o),
(260,676,q),
(265,673,o),
(275,661,o),
(283,668,q),
(281,679,o)
);
}
);
width = 388;
}
);
note = parenright;
unicode = 41;
},
{
glyphname = asterisk;
layers = (
{
layerId = m01;
shapes = (
{
closed = 1;
nodes = (
(255,724,o),
(249,725,qs),
(246,726,o),
(240,731,o),
(237,730,qs),
(222,727,o),
(187,729,o),
(173,721,q),
(173,706,o),
(175,670,o),
(178,632,o),
(179,595,o),
(177,580,q),
(168,582,o),
(150,585,o),
(134,592,q),
(123,595,o),
(102,595,o),
(92,597,qs),
(79,600,o),
(53,615,o),
(37,611,q),
(35,605,o),
(27,597,o),
(25,591,qs),
(23,584,o),
(24,567,o),
(22,559,qs),
(20,553,o),
(20,544,o),
(22,536,q),
(22,531,o),
(23,523,o),
(23,521,q),
(25,516,o),
(46,507,o),
(51,506,qs),
(53,506,o),
(58,508,o),
(70,506,qs),
(73,506,o),
(78,508,o),
(81,509,q),
(89,509,o),
(104,504,o),
(112,505,qs),
(121,505,o),
(138,507,o),
(148,505,q),
(142,492,o),
(128,475,o),
(121,464,qs),
(113,450,o),
(96,429,o),
(87,416,qs),
(83,411,o),
(72,394,o),
(73,388,qs),
(73,386,o),
(79,378,o),
(86,370,o),
(93,362,o),
(94,361,qs),
(96,359,o),
(101,359,o),
(109,351,q),
(113,349,o),
(120,348,o),
(124,346,qs),
(128,344,o),
(133,340,o),
(137,339,qs),
(150,337,o),
(159,346,q),
(162,363,o),
(176,387,o),
(180,403,q),
(188,420,o),
(200,459,o),
(213,470,q),
(221,464,o),
(231,446,o),
(239,438,q),
(245,421,o),
(267,396,o),
(276,382,qs),
(279,377,o),
(285,365,o),
(291,356,o),
(299,352,o),
(306,354,qs),
(319,357,o),
(338,371,o),
(348,379,qs),
(353,383,o),
(372,394,o),
(373,401,qs),
(373,403,o),
(369,413,o),
(367,415,qs),
(362,421,o),
(347,433,o),
(342,438,q),
(334,449,o),
(313,465,o),
(292,482,o),
(273,500,o),
(266,512,q),
(273,517,o),
(291,516,o),
(300,517,qs),
(305,517,o),
(316,520,o),
(322,520,qs),
(327,521,o),
(338,520,o),
(343,521,qs),
(361,524,o),
(395,536,o),
(413,534,q),
(421,538,o),
(422,556,o),
(420,566,qs),
(418,576,o),
(410,593,o),
(407,599,qs),
(404,604,o),
(401,615,o),
(399,620,qs),
(397,625,o),
(384,638,o),
(379,637,qs),
(377,637,o),
(367,631,o),
(364,629,q),
(352,624,o),
(331,614,o),
(321,612,q),
(302,603,o),
(268,583,o),
(248,575,q),
(243,591,o),
(254,615,o),
(257,629,qs),
(259,637,o),
(259,653,o),
(261,662,qs),
(263,677,o),
(271,706,o),
(271,719,q),
(266,724,o)
);
}
);
width = 442;
}
);
note = asterisk;
unicode = 42;
},
{
glyphname = plus;
layers = (
{
layerId = m01;
shapes = (
{
closed = 1;
nodes = (
(457,411,o),
(447,415,o),
(441,415,qs),
(436,416,o),
(426,414,o),
(421,414,qs),
(407,415,o),
(381,419,o),
(368,418,qs),
(365,418,o),
(358,416,o),
(355,416,qs),
(343,416,o),
(319,418,o),
(307,420,q),
(309,439,o),
(304,475,o),
(303,495,qs),
(303,504,o),
(304,522,o),
(304,531,qs),
(304,534,o),
(302,539,o),
(302,542,qs),
(301,557,o),
(304,589,o),
(296,601,q),
(283,606,o),
(248,613,o),
(231,613,qs),
(208,614,o),
(199,599,q),
(200,584,o),
(207,556,o),
(211,542,q),
(206,533,o),
(197,517,o),
(198,504,qs),
(200,484,o),
(200,444,o),
(198,428,q),
(195,425,o),
(188,415,o),
(183,413,qs),
(181,412,o),
(175,413,o),
(166,410,qs),
(155,405,o),
(142,417,o),
(135,422,q),
(127,420,o),
(111,422,o),
(102,421,qs),
(97,421,o),
(89,419,o),
(84,419,qs),
(73,419,o),
(48,417,o),
(37,416,q),
(35,413,o),
(25,410,o),
(22,407,qs),
(19,403,o),
(13,391,o),
(14,377,qs),
(15,365,o),
(9,346,o),
(11,338,qs),
(13,330,o),
(31,319,o),
(45,319,qs),
(48,319,o),
(54,317,o),
(58,317,qs),
(95,316,o),
(129,317,qs),
(138,317,o),
(157,322,o),
(165,322,qs),
(172,321,o),
(184,317,o),
(190,319,q),
(201,314,o),
(199,297,o),
(197,286,q),
(197,264,ls),
(197,257,o),
(195,239,o),
(197,233,qs),
(199,228,o),
(212,223,o),
(212,215,q),
(211,210,o),
(201,204,o),
(199,199,qs),
(196,191,o),
(196,172,o),
(197,164,qs),
(199,152,o),
(201,135,o),
(208,130,qs),
(216,125,o),
(224,124,qs),
(237,122,o),
(266,120,o),
(279,122,qs),
(283,122,o),
(297,127,o),
(299,130,qs),
(303,134,o),
(306,151,o),
(301,168,q),
(298,188,o),
(301,231,o),
(299,251,q),
(296,254,o),
(290,260,o),
(289,265,q),
(299,277,o),
(298,305,o),
(301,323,q),
(318,326,o),
(351,324,o),
(367,322,qs),
(384,321,o),
(417,316,o),
(429,318,qs),
(437,319,o),
(459,322,o),
(465,324,q),
(471,335,o),
(472,352,qs),
(472,368,o),
(474,397,o),
(467,408,q),
(463,412,l)
);
},
{
closed = 1;
nodes = (
(75,369,o),
(70,373,q),
(61,372,o),
(53,363,o),
(46,361,q),
(44,367,o),
(47,379,o),
(54,388,o),
(63,390,o),
(68,386,q),
(75,387,o),
(95,384,o),
(90,373,q),
(85,371,o)
);
},
{
closed = 1;
nodes = (
(117,379,qs),
(117,382,o),
(122,386,o),
(128,375,q),
(118,375,o)
);
},
{
closed = 1;
nodes = (
(267,339,o),
(266,337,qs),
(265,333,o),
(267,327,o),
(268,323,q),
(268,318,o),
(264,302,o),
(260,302,qs),
(255,302,o),
(256,314,o),
(253,316,q),
(255,327,o),
(247,355,o),
(253,366,qs),
(255,370,o),
(266,379,o),
(270,381,q),
(278,383,o),
(290,377,o),
(295,372,q),
(293,360,o),
(278,358,o),
(271,349,qs),
(269,347,o)
);
},
{
closed = 1;
nodes = (
(171,496,o),
(181,502,q),
(181,510,o),
(173,533,o),
(165,528,qs),
(159,525,o),
(159,506,o),
(158,498,q),
(160,496,o),
(163,492,o),
(166,490,q),
(169,492,o)
);
},
{
closed = 1;
nodes = (
(148,435,o),
(159,432,q),
(168,438,o),
(176,446,q),
(179,461,o),
(176,474,q),
(169,476,o),
(164,472,o),
(161,465,o),
(157,455,o),
(152,451,qs),
(147,447,o),
(136,449,o),
(130,449,q),
(119,447,o),
(105,439,o),
(115,432,q),
(128,433,o)
);
},
{
closed = 1;
nodes = (
(316,298,o),
(316,294,qs),
(316,286,o),
(314,268,o),
(315,256,q),
(320,254,o),
(325,247,o),
(332,249,q),
(335,253,o),
(338,264,o),
(341,276,o),
(345,286,o),
(350,289,q),
(354,290,o),
(367,291,o),
(371,293,q),
(371,297,o),
(370,301,o),
(370,305,q),
(358,311,o),
(334,306,o),
(319,305,q),
(316,303,o)
);
}
);
width = 494;
}
);
note = plus;
unicode = 43;
},
{
glyphname = comma;
layers = (
{
layerId = m01;
shapes = (
{
closed = 1;
nodes = (
(267,168,o),
(261,186,o),
(250,199,o),
(241,200,q),
(234,205,o),
(233,219,o),
(230,226,qs),
(225,237,o),
(206,245,o),
(196,252,q),
(183,254,o),
(159,261,o),
(147,260,qs),
(137,259,o),
(122,255,o),
(114,253,qs),
(109,251,o),
(101,254,o),
(97,252,q),
(95,252,o),
(87,248,o),
(83,246,qs),
(75,241,o),
(63,233,o),
(55,228,qs),
(47,222,o),
(45,220,qs),
(39,214,o),
(33,202,o),
(30,194,qs),
(25,179,o),
(19,143,o),
(22,128,qs),
(24,116,o),
(35,96,o),
(43,90,qs),
(57,77,o),
(110,63,o),
(131,71,q),
(135,61,o),
(130,50,o),
(126,44,q),
(122,34,o),
(120,30,qs),
(115,22,o),
(100,12,o),
(95,7,qs),
(90,1,o),
(89,-10,o),
(93,-21,o),
(101,-31,o),
(104,-34,qs),
(111,-40,o),
(133,-53,o),
(141,-52,qs),
(150,-50,o),
(159,-45,qs),
(163,-43,o),
(171,-39,o),
(175,-36,qs),
(178,-34,o),
(192,-21,o),
(194,-17,qs),
(196,-13,o),
(199,-4,o),
(201,-1,qs),
(205,5,o),
(218,8,o),
(223,12,qs),
(227,15,o),
(239,34,o),
(243,39,qs),
(254,56,o),
(272,108,o),
(270,137,qs),
(270,146,o)
);
},
{
closed = 1;
nodes = (
(67,198,o),
(74,197,qs),
(78,197,o),
(81,191,o),
(85,190,q),
(88,179,o),
(73,170,o),
(67,175,qs),
(60,180,o)
);
},
{
closed = 1;
nodes = (
(87,110,o),
(79,121,q),
(78,129,o),
(75,134,o),
(76,138,qs),
(76,140,o),
(82,151,o),
(86,151,qs),
(91,151,o),
(100,139,o),
(105,137,qs),
(109,136,o),
(118,136,o),
(120,136,qs),
(124,136,o),
(128,139,o),
(131,138,qs),
(139,136,o),
(137,122,o),
(136,116,q),
(124,107,o)
);
},
{
closed = 1;
nodes = (
(80,55,o),
(72,56,q),
(68,59,o),
(55,64,o),
(61,47,q),
(66,44,o),
(75,42,o),
(78,39,qs),
(80,36,o),
(79,26,o),
(83,25,qs),
(85,25,o),
(92,32,o),
(98,41,o),
(100,51,o),
(97,54,q),
(89,52,o)
);
}
);
width = 292;
}
);
note = comma;
unicode = 44;
},
{
glyphname = hyphen;
layers = (
{
layerId = m01;
shapes = (
{
closed = 1;
nodes = (
(530,439,o),
(518,444,q),
(508,442,o),
(482,445,o),
(471,445,qs),
(466,445,o),
(452,447,o),
(440,446,o),
(430,440,o),
(430,434,q),
(433,431,o),
(443,431,qs),
(460,432,o),
(494,430,o),
(508,425,q),
(513,421,o),
(517,408,o),
(521,402,q),
(525,401,o),
(533,397,o),
(538,399,q),
(543,413,o)
);
},
{
closed = 1;
nodes = (
(465,410,qs),
(444,411,o),
(406,413,o),
(387,409,qs),
(380,407,o),
(368,400,o),
(361,396,q),
(356,398,o),
(347,402,o),
(342,404,qs),
(337,406,o),
(327,412,o),
(322,412,qs),
(305,414,o),
(274,409,o),
(260,414,q),
(256,412,o),
(249,413,o),
(245,413,qs),
(234,414,o),
(212,413,o),
(201,414,qs),
(186,414,o),
(151,412,o),
(134,411,qs),
(123,410,o),
(102,412,o),
(91,412,qs),
(75,413,o),
(46,406,o),
(32,403,q),
(30,400,o),
(24,394,o),
(22,389,qs),
(20,383,o),
(22,369,o),
(22,361,q),
(20,350,o),
(22,331,o),
(27,325,q),
(33,325,o),
(42,317,o),
(47,316,qs),
(57,314,o),
(78,318,o),
(89,317,qs),
(112,317,o),
(164,321,o),
(191,317,q),
(196,320,o),
(202,327,o),
(207,328,qs),
(215,330,o),
(231,320,o),
(239,323,q),
(252,315,o),
(283,319,o),
(298,319,qs),
(306,319,o),
(318,318,o),
(327,318,qs),
(338,319,o),
(361,319,o),
(373,321,qs),
(391,323,o),
(420,322,o),
(439,323,qs),
(451,323,o),
(473,322,o),
(481,323,qs),
(486,324,o),
(500,330,o),
(503,344,qs),
(505,359,o),
(503,396,o),
(488,414,q),
(479,410,o)
);
},
{
closed = 1;
nodes = (
(76,349,o),
(71,345,q),
(67,347,o),
(54,353,o),
(54,358,qs),
(53,363,o),
(64,376,o),
(70,378,qs),
(75,380,o),
(88,381,o),
(93,381,qs),
(98,382,o),
(111,385,o),
(113,381,q),
(112,370,o),
(94,370,o),
(86,366,q),
(81,362,o)
);
},
{
closed = 1;
nodes = (
(142,377,q),
(142,381,o),
(145,384,o),
(152,384,q),
(157,392,o),
(166,386,q),
(171,379,o),
(162,370,o),
(155,369,q),
(148,372,o)
);
},
{
closed = 1;
nodes = (
(517,386,o),
(518,378,qs),
(519,373,o),
(528,371,o),
(538,374,o),
(544,383,o),
(541,389,q),
(536,391,o)
);
},
{
closed = 1;
nodes = (
(154,299,o),
(135,293,o),
(128,294,q),
(126,297,o),
(114,298,o),
(108,298,qs),
(101,298,o),
(86,298,o),
(81,297,qs),
(73,296,o),
(60,294,o),
(54,296,qs),
(47,298,o),
(32,305,o),
(27,297,qs),
(21,289,o),
(38,283,o),
(51,276,q),
(57,274,o),
(68,276,o),
(73,278,q),
(80,279,o),
(93,278,o),
(100,279,qs),
(102,279,o),
(107,281,o),
(119,281,q),
(125,283,o),
(135,288,o),
(141,286,q),
(144,290,o),
(161,287,o),
(162,292,q),
(158,297,l)
);
}
);
width = 562;
}
);
note = hyphen;
unicode = 45;
},
{
glyphname = period;
layers = (
{
layerId = m01;
shapes = (
{
closed = 1;
nodes = (
(279,178,o),
(271,196,q),
(267,199,o),
(260,204,o),
(256,207,q),
(249,215,o),
(240,233,o),
(230,238,qs),
(222,242,o),
(204,245,o),
(194,246,qs),
(184,247,o),
(165,252,o),
(157,252,qs),
(141,252,o),
(118,243,o),
(104,244,q),
(96,236,o),
(77,228,o),
(70,221,qs),
(68,219,o),
(64,214,o),
(61,211,qs),
(56,205,o),
(53,198,o),
(50,190,qs),
(48,183,o),
(43,167,o),
(42,159,qs),
(41,147,o),
(45,134,o),
(48,125,qs),
(50,121,o),
(51,111,o),
(59,97,q),
(61,95,o),
(63,89,o),
(65,87,q),
(71,76,o),
(90,65,o),
(102,60,q),
(111,58,o),
(126,57,o),
(136,56,qs),
(154,54,o),
(190,57,o),
(203,65,qs),
(206,67,o),
(212,73,o),
(217,75,qs),
(222,77,o),
(235,74,o),
(243,74,qs),
(254,75,o),
(269,88,o),
(274,96,qs),
(282,107,o),
(291,132,o),
(289,146,qs),
(287,158,o)
);
},
{
closed = 1;
nodes = (
(114,189,o),
(113,184,qs),
(111,178,o),
(115,167,o),
(112,163,qs),
(110,159,o),
(99,158,o),
(94,157,q),
(90,162,o),
(87,178,o),
(88,186,q),
(93,195,o),
(109,207,o),
(120,197,q),
(120,192,o)
);
},
{
closed = 1;
nodes = (
(234,113,o),
(228,112,o),
(224,116,o),
(225,122,qs),
(226,125,o),
(230,133,o),
(230,138,qs),
(231,143,o),
(232,151,o),
(237,153,qs),
(242,154,o),
(246,147,o),
(246,136,o),
(243,123,o),
(241,120,qs),
(239,118,o)
);
},
{
closed = 1;
nodes = (
(208,48,o),
(206,46,q),
(204,45,o),
(194,44,o),
(193,41,qs),
(192,37,o),
(199,35,o),
(209,36,o),
(220,38,o),
(232,41,q),
(235,44,o),
(233,52,q),
(225,59,o),
(216,55,qs),
(213,53,o)
);
},
{
closed = 1;
nodes = (
(71,55,o),
(68,57,qs),
(59,62,o),
(43,82,o),
(38,87,q),
(34,93,o),
(30,103,o),
(22,103,q),
(17,86,o),
(31,62,o),
(37,51,q),
(44,44,o),
(67,31,o),
(81,31,q),
(86,30,o),
(100,35,o),
(100,40,qs),
(100,44,o),
(87,50,o),
(84,52,qs),
(79,54,o)
);
}
);
width = 309;
}
);
note = period;
unicode = 46;
},
{
glyphname = slash;
layers = (
{
layerId = m01;
shapes = (
{
closed = 1;
nodes = (
(273,734,o),
(257,735,q),
(244,728,o),
(240,717,qs),
(239,715,o),
(239,708,o),
(238,706,qs),
(235,696,o),
(228,678,o),
(226,668,qs),
(225,665,o),
(225,659,o),
(224,657,qs),
(222,650,o),
(216,639,o),
(214,633,q),
(214,631,o),
(215,626,o),
(210,617,qs),
(208,613,o),
(207,604,o),
(205,599,qs),
(203,594,o),
(199,585,o),
(199,582,qs),
(198,577,o),
(200,568,o),
(200,563,qs),
(199,549,o),
(183,528,o),
(182,514,q),
(179,512,o),
(177,503,o),
(175,501,q),
(173,481,o),
(160,454,o),
(158,435,q),
(155,430,o),
(153,417,o),
(152,409,q),
(144,389,o),
(130,347,o),
(121,329,q),
(123,319,o),
(128,299,o),
(126,291,qs),
(124,284,o),
(114,274,o),
(103,265,o),
(96,255,o),
(96,248,q),
(94,241,o),
(90,228,o),
(88,220,q),
(83,209,o),
(74,181,o),
(71,169,q),
(65,158,o),
(58,132,o),
(52,121,q),
(50,112,o),
(45,93,o),
(42,85,qs),
(40,81,o),
(36,75,o),
(35,72,qs),
(33,64,o),
(30,51,o),
(28,44,qs),
(27,41,o),
(22,36,o),
(22,33,q),
(20,27,o),
(22,16,o),
(23,11,qs),
(24,8,o),
(30,7,o),
(38,0,q),
(43,-2,o),
(56,1,o),
(63,1,qs),
(74,1,o),
(91,2,o),
(98,2,q),
(109,13,o),
(118,49,o),
(124,66,qs),
(136,94,o),
(154,155,o),
(170,217,o),
(186,278,o),
(196,307,q),
(198,321,o),
(207,346,o),
(208,360,qs),
(208,364,o),
(206,371,o),
(206,374,qs),
(207,379,o),
(212,389,o),
(214,393,qs),
(217,397,o),
(226,404,o),
(229,409,q),
(231,419,o),
(238,435,o),
(242,442,q),
(243,453,o),
(249,472,o),
(254,481,q),
(261,504,o),
(276,553,o),
(284,575,qs),
(288,587,o),
(294,611,o),
(299,623,qs),
(303,634,o),
(311,657,o),
(315,670,q),
(314,677,o),
(318,689,o),
(322,701,o),
(324,713,o),
(323,719,qs),
(322,723,o),
(317,727,o),
(315,732,q),
(301,738,o)
);
},
{
closed = 1;
nodes = (
(284,668,o),
(275,665,q),
(271,667,o),
(266,665,o),
(264,663,q),
(259,677,o),
(276,695,o),
(286,701,q),
(296,694,o)
);
},
{
closed = 1;
nodes = (
(100,116,o),
(105,119,q),
(110,114,o),
(107,93,o),
(98,94,q),
(95,99,o)
);
},
{
closed = 1;
nodes = (
(83,59,o),
(81,50,q),
(74,52,o),
(67,45,o),
(59,44,q),
(54,55,o),
(67,75,o),
(71,84,q),
(82,82,o)
);
}
);
width = 344;
}
);
note = slash;
unicode = 47;
},
{
glyphname = zero;
layers = (
{
layerId = m01;
shapes = (
{
closed = 1;
nodes = (
(553,764,o),
(560,763,qs),
(565,762,o),
(574,758,o),
(580,757,qs),
(585,756,o),
(593,756,o),
(597,756,q),
(610,750,o),
(633,737,o),
(641,727,qs),
(648,720,o),
(660,704,o),
(674,706,q),
(670,728,o),
(656,745,q),
(649,750,o),
(638,762,o),
(632,766,qs),
(630,767,o),
(617,773,qs),
(614,775,o),
(607,774,o),
(603,775,qs),
(597,777,o),
(585,782,o),
(577,784,qs),
(571,785,o),
(559,784,o),
(554,788,q),
(550,788,o),
(544,791,o),
(535,786,q),
(535,781,o),
(538,776,o),
(536,769,q),
(541,764,o)
);
},
{
closed = 1;
nodes = (
(740,373,o),
(742,404,o),
(740,420,qs),
(738,430,o),
(734,449,o),
(734,460,q),
(733,463,o),
(735,469,o),
(734,472,q),
(734,490,o),
(727,524,o),
(724,541,q),
(722,546,o),
(723,557,o),
(721,562,qs),
(720,566,o),
(717,573,o),
(715,578,qs),
(712,586,o),
(705,598,o),
(701,605,q),
(700,608,o),
(699,615,o),
(697,618,q),
(695,625,o),
(684,635,o),
(681,641,qs),
(679,644,o),
(677,651,o),
(675,653,qs),
(673,656,o),
(667,661,o),
(665,665,q),
(661,669,o),
(657,676,o),
(655,679,qs),
(654,681,o),
(651,683,o),
(645,692,q),
(642,694,o),
(636,697,o),
(634,699,qs),
(629,705,o),
(624,715,o),
(620,720,q),
(606,726,o),
(580,740,o),
(563,741,qs),
(553,742,o),
(534,736,o),
(524,740,q),
(522,742,o),
(515,746,o),
(513,750,qs),
(511,753,o),
(509,758,o),
(506,760,qs),
(501,762,o),
(480,761,o),
(464,765,q),
(461,765,o),
(453,763,o),
(449,764,q),
(444,764,o),
(431,767,o),
(426,767,qs),
(424,767,o),
(420,766,o),
(408,767,qs),
(392,767,o),
(366,764,o),
(349,762,qs),
(341,762,o),
(327,758,o),
(319,756,qs),
(316,755,o),
(309,756,o),
(306,755,qs),
(303,754,o),
(298,752,o),
(295,751,qs),
(280,746,o),
(253,739,o),
(241,732,qs),
(234,729,o),
(223,722,o),
(218,718,qs),
(213,714,o),
(202,708,o),
(197,703,qs),
(194,700,o),
(188,693,o),
(185,691,qs),
(182,688,o),
(175,683,o),
(172,680,qs),
(170,677,o),
(165,670,o),
(162,666,qs),
(149,652,o),
(129,620,o),
(119,604,qs),
(117,600,o),
(111,593,o),
(109,589,q),
(105,584,o),
(101,569,o),
(99,563,qs),
(98,560,o),
(96,555,o),
(95,552,q),
(93,549,o),
(90,543,o),
(89,541,q),
(88,536,o),
(87,525,o),
(85,520,qs),
(83,515,o),
(83,504,o),
(81,499,qs),
(80,494,o),
(76,486,o),
(75,481,qs),
(75,479,o),
(77,472,o),
(77,469,qs),
(77,465,o),
(75,458,o),
(76,456,qs),
(77,452,o),
(87,446,o),
(89,444,qs),
(94,438,o),
(100,416,o),
(96,407,qs),
(94,402,o),
(89,399,o),
(88,395,qs),
(87,390,o),
(90,374,o),
(90,368,qs),
(90,360,o),
(87,347,o),
(88,340,qs),
(90,334,o),
(97,325,o),
(97,318,qs),
(98,302,o),
(85,282,o),
(84,269,qs),
(84,266,o),
(85,260,o),
(85,257,qs),
(86,243,o),
(86,214,o),
(88,200,qs),
(91,163,o),
(104,136,q),
(106,134,o),
(110,129,o),
(111,127,qs),
(115,120,o),
(121,102,o),
(126,97,qs),
(128,95,o),
(134,92,o),
(136,90,qs),
(139,88,o),
(145,84,o),
(147,83,qs),
(151,81,o),
(157,82,o),
(160,80,qs),
(165,78,o),
(174,66,o),
(177,61,qs),
(184,48,o),
(197,22,o),
(214,18,q),
(219,13,o),
(231,6,o),
(238,3,qs),
(244,0,o),
(257,-7,o),
(263,-9,qs),
(271,-11,o),
(286,-13,o),
(295,-15,qs),
(299,-16,o),
(306,-18,o),
(310,-18,q),
(317,-20,o),
(332,-19,o),
(339,-20,qs),
(347,-22,o),
(363,-22,o),
(371,-22,qs),
(376,-22,o),
(386,-24,o),
(391,-24,qs),
(397,-23,o),
(410,-20,o),
(415,-22,q),
(420,-22,o),
(430,-25,o),
(436,-25,qs),
(443,-25,o),
(460,-23,o),
(468,-23,qs),
(476,-22,o),
(494,-18,o),
(500,-16,qs),
(512,-11,o),
(529,8,o),
(542,11,qs),
(553,13,o),
(577,11,o),
(588,14,qs),
(590,15,o),
(596,20,o),
(598,22,qs),
(601,24,o),
(607,25,o),
(610,27,qs),
(616,31,o),
(629,41,o),
(642,50,qs),
(647,54,o),
(658,60,o),
(663,65,qs),
(669,70,o),
(676,81,o),
(681,86,qs),
(687,92,o),
(698,104,o),
(703,111,qs),
(711,122,o),
(719,144,o),
(727,154,q),
(727,159,o),
(731,168,o),
(733,173,qs),
(735,181,o),
(736,200,o),
(742,216,q),
(744,229,o),
(742,255,o),
(743,269,qs),
(744,283,o),
(744,306,o),
(744,317,qs),
(744,325,o),
(745,341,o),
(744,348,q),
(741,357,l)
);
},
{
closed = 1;
nodes = (
(143,416,q),
(138,424,o),
(146,439,o),
(161,437,q),
(165,431,o),
(159,417,o),
(154,414,q),
(149,414,o)
);
},
{
closed = 1;
nodes = (
(151,515,o),
(153,505,qs),
(155,497,o),
(158,479,o),
(147,477,qs),
(137,475,o),
(130,495,o),
(133,503,q),
(129,512,o),
(135,533,o),
(137,542,q),
(140,546,o),
(146,561,o),
(152,576,o),
(160,589,o),
(173,586,q),
(180,569,o),
(168,543,o),
(161,532,qs),
(157,526,o)
);
},
{
closed = 1;
nodes = (
(313,251,o),
(311,250,q),
(305,249,o),
(299,275,o),
(299,285,qs),
(299,290,o),
(303,299,o),
(303,304,qs),
(303,308,o),
(302,319,o),
(303,329,o),
(307,334,o),
(312,331,q),
(312,326,o),
(317,318,o),
(319,313,qs),
(321,308,o),
(322,293,o),
(323,286,qs),
(324,278,o),
(325,267,o),
(321,261,qs),
(319,259,o)
);
},
{
closed = 1;
nodes = (
(468,217,o),
(466,212,qs),
(464,205,o),
(464,185,o),
(462,177,qs),
(460,169,o),
(450,150,o),
(442,145,qs),
(435,141,o),
(420,142,o),
(410,140,q),
(388,144,o),
(379,160,qs),
(377,163,o),
(373,170,o),
(371,172,q),
(369,179,o),
(368,192,o),
(362,197,q),
(360,207,o),
(349,220,o),
(352,236,q),
(354,238,o),
(360,242,o),
(361,244,qs),
(364,249,o),
(361,263,o),
(360,269,qs),
(360,272,o),
(362,279,o),
(362,282,qs),
(362,287,o),
(360,299,o),
(360,304,qs),
(360,318,o),
(361,345,o),
(359,359,qs),
(357,372,o),
(355,395,o),
(356,408,qs),
(356,411,o),
(357,417,o),
(357,419,qs),
(356,430,o),
(340,446,o),
(337,455,q),
(336,463,o),
(340,476,o),
(343,482,qs),
(345,485,o),
(351,493,o),
(352,506,qs),
(353,514,o),
(350,531,o),
(350,540,qs),
(350,557,o),
(359,585,o),
(371,596,qs),
(376,601,o),
(386,606,o),
(393,609,qs),
(401,611,o),
(417,608,o),
(423,607,qs),
(433,605,o),
(435,604,qs),
(440,601,o),
(452,582,o),
(455,573,qs),
(457,568,o),
(457,552,o),
(457,544,qs),
(459,528,o),
(459,492,o),
(458,477,q),
(463,460,o),
(461,426,o),
(463,408,qs),
(467,380,o),
(467,328,o),
(473,303,qs),
(475,293,o),
(477,288,qs),
(480,281,o),
(487,262,o),
(488,252,q),
(486,247,o),
(481,237,o),
(477,231,qs),
(475,227,o)
);
},
{
closed = 1;
nodes = (
(636,100,o),
(632,100,qs),
(627,100,o),
(620,111,o),
(620,125,q),
(625,130,o),
(633,136,o),
(638,141,qs),
(642,146,o),
(647,156,o),
(656,169,q),
(663,170,o),
(667,181,o),
(675,180,q),
(678,179,o),
(682,175,o),
(685,173,q),
(681,151,o),
(660,117,o),
(645,103,q),
(640,107,o)
);
},
{
closed = 1;
nodes = (
(686,213,o),
(677,219,o),
(671,230,o),
(672,237,q),
(679,250,o),
(691,261,q),
(695,261,o),
(699,252,o),
(700,240,o),
(700,226,o),
(700,222,q),
(697,216,o)
);
},
{
closed = 1;
nodes = (
(708,664,o),
(705,674,o),
(700,684,o),
(700,687,q),
(691,697,o),
(682,677,o),
(687,667,qs),
(689,662,o),
(700,654,o),
(703,655,qs),
(708,656,o)
);
},
{
closed = 1;
nodes = (
(388,581,o),
(379,575,q),
(375,570,o),
(376,554,o),
(383,555,qs),
(387,556,o),
(391,567,o),
(397,570,qs),
(402,572,o),
(412,570,q),
(418,565,o),
(417,550,o),
(416,543,qs),
(414,531,o),
(413,506,o),
(418,495,qs),
(420,490,o),
(428,477,o),
(432,479,qs),
(437,481,o),
(435,505,o),
(434,510,q),
(434,518,o),
(437,536,o),
(437,544,qs),
(436,556,o),
(428,579,o),
(420,583,qs),
(410,588,o)
);
},
{
closed = 1;
nodes = (
(421,450,o),
(422,436,o),
(429,426,o),
(434,427,q),
(436,430,o),
(438,441,o),
(438,453,o),
(434,461,o),
(430,461,qs),
(425,461,o)
);
},
{
closed = 1;
nodes = (
(66,405,o),
(69,423,o),
(66,440,o),
(60,443,qs),
(48,450,o),
(40,431,o),
(41,422,qs),
(42,414,o),
(45,398,o),
(54,387,q),
(58,389,o)
);
},
{
closed = 1;
nodes = (
(145,45,o),
(142,49,qs),
(137,54,o),
(134,69,q),
(132,74,o),
(121,80,o),
(117,83,qs),
(110,89,o),
(98,105,o),
(91,110,q),
(78,130,o),
(64,184,o),
(59,212,q),
(49,215,o),
(50,198,o),
(47,179,q),
(47,167,o),
(58,145,o),
(60,134,qs),
(62,123,o),
(71,106,o),
(76,98,q),
(78,93,o),
(82,87,o),
(84,82,q),
(96,62,o),
(106,49,qs),
(117,37,o),
(140,11,o),
(154,3,q),
(158,5,o),
(159,2,o),
(170,8,q),
(171,17,o),
(161,27,o),
(156,32,qs),
(152,36,o)
);
},
{
closed = 1;
nodes = (
(185,-15,o),
(204,-40,o),
(217,-35,q),
(220,-33,o),
(222,-28,o),
(224,-25,q),
(221,-13,o),
(200,-6,o),
(190,-1,q),
(187,-2,l)
);
}
);
width = 765;
}
);
note = zero;
unicode = 48;
},
{
glyphname = one;
layers = (
{
layerId = m01;
shapes = (
{
closed = 1;
nodes = (
(163,729,o),
(181,745,o),
(184,759,q),
(194,764,o),
(214,774,o),
(226,772,q),
(234,775,o),
(247,777,o),
(253,781,q),
(254,787,o),
(250,791,o),
(243,791,o),
(234,789,o),
(221,794,qs),
(215,796,o),
(203,793,o),
(198,792,qs),
(190,790,o),
(182,789,o),
(178,784,qs),
(177,783,o),
(177,779,o),
(169,769,q),
(167,764,o),
(162,757,o),
(160,753,qs),
(157,746,o),
(147,736,o),
(144,727,q),
(138,721,o),
(131,706,q),
(135,701,o),
(141,713,o),
(146,714,q),
(153,722,l)
);
},
{
closed = 1;
nodes = (
(483,146,o),
(476,148,qs),
(472,150,o),
(462,150,o),
(457,150,qs),
(454,150,o),
(445,147,o),
(443,147,q),
(441,148,o),
(435,156,o),
(433,159,q),
(430,167,o),
(432,190,o),
(431,201,qs),
(430,216,o),
(421,237,o),
(425,251,qs),
(426,254,o),
(429,259,o),
(430,261,qs),
(431,265,o),
(431,275,o),
(431,280,qs),
(434,302,o),
(432,344,o),
(430,367,qs),
(429,378,o),
(429,400,o),
(428,411,qs),
(428,420,o),
(426,439,o),
(426,449,qs),
(427,460,o),
(430,479,o),
(428,488,qs),
(427,496,o),
(423,511,o),
(421,518,q),
(421,521,o),
(416,526,o),
(414,530,q),
(413,535,o),
(411,555,o),
(411,560,qs),
(412,567,o),
(420,590,o),
(429,602,q),
(430,607,o),
(430,622,o),
(430,629,qs),
(430,639,o),
(431,658,o),
(431,669,qs),
(431,677,o),
(433,692,o),
(432,700,qs),
(431,711,o),
(425,729,o),
(425,738,q),
(417,743,o),
(404,745,qs),
(396,746,o),
(378,742,o),
(360,738,o),
(342,736,o),
(335,739,qs),
(332,740,o),
(328,744,o),
(325,746,q),
(309,745,o),
(273,742,o),
(245,745,qs),
(243,745,o),
(241,744,o),
(229,745,q),
(223,744,o),
(213,737,o),
(208,735,q),
(205,730,o),
(196,723,o),
(191,720,q),
(185,703,o),
(172,690,q),
(172,684,o),
(167,676,o),
(159,663,q),
(156,660,o),
(148,657,o),
(139,654,o),
(134,649,o),
(134,644,q),
(129,641,o),
(123,632,o),
(119,627,qs),
(114,620,o),
(103,610,o),
(98,604,qs),
(93,596,o),
(82,580,o),
(75,574,q),
(74,569,o),
(68,565,o),
(66,560,qs),
(64,553,o),
(63,533,o),
(63,525,qs),
(63,521,o),
(62,513,o),
(63,511,qs),
(65,506,o),
(83,498,o),
(90,497,qs),
(98,496,o),
(120,502,o),
(130,501,qs),
(137,500,o),
(145,501,o),
(158,499,q),
(161,491,o),
(160,475,o),
(160,465,qs),
(160,460,o),
(159,449,o),
(158,444,qs),
(158,439,o),
(160,428,o),
(158,413,qs),
(157,406,o),
(159,393,o),
(158,388,qs),
(156,371,o),
(153,338,o),
(155,322,qs),
(156,316,o),
(154,308,o),
(155,295,qs),
(155,286,o),
(151,264,o),
(153,257,qs),
(154,253,o),
(160,247,o),
(162,242,qs),
(165,232,o),
(160,210,o),
(155,206,q),
(153,190,o),
(156,160,o),
(152,144,q),
(144,145,o),
(130,143,o),
(126,142,qs),
(121,141,o),
(109,143,o),
(104,141,q),
(81,136,o),
(73,117,qs),
(71,113,o),
(72,105,o),
(69,91,qs),
(68,80,o),
(74,63,o),
(76,54,qs),
(77,45,o),
(72,26,o),
(74,18,qs),
(75,14,o),
(86,1,o),
(88,0,qs),
(91,-2,o),
(101,-2,o),
(105,-2,qs),
(110,-3,o),
(122,-1,o),
(127,-1,qs),
(137,-1,o),
(157,2,o),
(165,2,q),
(171,4,o),
(181,17,o),
(188,19,qs),
(192,21,o),
(202,22,o),
(207,22,qs),
(215,22,o),
(227,16,o),
(244,14,q),
(260,10,o),
(293,5,o),
(310,3,qs),
(319,2,o),
(337,4,o),
(347,4,qs),
(362,5,o),
(388,3,o),
(401,3,qs),
(405,3,o),
(411,5,o),
(414,5,qs),
(422,5,o),
(438,6,o),
(447,6,qs),
(464,7,o),
(490,7,o),
(501,13,q),
(506,20,o),
(503,33,o),
(503,39,qs),
(502,44,o),
(505,52,o),
(505,57,qs),
(504,72,o),
(505,88,qs),
(506,99,o),
(510,121,o),
(504,129,qs),
(500,134,o)
);
},
{
closed = 1;
nodes = (
(182,82,o),
(166,86,qs),
(161,88,o),
(151,90,o),
(157,98,qs),
(160,101,o),
(170,102,o),
(181,102,o),
(190,104,o),
(193,109,q),
(195,118,o),
(197,139,o),
(207,141,q),
(211,137,o),
(213,122,o),
(211,106,o),
(205,93,o),
(201,90,q),
(193,89,o)
);
},
{
closed = 1;
nodes = (
(199,192,o),
(195,195,q),
(197,200,o),
(200,214,o),
(214,221,q),
(218,221,o),
(221,212,o),
(220,201,o),
(216,190,o),
(214,187,q),
(209,187,o)
);
},
{
closed = 1;
nodes = (
(268,683,o),
(262,681,qs),
(255,679,o),
(246,671,o),
(242,673,q),
(234,670,o),
(228,654,o),
(223,649,q),
(217,647,o),
(207,653,o),
(206,658,qs),
(206,662,o),
(214,672,o),
(216,677,q),
(222,687,o),
(234,701,o),
(245,707,q),
(249,705,o),
(258,704,o),
(267,707,q),
(275,706,o),
(287,692,o),
(281,686,qs),
(277,683,o)
);
},
{
closed = 1;
nodes = (
(324,683,o),
(321,688,q),
(322,693,o),
(328,703,o),
(342,698,q),
(348,694,o),
(344,687,q),
(339,685,o)
);
},
{
closed = 1;
nodes = (
(452,49,o),
(447,47,qs),
(439,45,o),
(432,45,qs),
(417,44,o),
(381,43,o),
(368,42,q),
(368,54,o),
(383,62,o),
(405,64,o),
(428,65,o),
(434,70,qs),
(436,72,o),
(436,80,o),
(438,84,q),
(442,89,o),
(456,88,o),
(461,85,q),
(462,81,o),
(464,76,o),
(463,71,qs),
(462,66,o)
);
},
{
closed = 1;
nodes = (
(42,542,o),
(45,544,q),
(50,551,o),
(43,566,o),
(35,566,q),
(33,562,o),
(29,555,o),
(27,551,q),
(28,548,o),
(30,542,o),
(33,541,q),
(36,543,o)
);
},
{
closed = 1;
nodes = (
(85,451,o),
(88,449,qs),
(98,440,o),
(99,411,o),
(105,398,q),
(111,397,o),
(123,406,o),
(122,423,qs),
(122,428,o),
(126,441,o),
(126,446,qs),
(126,449,o),
(125,454,o),
(128,465,q),
(127,470,o),
(120,475,o),
(118,477,q),
(100,473,o),
(64,479,o),
(50,484,q),
(51,489,o),
(50,505,o),
(46,520,o),
(39,531,o),
(34,530,qs),
(31,529,o),
(20,505,o),
(20,501,qs),
(19,496,o),
(28,471,o),
(32,469,q),
(35,466,o),
(46,466,o),
(59,461,qs),
(62,460,o),
(68,462,o),
(76,454,q),
(79,452,o)
);
},
{
closed = 1;
nodes = (
(491,163,o),
(503,162,q),
(502,171,o),
(489,176,q),
(480,184,o),
(469,206,o),
(472,223,q),
(469,226,o),
(462,237,o),
(455,233,q),
(453,227,o),
(454,213,o),
(454,207,qs),
(454,204,o),
(452,197,o),
(452,194,qs),
(451,179,o),
(465,162,o),
(477,161,qs),
(482,160,o)
);
},
{
closed = 1;
nodes = (
(302,-19,o),
(294,-19,qs),
(290,-19,o),
(279,-17,o),
(269,-12,q),
(269,-12,o),
(254,-8,q),
(253,-4,o),
(244,-3,o),
(240,-1,qs),
(238,0,o),
(230,5,o),
(226,1,q),
(221,2,o),
(207,0,o),
(203,-2,q),
(193,-10,o),
(183,-24,o),
(196,-30,q),
(203,-31,o),
(214,-29,o),
(219,-27,q),
(225,-29,o),
(238,-27,o),
(246,-27,q),
(249,-29,o),
(257,-28,o),
(261,-28,qs),
(278,-29,o),
(318,-31,o),
(332,-19,q),
(324,-13,o)
);
},
{
closed = 1;
nodes = (
(349,-31,o),
(360,-31,q),
(366,-27,o),
(365,-18,o),
(358,-14,o),
(348,-14,o),
(345,-19,q),
(345,-27,l)
);
}
);
width = 559;
}
);
note = one;
unicode = 49;
},
{
glyphname = two;
layers = (
{
layerId = m01;
shapes = (
{
closed = 1;
nodes = (
(171,739,o),
(182,739,q),
(187,738,o),
(196,734,o),
(199,734,qs),
(207,734,o),
(217,741,o),
(224,742,q),
(229,747,o),
(238,758,o),
(251,765,q),
(258,774,o),
(277,785,o),
(288,792,q),
(295,794,o),
(311,793,o),
(319,795,q),
(330,796,o),
(351,801,o),
(362,800,qs),
(367,800,o),
(377,796,o),
(383,795,qs),
(391,793,o),
(410,792,o),
(413,797,q),
(414,810,o),
(394,814,o),
(384,813,qs),
(378,813,o),
(365,815,o),
(354,813,qs),
(346,812,o),
(330,816,o),
(322,815,qs),
(318,814,o),
(311,811,o),
(301,809,q),
(291,811,o),
(270,801,o),
(259,799,q),
(257,797,o),
(252,790,o),
(242,786,qs),
(220,778,o),
(180,754,o),
(165,736,q),
(167,736,o)
);
},
{
closed = 1;
nodes = (
(675,12,o),
(679,17,qs),
(683,21,o),
(687,27,q),
(691,36,o),
(689,62,o),
(691,74,qs),
(691,78,o),
(693,86,o),
(694,91,qs),
(696,107,o),
(693,133,o),
(685,141,q),
(674,143,o),
(648,144,o),
(634,140,qs),
(631,139,o),
(627,135,o),
(624,133,q),
(608,128,o),
(581,138,o),
(567,143,q),
(565,145,o),
(563,153,o),
(560,155,qs),
(556,157,o),
(536,153,o),
(518,155,qs),
(513,156,o),
(501,153,o),
(495,153,qs),
(490,153,o),
(481,155,o),
(476,155,qs),
(472,155,o),
(464,153,o),
(459,153,qs),
(455,153,o),
(445,155,q),
(442,155,o),
(436,154,o),
(424,156,qs),
(417,157,o),
(405,153,o),
(398,162,q),
(402,167,o),
(411,174,o),
(413,181,q),
(417,183,o),
(423,190,o),
(427,193,q),
(432,195,o),
(441,199,o),
(446,201,qs),
(450,203,o),
(454,210,o),
(458,210,q),
(461,215,o),
(471,220,o),
(476,224,qs),
(478,226,o),
(482,231,o),
(484,233,qs),
(498,244,o),
(527,261,o),
(535,285,q),
(538,288,o),
(544,297,o),
(549,299,qs),
(551,300,o),
(555,300,o),
(564,305,q),
(567,305,o),
(573,303,o),
(577,303,q),
(583,309,o),
(588,310,q),
(591,313,o),
(596,319,o),
(605,331,q),
(622,348,o),
(652,385,o),
(663,410,q),
(676,428,o),
(687,483,o),
(688,512,qs),
(688,522,o),
(686,544,o),
(685,555,qs),
(683,564,o),
(680,584,o),
(678,590,q),
(671,604,o),
(665,613,q),
(663,615,o),
(662,621,o),
(660,623,q),
(658,628,o),
(653,634,o),
(646,641,q),
(640,655,o),
(619,676,o),
(608,687,q),
(603,687,o),
(597,695,o),
(584,702,q),
(581,705,o),
(577,710,o),
(573,712,q),
(568,716,o),
(555,721,o),
(551,726,q),
(540,729,o),
(523,740,o),
(511,742,q),
(501,747,o),
(477,756,o),
(465,758,q),
(459,760,o),
(447,759,o),
(440,760,q),
(435,762,o),
(425,765,o),
(420,766,qs),
(415,767,o),
(404,766,o),
(397,767,qs),
(393,768,o),
(386,771,o),
(381,771,qs),
(373,772,o),
(357,771,o),
(349,772,qs),
(328,774,o),
(286,767,o),
(266,762,q),
(263,756,o),
(253,748,o),
(248,731,q),
(246,728,o),
(238,722,o),
(234,720,qs),
(227,715,o),
(217,712,o),
(200,713,q),
(198,714,o),
(194,719,o),
(190,719,q),
(187,720,o),
(180,714,o),
(177,711,qs),
(174,709,o),
(167,708,o),
(164,706,qs),
(162,704,o),
(158,699,o),
(155,697,qs),
(149,693,o),
(140,685,o),
(135,681,qs),
(133,679,o),
(127,676,o),
(125,674,qs),
(120,670,o),
(115,660,o),
(111,655,q),
(106,652,o),
(99,647,o),
(94,633,qs),
(90,625,o),
(79,608,o),
(78,598,qs),
(76,587,o),
(82,573,o),
(86,567,qs),
(88,563,o),
(90,556,o),
(92,552,qs),
(94,549,o),
(99,543,o),
(101,539,qs),
(109,527,o),
(129,510,o),
(146,508,q),
(152,511,o),
(158,510,q),
(166,516,o),
(185,527,o),
(193,535,q),
(227,552,o),
(287,596,o),
(319,616,q),
(333,623,o),
(365,632,o),
(385,630,q),
(389,635,o),
(398,641,o),
(408,640,q),
(411,637,o),
(411,630,o),
(408,624,o),
(405,617,o),
(406,613,qs),
(406,611,o),
(410,604,o),
(412,600,qs),
(416,592,o),
(419,579,o),
(421,568,qs),
(422,564,o),
(424,555,o),
(425,552,q),
(425,547,o),
(423,535,o),
(423,528,qs),
(422,513,o),
(413,493,o),
(408,482,q),
(395,471,o),
(370,448,o),
(356,437,qs),
(351,433,o),
(343,429,o),
(338,425,qs),
(335,423,o),
(330,416,o),
(326,414,q),
(324,412,o),
(318,412,o),
(316,409,qs),
(314,405,o),
(316,395,o),
(314,391,qs),
(313,387,o),
(305,377,o),
(302,373,qs),
(299,368,o),
(293,358,o),
(289,355,qs),
(287,353,o),
(275,348,o),
(272,348,qs),
(269,348,o),
(263,352,o),
(260,351,q),
(253,351,o),
(243,339,o),
(230,330,qs),
(225,326,o),
(215,323,o),
(210,319,qs),
(208,317,o),
(204,312,o),
(202,310,qs),
(198,307,o),
(189,306,o),
(184,304,q),
(182,301,o),
(177,295,o),
(174,290,q),
(169,286,o),
(159,281,o),
(154,273,qs),
(151,269,o),
(147,259,o),
(142,251,o),
(136,248,o),
(130,251,q),
(126,249,o),
(118,247,o),
(114,244,qs),
(105,239,o),
(82,218,o),
(76,210,qs),
(75,208,o),
(74,203,o),
(67,193,q),
(65,188,o),
(70,179,o),
(73,172,qs),
(75,168,o),
(77,156,o),
(78,152,qs),
(80,142,o),
(75,127,o),
(72,119,qs),
(68,112,o),
(57,98,o),
(56,91,qs),
(56,86,o),
(61,74,o),
(59,69,q),
(67,56,o),
(88,36,o),
(96,25,q),
(100,24,o),
(105,19,o),
(110,20,q),
(113,12,o),
(124,10,o),
(137,6,qs),
(139,5,o),
(146,6,o),
(150,5,qs),
(153,4,o),
(159,1,o),
(162,0,qs),
(173,-2,o),
(186,3,o),
(196,4,qs),
(203,5,o),
(215,2,o),
(222,4,q),
(236,1,o),
(262,2,o),
(275,1,qs),
(283,1,o),
(297,-4,o),
(305,-4,qs),
(307,-4,o),
(313,-2,o),
(316,-2,qs),
(327,-2,o),
(350,-2,o),
(361,1,q),
(366,0,o),
(375,-3,o),
(379,-2,qs),
(385,0,o),
(388,7,o),
(391,9,qs),
(395,12,o),
(409,16,o),
(425,17,o),
(440,17,o),
(446,16,qs),
(455,15,o),
(474,3,o),
(483,0,qs),
(488,-2,o),
(497,-4,o),
(500,-8,q),
(509,-7,o),
(529,-9,o),
(538,-8,qs),
(550,-7,o),
(578,-7,o),
(599,-11,qs),
(604,-12,o),
(616,-10,o),
(632,-13,q),
(645,-13,o),
(658,-4,o),
(666,2,qs),
(671,6,o)
);
},
{
closed = 1;
nodes = (
(610,489,o),
(613,498,qs),
(617,509,o),
(639,502,o),
(641,493,qs),
(642,488,o),
(640,475,o),
(638,470,qs),
(635,463,o),
(625,447,o),
(622,436,q),
(618,430,o),
(615,417,o),
(611,412,q),
(604,399,o),
(596,393,q),
(588,397,o),
(586,412,q),
(591,426,o),
(601,452,o),
(608,462,qs),
(612,469,o)
);
},
{
closed = 1;
nodes = (
(139,563,o),
(136,569,qs),
(134,573,o),
(130,585,o),
(131,590,qs),
(132,595,o),
(144,606,o),
(152,604,qs),
(157,602,o),
(164,595,o),
(170,595,qs),
(178,595,o),
(194,606,o),
(205,601,q),
(204,590,o),
(194,577,o),
(181,567,o),
(166,559,o),
(160,554,q),
(155,557,o)
);
},
{
closed = 1;
nodes = (
(245,632,o),
(256,628,q),
(259,618,o),
(246,608,o),
(238,607,q),
(236,615,o)
);
},
{
closed = 1;
nodes = (
(104,70,o),
(101,71,qs),
(94,73,o),
(102,93,o),
(118,96,q),
(125,93,o),
(121,78,o),
(116,75,qs),
(114,74,o)
);
},
{
closed = 1;
nodes = (
(124,146,o),
(124,152,qs),
(123,160,o),
(115,174,o),
(114,182,qs),
(114,186,o),
(116,192,o),
(115,197,q),
(117,202,o),
(128,203,o),
(141,207,q),
(150,202,o),
(150,185,qs),
(150,176,o),
(148,157,o),
(142,141,o),
(131,131,o),
(122,132,q),
(121,137,o)
);
},
{
closed = 1;
nodes = (
(578,26,q),
(576,32,o),
(578,38,q),
(584,41,o),
(594,41,o),
(600,40,qs),
(607,40,o),
(617,45,o),
(625,52,o),
(634,58,o),
(640,60,q),
(647,51,o),
(637,25,o),
(629,20,qs),
(625,18,o),
(609,17,o),
(603,18,qs),
(594,19,o)
);
},
{
closed = 1;
nodes = (
(734,514,o),
(733,528,o),
(726,538,o),
(721,537,qs),
(718,536,o),
(715,526,o),
(715,514,o),
(719,503,o),
(723,503,qs),
(729,503,o)
);
},
{
closed = 1;
nodes = (
(246,543,o),
(242,542,qs),
(234,540,o),
(217,525,o),
(225,516,q),
(233,516,o),
(248,523,o),
(250,530,q),
(250,535,o)
);
},
{
closed = 1;
nodes = (
(131,465,o),
(138,464,qs),
(142,464,o),
(148,462,o),
(152,463,qs),
(155,464,o),
(161,469,o),
(166,471,qs),
(170,473,o),
(179,475,o),
(183,477,qs),
(187,480,o),
(195,487,o),
(197,489,qs),
(202,494,o),
(215,499,o),
(217,504,qs),
(219,509,o),
(207,518,o),
(202,516,qs),
(198,515,o),
(189,506,o),
(186,504,qs),
(183,502,o),
(169,495,o),
(166,493,qs),
(159,489,o),
(144,492,o),
(138,487,q),
(133,489,o),
(122,491,o),
(118,493,qs),
(114,495,o),
(112,504,o),
(101,496,q),
(101,488,o),
(109,482,q),
(111,479,o),
(114,472,o),
(116,470,qs),
(121,465,o)
);
},
{
closed = 1;
nodes = (
(674,385,o),
(671,381,o),
(669,378,qs),
(666,375,o),
(663,367,o),
(660,364,q),
(657,358,o),
(646,349,o),
(648,341,q),
(658,338,o),
(672,343,o),
(683,352,o),
(692,364,o),
(698,368,q),
(706,380,o),
(721,416,o),
(726,434,qs),
(728,439,o),
(730,453,o),
(730,458,qs),
(731,466,o),
(724,479,o),
(722,486,q),
(714,489,o),
(708,475,o),
(707,468,qs),
(705,459,o),
(707,444,o),
(705,437,qs),
(702,429,o),
(693,414,o),
(688,408,q),
(685,400,o),
(678,392,q),
(676,388,ls)
);
},
{
closed = 1;
nodes = (
(725,59,o),
(715,75,q),
(711,65,o),
(710,39,o),
(708,28,qs),
(707,23,o),
(692,12,o),
(688,7,qs),
(683,2,o),
(679,-8,o),
(675,-13,q),
(677,-17,o),
(674,-24,o),
(672,-26,q),
(668,-26,o),
(660,-30,o),
(654,-31,qs),
(650,-32,o),
(639,-32,o),
(629,-33,o),
(623,-38,o),
(624,-43,q),
(632,-45,o),
(650,-42,o),
(658,-42,qs),
(672,-41,o),
(697,-44,o),
(709,-41,q),
(711,-36,o),
(720,-28,o),
(715,-20,q),
(723,-16,o),
(723,-1,qs),
(723,17,o)
);
},
{
closed = 1;
nodes = (
(60,35,o),
(52,34,o),
(47,25,o),
(45,10,o),
(47,4,q),
(49,2,o),
(53,-4,o),
(68,-4,qs),
(71,-4,o),
(76,-6,o),
(79,-5,qs),
(84,-3,o),
(86,4,o),
(84,8,q),
(78,10,o),
(76,23,o),
(71,24,q),
(65,28,l)
);
}
);
width = 765;
}
);
note = two;
unicode = 50;
},
